SplineFontDB: 3.2
FontName: yuhao-kai
FullName: yuhao-kai
FamilyName: yuhao
Weight: Book
Copyright: 
Version: 1.0
ItalicAngle: 0
UnderlinePosition: -28
UnderlineWidth: 12
Ascent: 240
Descent: 16
InvalidEm: 0
sfntRevision: 0x00010000
LayerCount: 2
Layer: 0 1 "Back" 1
Layer: 1 1 "Fore" 0
XUID: [1021 792 953629758 27739]
StyleMap: 0x0040
FSType: 0
OS2Version: 4
OS2_WeightWidthSlopeOnly: 0
OS2_UseTypoMetrics: 0
CreationTime: 1641976500
ModificationTime: 1679234318
PfmFamily: 81
TTFWeight: 400
TTFWidth: 5
LineGap: 0
VLineGap: 0
Panose: 0 0 0 0 0 0 0 0 0 0
OS2TypoAscent: 240
OS2TypoAOffset: 0
OS2TypoDescent: -16
OS2TypoDOffset: 0
OS2TypoLinegap: 16
OS2WinAscent: 240
OS2WinAOffset: 0
OS2WinDescent: 16
OS2WinDOffset: 0
HheadAscent: 240
HheadAOffset: 0
HheadDescent: -16
HheadDOffset: 0
OS2SubXSize: 166
OS2SubYSize: 179
OS2SubXOff: 0
OS2SubYOff: 36
OS2SupXSize: 166
OS2SupYSize: 179
OS2SupXOff: 0
OS2SupYOff: 123
OS2StrikeYSize: 13
OS2StrikeYPos: 66
OS2Vendor: 'PfEd'
OS2CodePages: 00000001.00000000
OS2UnicodeRanges: 00000001.10000000.00000000.00000000
MarkAttachClasses: 1
DEI: 91125
ShortTable: maxp 16
  1
  0
  466
  765
  14
  0
  0
  2
  0
  0
  0
  0
  0
  0
  0
  0
EndShort
LangName: 1033 "" "+X5B4AQAA" "Regular" "" "" "Version 1.0" "" "" "" "" "Font generated by IcoMoon."
GaspTable: 1 65535 2 0
Encoding: UnicodeBmp
UnicodeInterp: none
NameList: AGL For New Fonts
DisplaySize: -48
AntiAlias: 1
FitToEm: 0
WinInfo: 58422 78 26
BeginPrivate: 0
EndPrivate
BeginChars: 65539 478

StartChar: .notdef
Encoding: 65536 -1 0
Width: 227
GlyphClass: 1
Flags: W
LayerCount: 2
Fore
SplineSet
59 20 m 0,0,1
 54 13 54 13 51 9.5 c 128,-1,2
 48 6 48 6 47 6 c 256,3,4
 46 6 46 6 44.5 7 c 128,-1,5
 43 8 43 8 42 11 c 0,6,7
 41 13 41 13 40 15 c 128,-1,8
 39 17 39 17 39 19 c 0,9,10
 39 20 39 20 40.5 22 c 128,-1,11
 42 24 42 24 45 27 c 0,12,13
 49 30 49 30 52 33.5 c 128,-1,14
 55 37 55 37 57 41 c 2,15,-1
 57 42 l 2,16,17
 60 47 60 47 62 49 c 128,-1,18
 64 51 64 51 64 51 c 2,19,20
 65 51 65 51 66 50 c 128,-1,21
 67 49 67 49 67 48 c 0,22,23
 68 47 68 47 68.5 45 c 128,-1,24
 69 43 69 43 69 41 c 2,25,26
 69 41 69 41 69 40 c 256,27,28
 69 39 69 39 69 39 c 2,29,30
 68 33 68 33 65.5 28 c 128,-1,31
 63 23 63 23 59 20 c 0,0,1
123 129 m 1,32,33
 132 138 132 138 136.5 143 c 128,-1,34
 141 148 141 148 140 150 c 0,35,36
 140 152 140 152 140.5 153.5 c 128,-1,37
 141 155 141 155 143 155 c 256,38,39
 145 155 145 155 147 154 c 128,-1,40
 149 153 149 153 151 149 c 0,41,42
 154 146 154 146 155.5 144 c 128,-1,43
 157 142 157 142 157 141 c 256,44,45
 157 140 157 140 155.5 138.5 c 128,-1,46
 154 137 154 137 152 135 c 2,47,-1
 128 116 l 2,48,49
 119 109 119 109 110 102.5 c 128,-1,50
 101 96 101 96 92 91 c 256,51,52
 83 86 83 86 79.5 83 c 128,-1,53
 76 80 76 80 77 79 c 0,54,55
 78 79 78 79 79 79 c 128,-1,56
 80 79 80 79 81 79 c 0,57,58
 85 79 85 79 88.5 79 c 128,-1,59
 92 79 92 79 96 80 c 1,60,-1
 95 80 l 1,61,62
 104 81 104 81 122 83 c 128,-1,63
 140 85 140 85 166 88 c 1,64,65
 166 87 166 87 168 81 c 1,66,67
 141 78 141 78 117 74 c 128,-1,68
 93 70 93 70 70 65 c 1,69,-1
 76 66 l 1,70,71
 71 64 71 64 64.5 62.5 c 128,-1,72
 58 61 58 61 52 60 c 2,73,-1
 51 60 l 2,74,75
 50 60 50 60 48.5 61.5 c 128,-1,76
 47 63 47 63 46 66 c 256,77,78
 45 69 45 69 44.5 70.5 c 128,-1,79
 44 72 44 72 45 74 c 0,80,81
 46 75 46 75 48 76 c 128,-1,82
 50 77 50 77 54 78 c 0,83,84
 62 82 62 82 69.5 86 c 128,-1,85
 77 90 77 90 83 96 c 1,86,-1
 83 95 l 1,87,88
 94 103 94 103 104 111.5 c 128,-1,89
 114 120 114 120 123 129 c 1,90,-1
 122 129 l 1,91,-1
 123 129 l 1,32,33
68 113 m 1,92,93
 67 112 67 112 65.5 111.5 c 128,-1,94
 64 111 64 111 62 111 c 0,95,96
 59 111 59 111 57 117 c 0,97,98
 56 121 56 121 55.5 123 c 128,-1,99
 55 125 55 125 55 126 c 128,-1,100
 55 127 55 127 57 127.5 c 128,-1,101
 59 128 59 128 62 129 c 0,102,103
 67 131 67 131 71 134 c 128,-1,104
 75 137 75 137 78 141 c 0,105,106
 84 146 84 146 88.5 151.5 c 128,-1,107
 93 157 93 157 98 163 c 1,108,-1
 98 164 l 1,109,110
 103 170 103 170 104.5 173.5 c 128,-1,111
 106 177 106 177 105 178 c 0,112,113
 104 180 104 180 104.5 181 c 128,-1,114
 105 182 105 182 106 182 c 0,115,116
 108 182 108 182 110 181 c 128,-1,117
 112 180 112 180 115 178 c 0,118,119
 117 176 117 176 118.5 174 c 128,-1,120
 120 172 120 172 120 170 c 128,-1,121
 120 168 120 168 119 166 c 128,-1,122
 118 164 118 164 116 163 c 0,123,124
 114 161 114 161 108 155.5 c 128,-1,125
 102 150 102 150 93 143 c 0,126,127
 84 135 84 135 80.5 131 c 128,-1,128
 77 127 77 127 77 126 c 1,129,130
 81 126 81 126 85 126 c 128,-1,131
 89 126 89 126 93 126 c 0,132,133
 102 126 102 126 111 126.5 c 128,-1,134
 120 127 120 127 128 127 c 1,135,-1
 127 127 l 1,136,-1
 127 122 l 1,137,138
 111 121 111 121 95.5 118.5 c 128,-1,139
 80 116 80 116 65 112 c 1,140,-1
 68 113 l 1,92,93
117 -1 m 1,141,142
 116 -4 116 -4 115 -7 c 128,-1,143
 114 -10 114 -10 113 -13 c 1,144,-1
 113 -12 l 1,145,146
 111 -15 111 -15 109.5 -16.5 c 128,-1,147
 108 -18 108 -18 106 -18 c 0,148,149
 105 -18 105 -18 103.5 -16 c 128,-1,150
 102 -14 102 -14 101 -11 c 128,-1,151
 100 -8 100 -8 97 -4 c 128,-1,152
 94 0 94 0 88 3 c 128,-1,153
 82 6 82 6 79 8.5 c 128,-1,154
 76 11 76 11 77 11 c 0,155,156
 78 12 78 12 81 12 c 0,157,158
 84 11 84 11 90 11 c 0,159,160
 96 10 96 10 99 10 c 0,161,162
 103 9 103 9 104 11 c 0,163,164
 105 15 105 15 106 19.5 c 128,-1,165
 107 24 107 24 107 29 c 0,166,167
 107 30 107 30 107 31.5 c 128,-1,168
 107 33 107 33 107 34 c 0,169,170
 107 55 107 55 107 61 c 0,171,172
 107 65 107 65 106.5 69 c 128,-1,173
 106 73 106 73 105 78 c 1,174,175
 105 78 105 78 105.5 78 c 128,-1,176
 106 78 106 78 107 78 c 0,177,178
 110 78 110 78 113 77.5 c 128,-1,179
 116 77 116 77 118 75 c 0,180,181
 119 74 119 74 120.5 73 c 128,-1,182
 122 72 122 72 122 71 c 2,183,-1
 122 70 l 1,184,185
 122 70 122 70 122 70 c 1,186,187
 122 69 122 69 122 67 c 128,-1,188
 122 65 122 65 121 64 c 0,189,190
 120 57 120 57 119.5 49 c 128,-1,191
 119 41 119 41 119 33 c 2,192,193
 119 33 119 33 119 32.5 c 128,-1,194
 119 32 119 32 119 31 c 1,195,-1
 119 32 l 1,196,197
 119 31 119 31 119 30.5 c 128,-1,198
 119 30 119 30 119 29 c 0,199,200
 119 21 119 21 118.5 13 c 128,-1,201
 118 5 118 5 117 -3 c 1,202,-1
 117 -2 l 1,203,-1
 117 -1 l 1,141,142
161 31 m 0,204,205
 155 35 155 35 150.5 40 c 128,-1,206
 146 45 146 45 142 50 c 1,207,-1
 142 51 l 1,208,209
 142 51 142 51 144 51 c 128,-1,210
 146 51 146 51 149 51 c 0,211,212
 153 50 153 50 157 48.5 c 128,-1,213
 161 47 161 47 164 46 c 1,214,-1
 163 46 l 1,215,216
 168 44 168 44 172 41.5 c 128,-1,217
 176 39 176 39 179 37 c 128,-1,218
 182 35 182 35 184.5 32 c 128,-1,219
 187 29 187 29 188 25 c 0,220,221
 189 22 189 22 188.5 19.5 c 128,-1,222
 188 17 188 17 186 16 c 0,223,224
 185 15 185 15 184.5 14.5 c 128,-1,225
 184 14 184 14 183 14 c 2,226,-1
 182 14 l 1,227,228
 176 18 176 18 171 22.5 c 128,-1,229
 166 27 166 27 161 31 c 0,204,205
156 86 m 2,230,231
 153 89 153 89 150.5 93 c 128,-1,232
 148 97 148 97 146 100 c 2,233,-1
 146 101 l 2,234,235
 146 103 146 103 153 101 c 0,236,237
 158 99 158 99 162.5 96.5 c 128,-1,238
 167 94 167 94 170 91 c 0,239,240
 175 87 175 87 177.5 83 c 128,-1,241
 180 79 180 79 180 76 c 0,242,243
 180 72 180 72 179 70 c 128,-1,244
 178 68 178 68 178 68 c 2,245,246
 177 67 177 67 175.5 67.5 c 128,-1,247
 174 68 174 68 171 70 c 0,248,249
 166 74 166 74 162.5 77.5 c 128,-1,250
 159 81 159 81 156 85 c 2,251,-1
 156 86 l 2,230,231
EndSplineSet
Validated: 5
EndChar

StartChar: uniE901
Encoding: 59649 59649 3
Width: 164
GlyphClass: 1
Flags: W
LayerCount: 2
Fore
SplineSet
50 30 m 0,0,1
 52 35 52 35 53 36 c 128,-1,2
 54 37 54 37 56 36 c 0,3,4
 56 34 56 34 57 31 c 128,-1,5
 58 28 58 28 58 25 c 0,6,7
 58 24 58 24 58 22.5 c 128,-1,8
 58 21 58 21 58 19 c 256,9,10
 58 17 58 17 58 16 c 128,-1,11
 58 15 58 15 58 13 c 0,12,13
 56 9 56 9 55 5.5 c 128,-1,14
 54 2 54 2 52 -1 c 1,15,-1
 54 -1 l 1,16,17
 52 -6 52 -6 50 -8 c 128,-1,18
 48 -10 48 -10 46 -11 c 0,19,20
 44 -11 44 -11 42 -9.5 c 128,-1,21
 40 -8 40 -8 40 -5 c 0,22,23
 38 -4 38 -4 38 -2.5 c 128,-1,24
 38 -1 38 -1 38 0 c 0,25,26
 38 2 38 2 39 3.5 c 128,-1,27
 40 5 40 5 40 7 c 1,28,-1
 40 6 l 1,29,30
 42 8 42 8 43 11 c 128,-1,31
 44 14 44 14 46 16 c 0,32,33
 46 19 46 19 48 22.5 c 128,-1,34
 50 26 50 26 50 30 c 0,0,1
54 99 m 1,35,36
 52 97 52 97 50 98 c 128,-1,37
 48 99 48 99 46 103 c 0,38,39
 46 104 46 104 46 104.5 c 128,-1,40
 46 105 46 105 46 106 c 0,41,42
 46 109 46 109 47 111.5 c 128,-1,43
 48 114 48 114 50 115 c 0,44,45
 54 119 54 119 58 124 c 128,-1,46
 62 129 62 129 64 134 c 2,47,-1
 64 135 l 1,48,49
 68 140 68 140 71 145.5 c 128,-1,50
 74 151 74 151 78 157 c 1,51,-1
 78 158 l 2,52,53
 78 161 78 161 79 164.5 c 128,-1,54
 80 168 80 168 82 172 c 2,55,-1
 82 173 l 2,56,57
 82 176 82 176 83 176 c 128,-1,58
 84 176 84 176 88 173 c 0,59,60
 90 171 90 171 92 169.5 c 128,-1,61
 94 168 94 168 96 165 c 2,62,-1
 96 164 l 2,63,64
 96 163 96 163 96 163 c 2,65,66
 96 162 96 162 95 161 c 128,-1,67
 94 160 94 160 94 159 c 0,68,69
 90 155 90 155 86 150.5 c 128,-1,70
 82 146 82 146 78 141 c 1,71,-1
 78 140 l 1,72,73
 72 132 72 132 68 126.5 c 128,-1,74
 64 121 64 121 62 118 c 256,75,76
 60 115 60 115 61 113.5 c 128,-1,77
 62 112 62 112 67 112 c 128,-1,78
 72 112 72 112 79 113 c 128,-1,79
 86 114 86 114 96 116 c 0,80,81
 98 120 98 120 101 124 c 128,-1,82
 104 128 104 128 106 132 c 2,83,-1
 106 133 l 2,84,85
 106 135 106 135 107 138 c 128,-1,86
 108 141 108 141 108 144 c 0,87,88
 108 146 108 146 109 147 c 128,-1,89
 110 148 110 148 112 148 c 2,90,91
 112 148 112 148 115 146.5 c 128,-1,92
 118 145 118 145 120 141 c 0,93,94
 124 137 124 137 124 134 c 128,-1,95
 124 131 124 131 122 130 c 0,96,97
 116 125 116 125 111 120 c 128,-1,98
 106 115 106 115 102 109 c 0,99,100
 94 100 94 100 87 92.5 c 128,-1,101
 80 85 80 85 74 79 c 0,102,103
 68 72 68 72 66 69.5 c 128,-1,104
 64 67 64 67 67 67 c 128,-1,105
 70 67 70 67 80 69.5 c 128,-1,106
 90 72 90 72 106 76 c 1,107,108
 104 80 104 80 103 83.5 c 128,-1,109
 102 87 102 87 100 91 c 2,110,-1
 100 92 l 2,111,112
 100 95 100 95 102 95 c 128,-1,113
 104 95 104 95 106 92 c 0,114,115
 110 90 110 90 113 87.5 c 128,-1,116
 116 85 116 85 118 83 c 256,117,118
 120 81 120 81 122 77.5 c 128,-1,119
 124 74 124 74 124 71 c 0,120,121
 126 70 126 70 126 68 c 128,-1,122
 126 66 126 66 126 65 c 0,123,124
 126 63 126 63 126 62 c 128,-1,125
 126 61 126 61 125 59 c 128,-1,126
 124 57 124 57 122 56.5 c 128,-1,127
 120 56 120 56 118 57 c 0,128,129
 114 60 114 60 112 63.5 c 128,-1,130
 110 67 110 67 108 71 c 1,131,132
 102 69 102 69 95 66.5 c 128,-1,133
 88 64 88 64 80 61 c 0,134,135
 74 59 74 59 68 56 c 128,-1,136
 62 53 62 53 58 50 c 0,137,138
 54 48 54 48 52 49.5 c 128,-1,139
 50 51 50 51 49 56 c 128,-1,140
 48 61 48 61 49 64 c 128,-1,141
 50 67 50 67 52 68 c 0,142,143
 58 71 58 71 61 74 c 0,144,145
 64 78 64 78 68 82 c 1,146,-1
 68 82 l 1,147,148
 74 88 74 88 79 94.5 c 128,-1,149
 84 101 84 101 90 108 c 1,150,-1
 90 109 l 1,151,152
 80 107 80 107 71 104.5 c 128,-1,153
 62 102 62 102 54 98 c 1,154,-1
 54 99 l 1,35,36
78 39 m 256,155,156
 82 37 82 37 85 35 c 128,-1,157
 88 33 88 33 90 30 c 0,158,159
 92 28 92 28 93 25.5 c 128,-1,160
 94 23 94 23 96 20 c 0,161,162
 96 19 96 19 96 18 c 128,-1,163
 96 17 96 17 96 16 c 0,164,165
 96 14 96 14 95 11.5 c 128,-1,166
 94 9 94 9 94 8 c 0,167,168
 90 2 90 2 88 8 c 0,169,170
 86 11 86 11 84 14.5 c 128,-1,171
 82 18 82 18 80 21 c 2,172,-1
 80 22 l 2,173,174
 78 26 78 26 77 29.5 c 128,-1,175
 76 33 76 33 74 36 c 0,176,177
 72 40 72 40 73 40.5 c 128,-1,178
 74 41 74 41 78 39 c 256,155,156
110 50 m 0,179,180
 114 48 114 48 118 44.5 c 128,-1,181
 122 41 122 41 124 37 c 2,182,-1
 124 36 l 2,183,184
 124 34 124 34 125 32 c 128,-1,185
 126 30 126 30 126 28 c 0,186,187
 126 27 126 27 125 25.5 c 128,-1,188
 124 24 124 24 124 22 c 0,189,190
 124 18 124 18 122 17.5 c 128,-1,191
 120 17 120 17 118 19 c 128,-1,192
 116 21 116 21 114 24 c 128,-1,193
 112 27 112 27 112 30 c 1,194,-1
 110 30 l 1,195,196
 110 33 110 33 108 37 c 128,-1,197
 106 41 106 41 104 47 c 0,198,199
 102 52 102 52 104 53 c 128,-1,200
 106 54 106 54 110 50 c 0,179,180
EndSplineSet
Validated: 1
EndChar

StartChar: uniE902
Encoding: 59650 59650 4
Width: 256
GlyphClass: 1
Flags: W
LayerCount: 2
Fore
SplineSet
44 114 m 0,0,1
 42 115 42 115 41 116.5 c 128,-1,2
 40 118 40 118 40 119 c 256,3,4
 40 120 40 120 42 120.5 c 128,-1,5
 44 121 44 121 48 121 c 0,6,7
 52 120 52 120 55 119 c 128,-1,8
 58 118 58 118 60 117 c 128,-1,9
 62 116 62 116 63 114 c 128,-1,10
 64 112 64 112 64 111 c 2,11,-1
 64 110 l 1,12,13
 64 110 64 110 65 109.5 c 128,-1,14
 66 109 66 109 66 109 c 2,15,16
 66 107 66 107 65 105 c 128,-1,17
 64 103 64 103 62 102 c 0,18,19
 60 96 60 96 59 88.5 c 128,-1,20
 58 81 58 81 58 74 c 2,21,-1
 58 73 l 2,22,23
 58 68 58 68 57 63.5 c 128,-1,24
 56 59 56 59 56 54 c 0,25,26
 56 52 56 52 56 50.5 c 128,-1,27
 56 49 56 49 56 48 c 0,28,29
 58 47 58 47 58 47 c 129,-1,30
 58 47 58 47 60 47 c 1,31,32
 60 47 60 47 60 47 c 129,-1,33
 60 47 60 47 60 47 c 1,34,35
 62 47 62 47 67 47.5 c 128,-1,36
 72 48 72 48 82 50 c 0,37,38
 86 51 86 51 96 51 c 0,39,40
 106 52 106 52 121 53.5 c 128,-1,41
 136 55 136 55 156 57 c 256,42,43
 176 59 176 59 202 62 c 1,44,-1
 202 53 l 1,45,46
 192 53 192 53 183 52 c 128,-1,47
 174 51 174 51 164 50 c 1,48,-1
 166 50 l 1,49,-1
 108 42 l 2,50,51
 94 41 94 41 82 38.5 c 128,-1,52
 70 36 70 36 58 32 c 1,53,-1
 60 33 l 1,54,55
 58 32 58 32 55 30.5 c 128,-1,56
 52 29 52 29 48 28 c 2,57,58
 48 28 48 28 46 29 c 128,-1,59
 44 30 44 30 42 33 c 0,60,61
 40 35 40 35 39 37 c 128,-1,62
 38 39 38 39 38 41 c 128,-1,63
 38 43 38 43 39 44 c 128,-1,64
 40 45 40 45 40 46 c 0,65,66
 42 48 42 48 43 50.5 c 128,-1,67
 44 53 44 53 44 56 c 0,68,69
 44 60 44 60 45 67.5 c 128,-1,70
 46 75 46 75 46 88 c 0,71,72
 46 100 46 100 45 106.5 c 128,-1,73
 44 113 44 113 44 114 c 0,0,1
200 128 m 1,74,-1
 200 128 l 1,75,76
 200 129 200 129 200 129 c 2,77,78
 200 132 200 132 199 134.5 c 128,-1,79
 198 137 198 137 196 139 c 0,80,81
 194 140 194 140 194 141 c 128,-1,82
 194 142 194 142 194 143 c 2,83,84
 194 143 194 143 194 143.5 c 128,-1,85
 194 144 194 144 194 144 c 2,86,87
 194 145 194 145 195 145 c 128,-1,88
 196 145 196 145 200 144 c 256,89,90
 204 143 204 143 207 142 c 128,-1,91
 210 141 210 141 212 139 c 1,92,-1
 212 139 l 1,93,94
 218 135 218 135 218 132 c 0,95,96
 218 131 218 131 217 126.5 c 128,-1,97
 216 122 216 122 215 114 c 128,-1,98
 214 106 214 106 213 97.5 c 128,-1,99
 212 89 212 89 212 80 c 256,100,101
 212 71 212 71 211 63 c 128,-1,102
 210 55 210 55 208 48 c 0,103,104
 208 42 208 42 206 36.5 c 128,-1,105
 204 31 204 31 202 26 c 1,106,-1
 202 27 l 1,107,108
 200 20 200 20 198 20 c 256,109,110
 196 20 196 20 195 22 c 128,-1,111
 194 24 194 24 194 28 c 0,112,113
 192 30 192 30 192 32.5 c 128,-1,114
 192 35 192 35 192 37 c 0,115,116
 192 38 192 38 192 38.5 c 128,-1,117
 192 39 192 39 192 40 c 0,118,119
 192 42 192 42 193 49 c 128,-1,120
 194 56 194 56 196 68 c 0,121,122
 196 80 196 80 197 89.5 c 128,-1,123
 198 99 198 99 200 106 c 0,124,125
 200 108 200 108 200 111 c 128,-1,126
 200 114 200 114 200 117 c 128,-1,127
 200 120 200 120 200 123 c 128,-1,128
 200 126 200 126 200 129 c 1,129,-1
 200 128 l 1,74,-1
EndSplineSet
Validated: 5
EndChar

StartChar: uniE903
Encoding: 59651 59651 5
Width: 245
GlyphClass: 1
Flags: W
LayerCount: 2
Fore
SplineSet
186 155 m 0,0,1
 192 155 192 155 198 151.5 c 128,-1,2
 204 148 204 148 206 142 c 0,3,4
 206 140 206 140 206 139 c 128,-1,5
 206 138 206 138 204 137 c 1,6,-1
 206 137 l 1,7,8
 202 131 202 131 201 124 c 128,-1,9
 200 117 200 117 198 109 c 0,10,11
 196 83 196 83 192 60 c 256,12,13
 188 37 188 37 182 15 c 1,14,-1
 184 21 l 1,15,16
 182 15 182 15 179 12 c 128,-1,17
 176 9 176 9 174 10 c 256,18,19
 172 11 172 11 171 15.5 c 128,-1,20
 170 20 170 20 166 28 c 0,21,22
 164 29 164 29 162 29.5 c 128,-1,23
 160 30 160 30 158 30 c 2,24,25
 158 30 158 30 156 30 c 1,26,27
 156 29 156 29 154 29 c 0,28,29
 132 28 132 28 68 22 c 1,30,31
 66 17 66 17 65 15 c 128,-1,32
 64 13 64 13 62 14 c 0,33,34
 60 17 60 17 58 20 c 128,-1,35
 56 23 56 23 56 27 c 0,36,37
 56 29 56 29 56 32 c 128,-1,38
 56 35 56 35 56 38 c 0,39,40
 56 39 56 39 56 40 c 128,-1,41
 56 41 56 41 56 41 c 2,42,43
 54 59 54 59 53 75.5 c 128,-1,44
 52 92 52 92 48 108 c 1,45,-1
 48 105 l 1,46,47
 48 113 48 113 46 120 c 128,-1,48
 44 127 44 127 40 134 c 0,49,50
 38 135 38 135 38 136.5 c 128,-1,51
 38 138 38 138 38 140 c 0,52,53
 38 141 38 141 42 141 c 2,54,55
 42 141 42 141 48 139 c 0,56,57
 50 139 50 139 52 138.5 c 128,-1,58
 54 138 54 138 56 137 c 0,59,60
 62 139 62 139 66 140.5 c 128,-1,61
 70 142 70 142 74 144 c 1,62,-1
 72 143 l 1,63,64
 72 143 72 143 73 143 c 128,-1,65
 74 143 74 143 74 143 c 2,66,67
 78 143 78 143 81 141.5 c 128,-1,68
 84 140 84 140 86 137 c 0,69,70
 86 136 86 136 86 135 c 128,-1,71
 86 134 86 134 86 134 c 2,72,73
 84 127 84 127 84 119 c 128,-1,74
 84 111 84 111 84 102 c 0,75,76
 84 92 84 92 85 82 c 128,-1,77
 86 72 86 72 86 62 c 1,78,-1
 86 64 l 1,79,80
 90 65 90 65 98 65.5 c 128,-1,81
 106 66 106 66 122 68 c 0,82,83
 136 69 136 69 145 70 c 128,-1,84
 154 71 154 71 158 71 c 0,85,86
 160 83 160 83 161 96.5 c 128,-1,87
 162 110 162 110 162 124 c 2,88,-1
 162 125 l 1,89,90
 162 125 162 125 162 125.5 c 128,-1,91
 162 126 162 126 162 127 c 0,92,93
 162 132 162 132 162 137.5 c 128,-1,94
 162 143 162 143 160 148 c 1,95,-1
 160 147 l 1,96,97
 160 148 160 148 160 149.5 c 128,-1,98
 160 151 160 151 160 153 c 256,99,100
 160 155 160 155 163 153.5 c 128,-1,101
 166 152 166 152 170 148 c 0,102,103
 172 149 172 149 175 149.5 c 128,-1,104
 178 150 178 150 180 152 c 0,105,106
 180 153 180 153 182 153.5 c 128,-1,107
 184 154 184 154 186 155 c 0,0,1
188 142 m 1,108,-1
 188 142 l 1,109,110
 186 142 186 142 186 143 c 256,111,112
 186 144 186 144 182 143.5 c 128,-1,113
 178 143 178 143 172 141 c 1,114,-1
 166 70 l 2,115,116
 166 67 166 67 164 65 c 128,-1,117
 162 63 162 63 156 63 c 2,118,-1
 114 59 l 2,119,120
 104 58 104 58 97 57 c 128,-1,121
 90 56 90 56 86 56 c 0,122,123
 84 55 84 55 83 54.5 c 128,-1,124
 82 54 82 54 82 54 c 2,125,126
 80 54 80 54 80 55 c 128,-1,127
 80 56 80 56 78 58 c 0,128,129
 76 104 76 104 74 133 c 0,130,131
 72 134 72 134 68 133.5 c 128,-1,132
 64 133 64 133 58 131 c 1,133,-1
 66 31 l 1,134,-1
 152 39 l 2,135,136
 160 40 160 40 165 38.5 c 128,-1,137
 170 37 170 37 172 34 c 1,138,139
 176 43 176 43 180 53.5 c 128,-1,140
 184 64 184 64 184 76 c 0,141,142
 190 108 190 108 190 124.5 c 128,-1,143
 190 141 190 141 188 142 c 1,108,-1
EndSplineSet
Validated: 37
EndChar

StartChar: uniE904
Encoding: 59652 59652 6
Width: 252
GlyphClass: 1
Flags: W
LayerCount: 2
Fore
SplineSet
192 157 m 0,0,1
 198 156 198 156 204 152.5 c 128,-1,2
 210 149 210 149 214 144 c 1,3,-1
 214 143 l 2,4,5
 214 142 214 142 213 141 c 128,-1,6
 212 140 212 140 212 139 c 0,7,8
 210 132 210 132 208 124.5 c 128,-1,9
 206 117 206 117 204 109 c 2,10,-1
 204 108 l 2,11,12
 204 104 204 104 203 99 c 0,13,14
 202 93 202 93 202 87 c 0,15,16
 200 67 200 67 197 48.5 c 128,-1,17
 194 30 194 30 190 13 c 1,18,-1
 192 16 l 1,19,20
 190 11 190 11 187 9 c 128,-1,21
 184 7 184 7 181 8 c 128,-1,22
 178 9 178 9 177 13 c 128,-1,23
 176 17 176 17 174 24 c 0,24,25
 170 25 170 25 168 25.5 c 128,-1,26
 166 26 166 26 162 26 c 1,27,28
 162 26 162 26 162 26 c 129,-1,29
 162 26 162 26 160 26 c 0,30,31
 136 25 136 25 68 19 c 1,32,33
 68 14 68 14 67 12 c 0,34,35
 66 9 66 9 64 10 c 0,36,37
 62 13 62 13 60 16.5 c 128,-1,38
 58 20 58 20 58 24 c 0,39,40
 58 27 58 27 57 29.5 c 128,-1,41
 56 32 56 32 56 35 c 0,42,43
 56 36 56 36 56 36.5 c 128,-1,44
 56 37 56 37 56 38 c 1,45,-1
 56 37 l 1,46,47
 56 55 56 55 54 72.5 c 128,-1,48
 52 90 52 90 50 107 c 1,49,-1
 50 104 l 1,50,51
 50 113 50 113 47 120.5 c 128,-1,52
 44 128 44 128 40 135 c 1,53,-1
 40 134 l 1,54,55
 40 135 40 135 39 137 c 128,-1,56
 38 139 38 139 38 141 c 128,-1,57
 38 143 38 143 42 142 c 128,-1,58
 46 141 46 141 54 137 c 0,59,60
 60 138 60 138 65 140 c 128,-1,61
 70 142 70 142 74 145 c 2,62,-1
 76 145 l 2,63,64
 80 145 80 145 83 143 c 128,-1,65
 86 141 86 141 88 137 c 2,66,-1
 88 133 l 2,67,68
 88 125 88 125 87 115 c 128,-1,69
 86 105 86 105 86 96 c 0,70,71
 86 86 86 86 87 76.5 c 128,-1,72
 88 67 88 67 88 57 c 1,73,-1
 88 58 l 1,74,75
 144 63 144 63 162 65 c 1,76,77
 164 82 164 82 165 97 c 128,-1,78
 166 112 166 112 168 124 c 0,79,80
 168 125 168 125 168 125.5 c 128,-1,81
 168 126 168 126 168 127 c 0,82,83
 168 132 168 132 167 137 c 128,-1,84
 166 142 166 142 166 147 c 0,85,86
 166 148 166 148 165 149.5 c 128,-1,87
 164 151 164 151 164 153 c 0,88,89
 166 155 166 155 169 154 c 128,-1,90
 172 153 172 153 176 148 c 0,91,92
 178 149 178 149 181 150 c 128,-1,93
 184 151 184 151 186 153 c 0,94,95
 188 154 188 154 189 155 c 128,-1,96
 190 156 190 156 192 157 c 0,0,1
76 133 m 1,97,98
 74 133 74 133 73 133.5 c 128,-1,99
 72 134 72 134 72 134 c 2,100,101
 68 134 68 134 64 133 c 128,-1,102
 60 132 60 132 56 131 c 1,103,-1
 60 92 l 1,104,-1
 78 94 l 2,105,106
 78 97 78 97 78 101 c 128,-1,107
 78 105 78 105 78 110 c 0,108,109
 76 127 76 127 76 134 c 1,110,-1
 76 133 l 1,97,98
82 54 m 2,111,112
 82 58 82 58 81 66 c 128,-1,113
 80 74 80 74 80 86 c 1,114,-1
 62 84 l 1,115,-1
 66 29 l 1,116,-1
 82 54 l 2,111,112
74 26 m 1,117,118
 82 27 82 27 98 28 c 0,119,120
 102 29 102 29 108 29.5 c 128,-1,121
 114 30 114 30 120 30 c 1,122,-1
 120 54 l 1,123,-1
 96 51 l 1,124,125
 96 51 96 51 94 50.5 c 128,-1,126
 92 50 92 50 90 50 c 2,127,-1
 74 26 l 1,117,118
160 34 m 2,128,129
 160 34 160 34 162 34.5 c 128,-1,130
 164 35 164 35 166 35 c 256,131,132
 168 35 168 35 169 34.5 c 128,-1,133
 170 34 170 34 172 34 c 1,134,-1
 172 34 l 1,135,-1
 160 57 l 1,136,137
 152 57 152 57 144 56 c 0,138,139
 134 56 134 56 126 55 c 1,140,-1
 128 55 l 1,141,-1
 128 31 l 1,142,143
 136 32 136 32 144 33 c 128,-1,144
 152 34 152 34 160 34 c 2,128,129
192 73 m 1,145,-1
 192 77 l 2,146,147
 192 81 192 81 192 85 c 128,-1,148
 192 89 192 89 192 93 c 2,149,150
 192 93 192 93 192 93.5 c 128,-1,151
 192 94 192 94 192 94 c 1,152,-1
 172 93 l 1,153,-1
 170 60 l 1,154,-1
 182 32 l 1,155,156
 186 41 186 41 188 52 c 0,157,158
 190 61 190 61 192 73 c 2,159,-1
 192 74 l 1,160,-1
 192 73 l 1,145,-1
196 142 m 1,161,162
 194 144 194 144 189 144.5 c 128,-1,163
 184 145 184 145 178 142 c 1,164,-1
 174 99 l 1,165,-1
 194 101 l 1,166,167
 196 122 196 122 197 132 c 128,-1,168
 198 142 198 142 196 143 c 1,169,-1
 196 142 l 1,161,162
EndSplineSet
Validated: 37
EndChar

StartChar: uniE905
Encoding: 59653 59653 7
Width: 215
GlyphClass: 1
Flags: W
LayerCount: 2
Fore
SplineSet
96 173 m 0,0,1
 93 179 93 179 93 181 c 128,-1,2
 93 183 93 183 97 183 c 0,3,4
 101 182 101 182 104.5 180.5 c 128,-1,5
 108 179 108 179 111 177 c 0,6,7
 115 175 115 175 116 172.5 c 128,-1,8
 117 170 117 170 116 167 c 0,9,10
 115 162 115 162 113.5 157 c 128,-1,11
 112 152 112 152 112 146 c 0,12,13
 112 138 112 138 112 123.5 c 128,-1,14
 112 109 112 109 112 87 c 1,15,16
 122 87 122 87 131 88 c 128,-1,17
 140 89 140 89 149 90 c 1,18,19
 151 96 151 96 153 103 c 128,-1,20
 155 110 155 110 155 118 c 2,21,-1
 155 119 l 2,22,23
 155 120 155 120 155.5 122 c 128,-1,24
 156 124 156 124 156 125 c 0,25,26
 156 130 156 130 155 134.5 c 128,-1,27
 154 139 154 139 153 143 c 0,28,29
 151 147 151 147 153.5 147 c 128,-1,30
 156 147 156 147 164 144 c 0,31,32
 172 140 172 140 175 136.5 c 128,-1,33
 178 133 178 133 176 130 c 0,34,35
 174 126 174 126 172 122 c 0,36,37
 171 117 171 117 170 113 c 0,38,39
 169 107 169 107 167.5 101.5 c 128,-1,40
 166 96 166 96 164 90 c 0,41,42
 163 85 163 85 161 80 c 128,-1,43
 159 75 159 75 155 71 c 1,44,-1
 156 71 l 1,45,46
 153 68 153 68 151.5 70.5 c 128,-1,47
 150 73 150 73 149 81 c 1,48,49
 139 81 139 81 129 80.5 c 128,-1,50
 119 80 119 80 110 78 c 1,51,52
 110 79 110 79 112 79 c 1,53,-1
 112 20 l 2,54,55
 112 19 112 19 112 17 c 128,-1,56
 112 15 112 15 112 14 c 0,57,58
 112 7 112 7 111 0 c 128,-1,59
 110 -7 110 -7 109 -14 c 1,60,-1
 109 -13 l 1,61,62
 108 -17 108 -17 106.5 -18 c 128,-1,63
 105 -19 105 -19 103 -18 c 0,64,65
 101 -16 101 -16 99.5 -13 c 128,-1,66
 98 -10 98 -10 97 -6 c 0,67,68
 96 -4 96 -4 95.5 -1.5 c 128,-1,69
 95 1 95 1 95 4 c 0,70,71
 95 6 95 6 95 8 c 128,-1,72
 95 10 95 10 96 11 c 0,73,74
 97 16 97 16 98 21 c 128,-1,75
 99 26 99 26 99 32 c 0,76,77
 100 45 100 45 101 76 c 1,78,79
 92 75 92 75 84 74 c 128,-1,80
 76 73 76 73 69 71 c 1,81,-1
 70 71 l 1,82,83
 65 70 65 70 60.5 68 c 128,-1,84
 56 66 56 66 53 63 c 0,85,86
 51 61 51 61 49 61.5 c 128,-1,87
 47 62 47 62 45 67 c 0,88,89
 44 68 44 68 43.5 70 c 128,-1,90
 43 72 43 72 43 74 c 128,-1,91
 43 76 43 76 43.5 78.5 c 128,-1,92
 44 81 44 81 46 82 c 0,93,94
 48 85 48 85 49 89 c 128,-1,95
 50 93 50 93 50 96 c 0,96,97
 50 97 50 97 49.5 99 c 128,-1,98
 49 101 49 101 49 102 c 0,99,100
 48 108 48 108 46 113 c 128,-1,101
 44 118 44 118 40 123 c 1,102,-1
 41 123 l 1,103,104
 37 128 37 128 39 129 c 128,-1,105
 41 130 41 130 48 129 c 128,-1,106
 55 128 55 128 58 125.5 c 128,-1,107
 61 123 61 123 61 121 c 0,108,109
 60 117 60 117 60 112.5 c 128,-1,110
 60 108 60 108 60 103 c 0,111,112
 60 97 60 97 60 92 c 256,113,114
 60 87 60 87 60 85 c 0,115,116
 60 82 60 82 62 81.5 c 128,-1,117
 64 81 64 81 69 81 c 2,118,-1
 101 85 l 1,119,120
 101 161 101 161 96 173 c 0,0,1
EndSplineSet
Validated: 37
EndChar

StartChar: uniE906
Encoding: 59654 59654 8
Width: 171
GlyphClass: 1
Flags: W
LayerCount: 2
Fore
SplineSet
67 78 m 1,0,1
 62 76 62 76 57.5 73.5 c 128,-1,2
 53 71 53 71 49 68 c 0,3,4
 46 66 46 66 44 67 c 128,-1,5
 42 68 42 68 40 72 c 0,6,7
 39 73 39 73 38.5 75 c 128,-1,8
 38 77 38 77 38 78 c 0,9,10
 38 80 38 80 39 82.5 c 128,-1,11
 40 85 40 85 42 87 c 0,12,13
 45 91 45 91 46 96 c 128,-1,14
 47 101 47 101 47 107 c 0,15,16
 47 109 47 109 47 111 c 128,-1,17
 47 113 47 113 46 114 c 2,18,-1
 46 115 l 2,19,20
 46 116 46 116 46 117 c 0,21,22
 46 124 46 124 44.5 131 c 128,-1,23
 43 138 43 138 40 145 c 1,24,-1
 40 144 l 1,25,26
 35 152 35 152 43 151 c 0,27,28
 48 151 48 151 52 149.5 c 128,-1,29
 56 148 56 148 60 146 c 128,-1,30
 64 144 64 144 65 141.5 c 128,-1,31
 66 139 66 139 64 136 c 0,32,33
 62 134 62 134 60.5 122.5 c 128,-1,34
 59 111 59 111 58 91 c 1,35,-1
 113 98 l 1,36,37
 114 132 114 132 112 151 c 128,-1,38
 110 170 110 170 107 176 c 0,39,40
 104 181 104 181 104.5 183.5 c 128,-1,41
 105 186 105 186 109 185 c 0,42,43
 114 184 114 184 118.5 182.5 c 128,-1,44
 123 181 123 181 127 178 c 1,45,-1
 127 179 l 1,46,47
 131 177 131 177 132 174.5 c 128,-1,48
 133 172 133 172 131 169 c 0,49,50
 130 167 130 167 129 151.5 c 128,-1,51
 128 136 128 136 127 108 c 128,-1,52
 126 80 126 80 126 58 c 128,-1,53
 126 36 126 36 126 20 c 0,54,55
 126 19 126 19 126 17 c 128,-1,56
 126 15 126 15 126 13 c 0,57,58
 126 4 126 4 124.5 -4 c 128,-1,59
 123 -12 123 -12 120 -20 c 0,60,61
 118 -23 118 -23 116.5 -18 c 128,-1,62
 115 -13 115 -13 114 1 c 256,63,64
 113 15 113 15 113 37 c 128,-1,65
 113 59 113 59 113 89 c 1,66,67
 100 88 100 88 88.5 85 c 128,-1,68
 77 82 77 82 65 78 c 1,69,-1
 67 78 l 1,0,1
EndSplineSet
Validated: 33
EndChar

StartChar: uniE907
Encoding: 59655 59655 9
Width: 239
GlyphClass: 1
Flags: W
LayerCount: 2
Fore
SplineSet
63 74 m 1,0,1
 60 72 60 72 57.5 69.5 c 128,-1,2
 55 67 55 67 52 64 c 0,3,4
 50 62 50 62 48 62.5 c 128,-1,5
 46 63 46 63 44 67 c 0,6,7
 43 68 43 68 42 70 c 128,-1,8
 41 72 41 72 41 73 c 0,9,10
 41 75 41 75 42 77 c 128,-1,11
 43 79 43 79 44 80 c 0,12,13
 46 85 46 85 47 90 c 128,-1,14
 48 95 48 95 48 101 c 0,15,16
 48 102 48 102 48 103.5 c 128,-1,17
 48 105 48 105 48 107 c 0,18,19
 48 108 48 108 48 109 c 128,-1,20
 48 110 48 110 48 112 c 0,21,22
 48 118 48 118 46.5 123.5 c 128,-1,23
 45 129 45 129 43 134 c 0,24,25
 41 137 41 137 41 138.5 c 128,-1,26
 41 140 41 140 45 139 c 0,27,28
 49 139 49 139 52.5 138 c 128,-1,29
 56 137 56 137 60 135 c 0,30,31
 67 132 67 132 64 128 c 0,32,33
 63 124 63 124 62 120 c 128,-1,34
 61 116 61 116 61 111 c 0,35,36
 60 104 60 104 59 99 c 128,-1,37
 58 94 58 94 58 91 c 0,38,39
 58 87 58 87 59.5 86 c 128,-1,40
 61 85 61 85 64 86 c 0,41,42
 68 87 68 87 75 89 c 128,-1,43
 82 91 82 91 92 95 c 1,44,45
 93 102 93 102 93 110 c 128,-1,46
 93 118 93 118 93 127 c 0,47,48
 93 131 93 131 93 135 c 128,-1,49
 93 139 93 139 93 143 c 1,50,-1
 93 142 l 1,51,52
 93 143 93 143 93 143 c 129,-1,53
 93 143 93 143 93 144 c 0,54,55
 93 151 93 151 92 158 c 128,-1,56
 91 165 91 165 88 171 c 1,57,-1
 89 171 l 1,58,59
 85 178 85 178 92 176 c 0,60,61
 96 175 96 175 99.5 173.5 c 128,-1,62
 103 172 103 172 106 170 c 0,63,64
 113 165 113 165 110 161 c 0,65,66
 108 155 108 155 107 149 c 128,-1,67
 106 143 106 143 106 136 c 0,68,69
 106 134 106 134 106 132 c 128,-1,70
 106 130 106 130 106 128 c 0,71,72
 106 115 106 115 105 102.5 c 128,-1,73
 104 90 104 90 102 77 c 1,74,-1
 102 79 l 1,75,76
 100 68 100 68 95.5 58.5 c 128,-1,77
 91 49 91 49 85 41 c 0,78,79
 79 32 79 32 70 25 c 128,-1,80
 61 18 61 18 51 14 c 1,81,-1
 50 14 l 1,82,83
 39 10 39 10 38 11 c 128,-1,84
 37 12 37 12 45 17 c 0,85,86
 54 23 54 23 61 29.5 c 128,-1,87
 68 36 68 36 74 44 c 1,88,-1
 74 45 l 1,89,90
 81 54 81 54 85 65 c 128,-1,91
 89 76 89 76 91 88 c 1,92,93
 83 84 83 84 76 80.5 c 128,-1,94
 69 77 69 77 62 73 c 1,95,-1
 63 74 l 1,0,1
165 90 m 0,96,97
 166 90 166 90 166.5 90.5 c 128,-1,98
 167 91 167 91 168 91 c 0,99,100
 170 91 170 91 172 90 c 128,-1,101
 174 89 174 89 176 88 c 1,102,103
 178 96 178 96 179 105 c 128,-1,104
 180 114 180 114 181 123 c 0,105,106
 181 124 181 124 181 124.5 c 128,-1,107
 181 125 181 125 181 126 c 0,108,109
 181 131 181 131 180 136 c 128,-1,110
 179 141 179 141 177 145 c 128,-1,111
 175 149 175 149 176.5 150 c 128,-1,112
 178 151 178 151 181 151 c 0,113,114
 185 150 185 150 189 148 c 128,-1,115
 193 146 193 146 196 144 c 1,116,-1
 195 144 l 1,117,118
 199 142 199 142 200 139 c 128,-1,119
 201 136 201 136 199 134 c 0,120,121
 197 130 197 130 195.5 126 c 128,-1,122
 194 122 194 122 194 117 c 2,123,124
 194 117 194 117 194 116.5 c 128,-1,125
 194 116 194 116 194 116 c 2,126,127
 193 109 193 109 192.5 102 c 128,-1,128
 192 95 192 95 191 88 c 0,129,130
 190 83 190 83 188.5 78.5 c 128,-1,131
 187 74 187 74 184 70 c 0,132,133
 182 67 182 67 181 67 c 128,-1,134
 180 67 180 67 178 69 c 0,135,136
 177 72 177 72 176 74.5 c 128,-1,137
 175 77 175 77 174 80 c 2,138,-1
 174 81 l 1,139,-1
 147 79 l 1,140,141
 147 41 147 41 146 19 c 128,-1,142
 145 -3 145 -3 143 -9 c 256,143,144
 141 -15 141 -15 139 -16 c 128,-1,145
 137 -17 137 -17 137 -14 c 0,146,147
 136 -9 136 -9 135.5 -3.5 c 128,-1,148
 135 2 135 2 135 7 c 0,149,150
 135 8 135 8 135 9.5 c 128,-1,151
 135 11 135 11 135 12 c 2,152,-1
 135 56 l 2,153,154
 135 68 135 68 135 82.5 c 128,-1,155
 135 97 135 97 136 115 c 0,156,157
 136 119 136 119 136.5 123.5 c 128,-1,158
 137 128 137 128 137 133 c 0,159,160
 137 141 137 141 136.5 148 c 128,-1,161
 136 155 136 155 135 163 c 1,162,-1
 135 161 l 1,163,164
 135 165 135 165 133.5 169 c 128,-1,165
 132 173 132 173 130 177 c 1,166,-1
 130 176 l 1,167,168
 128 178 128 178 129 179 c 128,-1,169
 130 180 130 180 134 180 c 0,170,171
 138 179 138 179 141.5 178 c 128,-1,172
 145 177 145 177 149 175 c 1,173,-1
 148 175 l 1,174,175
 152 173 152 173 152.5 170 c 128,-1,176
 153 167 153 167 152 163 c 0,177,178
 150 159 150 159 148.5 140 c 128,-1,179
 147 121 147 121 147 87 c 1,180,181
 152 87 152 87 156.5 88 c 128,-1,182
 161 89 161 89 165 90 c 0,96,97
EndSplineSet
Validated: 33
EndChar

StartChar: uniE908
Encoding: 59656 59656 10
Width: 237
GlyphClass: 1
Flags: W
LayerCount: 2
Fore
SplineSet
194 146 m 0,0,1
 191 148 191 148 187.5 150 c 128,-1,2
 184 152 184 152 180 153 c 128,-1,3
 176 154 176 154 175 152.5 c 128,-1,4
 174 151 174 151 176 148 c 0,5,6
 178 144 178 144 178.5 139 c 128,-1,7
 179 134 179 134 179 129 c 0,8,9
 179 128 179 128 179 127.5 c 128,-1,10
 179 127 179 127 179 126 c 0,11,12
 179 116 179 116 178 107 c 128,-1,13
 177 98 177 98 174 89 c 1,14,-1
 174 90 l 2,15,16
 173 92 173 92 171 92.5 c 128,-1,17
 169 93 169 93 166 93 c 0,18,19
 165 93 165 93 164.5 93 c 128,-1,20
 164 93 164 93 163 93 c 0,21,22
 159 92 159 92 154.5 91 c 128,-1,23
 150 90 150 90 146 90 c 2,24,-1
 145 90 l 1,25,26
 146 158 146 158 150 166 c 128,-1,27
 154 174 154 174 147 178 c 0,28,29
 144 180 144 180 140.5 181 c 128,-1,30
 137 182 137 182 133 183 c 2,31,-1
 132 183 l 2,32,33
 128 183 128 183 127 182 c 256,34,35
 126 181 126 181 128 179 c 0,36,37
 130 176 130 176 131.5 172.5 c 128,-1,38
 133 169 133 169 134 165 c 2,39,-1
 134 164 l 2,40,41
 135 158 135 158 135 150.5 c 128,-1,42
 135 143 135 143 135 135 c 0,43,44
 135 131 135 131 135 126.5 c 128,-1,45
 135 122 135 122 135 118 c 1,46,-1
 135 119 l 1,47,48
 135 101 135 101 134.5 86 c 128,-1,49
 134 71 134 71 134 58 c 2,50,-1
 134 15 l 2,51,52
 134 14 134 14 133.5 13 c 128,-1,53
 133 12 133 12 133 11 c 0,54,55
 133 5 133 5 134 -0.5 c 128,-1,56
 135 -6 135 -6 135 -11 c 0,57,58
 135 -15 135 -15 137 -13.5 c 128,-1,59
 139 -12 139 -12 142 -6 c 0,60,61
 144 0 144 0 145 22 c 128,-1,62
 146 44 146 44 145 82 c 1,63,-1
 173 84 l 1,64,65
 174 80 174 80 174.5 77.5 c 128,-1,66
 175 75 175 75 177 72 c 0,67,68
 178 70 178 70 179.5 70 c 128,-1,69
 181 70 181 70 183 73 c 0,70,71
 185 77 185 77 187 81.5 c 128,-1,72
 189 86 189 86 189 91 c 0,73,74
 190 97 190 97 191 104 c 128,-1,75
 192 111 192 111 193 118 c 2,76,-1
 193 119 l 2,77,78
 193 124 193 124 194 128.5 c 128,-1,79
 195 133 195 133 197 137 c 0,80,81
 199 139 199 139 198.5 141.5 c 128,-1,82
 198 144 198 144 194 146 c 0,0,1
104 173 m 0,83,84
 101 175 101 175 97.5 176 c 128,-1,85
 94 177 94 177 90 177 c 0,86,87
 86 178 86 178 85 177.5 c 128,-1,88
 84 177 84 177 86 174 c 128,-1,89
 88 171 88 171 89 167 c 128,-1,90
 90 163 90 163 91 160 c 2,91,-1
 91 159 l 2,92,93
 92 153 92 153 92.5 145.5 c 128,-1,94
 93 138 93 138 93 130 c 0,95,96
 93 126 93 126 92.5 121.5 c 128,-1,97
 92 117 92 117 92 113 c 1,98,-1
 92 114 l 1,99,100
 92 110 92 110 92 106 c 128,-1,101
 92 102 92 102 92 98 c 0,102,103
 83 95 83 95 74.5 92 c 128,-1,104
 66 89 66 89 62 88 c 0,105,106
 59 87 59 87 57.5 88 c 128,-1,107
 56 89 56 89 56 93 c 128,-1,108
 56 97 56 97 57 101.5 c 128,-1,109
 58 106 58 106 59 113 c 0,110,111
 59 118 59 118 60 122.5 c 128,-1,112
 61 127 61 127 63 131 c 1,113,-1
 62 131 l 1,114,115
 63 133 63 133 62 134.5 c 128,-1,116
 61 136 61 136 58 137 c 0,117,118
 54 138 54 138 50.5 139.5 c 128,-1,119
 47 141 47 141 44 141 c 2,120,-1
 43 141 l 2,121,122
 39 141 39 141 39 140 c 128,-1,123
 39 139 39 139 41 136 c 0,124,125
 43 131 43 131 44.5 125.5 c 128,-1,126
 46 120 46 120 46 114 c 0,127,128
 46 113 46 113 46 111.5 c 128,-1,129
 46 110 46 110 46 108 c 1,130,-1
 46 109 l 1,131,132
 46 108 46 108 46 106.5 c 128,-1,133
 46 105 46 105 46 104 c 0,134,135
 46 98 46 98 45 92.5 c 128,-1,136
 44 87 44 87 42 81 c 1,137,-1
 42 82 l 1,138,139
 41 81 41 81 40.5 79 c 128,-1,140
 40 77 40 77 40 75 c 128,-1,141
 40 73 40 73 40.5 71.5 c 128,-1,142
 41 70 41 70 42 69 c 0,143,144
 44 65 44 65 46 64.5 c 128,-1,145
 48 64 48 64 51 66 c 0,146,147
 53 68 53 68 55.5 70.5 c 128,-1,148
 58 73 58 73 61 76 c 0,149,150
 67 80 67 80 74.5 83.5 c 128,-1,151
 82 87 82 87 90 91 c 2,152,-1
 91 92 l 1,153,154
 91 81 91 81 91 71.5 c 128,-1,155
 91 62 91 62 91 53 c 2,156,-1
 91 9 l 2,157,158
 91 8 91 8 91 7.5 c 128,-1,159
 91 7 91 7 91 5 c 0,160,161
 91 -1 91 -1 91.5 -6 c 128,-1,162
 92 -11 92 -11 93 -17 c 1,163,-1
 93 -16 l 1,164,165
 94 -20 94 -20 95 -18.5 c 128,-1,166
 96 -17 96 -17 99 -11 c 0,167,168
 101 -5 101 -5 102 15.5 c 128,-1,169
 103 36 103 36 103 71 c 2,170,-1
 103 87 l 2,171,172
 104 153 104 153 107 161 c 0,173,174
 108 162 108 162 108 163 c 1,175,176
 109 163 109 163 109 165 c 128,-1,177
 109 167 109 167 107.5 169 c 128,-1,178
 106 171 106 171 104 173 c 0,83,84
EndSplineSet
Validated: 37
EndChar

StartChar: uniE909
Encoding: 59657 59657 11
Width: 209
GlyphClass: 1
Flags: W
LayerCount: 2
Fore
SplineSet
100 50 m 0,0,1
 92 44 92 44 85 36.5 c 128,-1,2
 78 29 78 29 72 21 c 0,3,4
 72 20 72 20 76 19.5 c 128,-1,5
 80 19 80 19 88 20 c 0,6,7
 96 20 96 20 112 22.5 c 128,-1,8
 128 25 128 25 152 28 c 1,9,-1
 156 18 l 1,10,11
 142 17 142 17 128 16 c 0,12,13
 114 14 114 14 102 11 c 1,14,-1
 106 12 l 1,15,16
 92 10 92 10 80 7.5 c 128,-1,17
 68 5 68 5 56 1 c 1,18,-1
 58 2 l 1,19,20
 56 1 56 1 54 0 c 128,-1,21
 52 -1 52 -1 48 -1 c 2,22,23
 48 -1 48 -1 46 0.5 c 128,-1,24
 44 2 44 2 42 6 c 0,25,26
 40 8 40 8 40 10.5 c 128,-1,27
 40 13 40 13 38 15 c 0,28,29
 38 16 38 16 41 17.5 c 128,-1,30
 44 19 44 19 48 21 c 0,31,32
 56 25 56 25 62 29 c 128,-1,33
 68 33 68 33 72 39 c 0,34,35
 80 47 80 47 89 55.5 c 128,-1,36
 98 64 98 64 108 75 c 0,37,38
 114 83 114 83 121 91.5 c 128,-1,39
 128 100 128 100 134 110 c 1,40,-1
 134 111 l 1,41,42
 140 119 140 119 141 123 c 128,-1,43
 142 127 142 127 142 129 c 0,44,45
 140 130 140 130 141 131.5 c 128,-1,46
 142 133 142 133 142 134 c 1,47,48
 144 134 144 134 146 133.5 c 128,-1,49
 148 133 148 133 150 132 c 0,50,51
 152 130 152 130 154 128.5 c 128,-1,52
 156 127 156 127 158 125 c 0,53,54
 158 124 158 124 159 122 c 128,-1,55
 160 120 160 120 160 118 c 2,56,57
 160 118 160 118 160 117.5 c 128,-1,58
 160 117 160 117 160 117 c 1,59,60
 156 111 156 111 152 105.5 c 128,-1,61
 148 100 148 100 144 96 c 0,62,63
 128 77 128 77 100 50 c 0,0,1
100 172 m 1,64,65
 100 173 100 173 102 172.5 c 128,-1,66
 104 172 104 172 106 170 c 0,67,68
 108 169 108 169 110 167.5 c 128,-1,69
 112 166 112 166 114 163 c 0,70,71
 116 162 116 162 116 161 c 128,-1,72
 116 160 116 160 116 158 c 0,73,74
 114 151 114 151 110 145 c 128,-1,75
 106 139 106 139 102 134 c 0,76,77
 96 125 96 125 90 117 c 128,-1,78
 84 109 84 109 76 102 c 0,79,80
 70 96 70 96 68 93 c 128,-1,81
 66 90 66 90 67 90 c 128,-1,82
 68 90 68 90 82 89.5 c 128,-1,83
 96 89 96 89 124 89 c 1,84,-1
 118 81 l 1,85,-1
 82 78 l 2,86,87
 76 78 76 78 70 76.5 c 128,-1,88
 64 75 64 75 60 73 c 0,89,90
 58 72 58 72 55 71 c 128,-1,91
 52 70 52 70 50 70 c 2,92,93
 50 70 50 70 48 71.5 c 128,-1,94
 46 73 46 73 44 76 c 0,95,96
 44 78 44 78 43 80 c 128,-1,97
 42 82 42 82 42 85 c 0,98,99
 42 87 42 87 44 88.5 c 128,-1,100
 46 90 46 90 52 92 c 0,101,102
 58 97 58 97 64 103 c 128,-1,103
 70 109 70 109 74 116 c 1,104,-1
 74 117 l 1,105,106
 78 124 78 124 84 132 c 128,-1,107
 90 140 90 140 94 148 c 1,108,-1
 94 150 l 1,109,110
 98 157 98 157 99 161.5 c 128,-1,111
 100 166 100 166 99 167 c 128,-1,112
 98 168 98 168 98 169 c 128,-1,113
 98 170 98 170 98 172 c 1,114,-1
 100 172 l 1,64,65
134 46 m 1,115,116
 134 48 134 48 134 49 c 128,-1,117
 134 50 134 50 136 50 c 0,118,119
 138 49 138 49 140 48 c 128,-1,120
 142 47 142 47 144 45 c 0,121,122
 150 41 150 41 154 37 c 128,-1,123
 158 33 158 33 162 27 c 0,124,125
 166 22 166 22 168 16.5 c 128,-1,126
 170 11 170 11 170 4 c 2,127,128
 170 4 170 4 170 3 c 0,129,130
 170 -2 170 -2 169 -4.5 c 128,-1,131
 168 -7 168 -7 166 -8 c 0,132,133
 164 -8 164 -8 159 -2 c 128,-1,134
 154 4 154 4 148 16 c 0,135,136
 144 23 144 23 140 30 c 128,-1,137
 136 37 136 37 134 45 c 1,138,-1
 132 46 l 1,139,-1
 134 46 l 1,115,116
EndSplineSet
Validated: 37
EndChar

StartChar: uniE90A
Encoding: 59658 59658 12
Width: 234
GlyphClass: 1
Flags: W
LayerCount: 2
Fore
SplineSet
119 133 m 128,-1,1
 118 131 118 131 114 124 c 128,-1,2
 110 117 110 117 104 105 c 128,-1,3
 98 93 98 93 92 81.5 c 128,-1,4
 86 70 86 70 79 59 c 128,-1,5
 72 48 72 48 69 42.5 c 128,-1,6
 66 37 66 37 66 36 c 1,7,8
 68 36 68 36 68 36 c 129,-1,9
 68 36 68 36 70 36 c 0,10,11
 82 36 82 36 94 37 c 128,-1,12
 106 38 106 38 118 40 c 1,13,-1
 118 40 l 1,14,15
 142 42 142 42 156 43.5 c 128,-1,16
 170 45 170 45 176 45 c 1,17,-1
 178 37 l 1,18,19
 166 37 166 37 153 35.5 c 128,-1,20
 140 34 140 34 128 32 c 1,21,-1
 130 32 l 1,22,23
 114 30 114 30 101 28 c 128,-1,24
 88 26 88 26 80 23 c 0,25,26
 72 22 72 22 66 20.5 c 128,-1,27
 60 19 60 19 54 16 c 1,28,-1
 56 16 l 1,29,30
 54 15 54 15 52 14.5 c 128,-1,31
 50 14 50 14 48 13 c 0,32,33
 46 13 46 13 44 14.5 c 128,-1,34
 42 16 42 16 42 20 c 0,35,36
 40 22 40 22 39 24 c 128,-1,37
 38 26 38 26 38 29 c 0,38,39
 38 31 38 31 46 35 c 0,40,41
 54 41 54 41 59 47.5 c 128,-1,42
 64 54 64 54 68 62 c 1,43,-1
 68 63 l 1,44,45
 74 74 74 74 80 86 c 128,-1,46
 86 98 86 98 92 112 c 1,47,-1
 92 115 l 1,48,49
 98 129 98 129 101 137 c 128,-1,50
 104 145 104 145 102 146 c 0,51,52
 102 147 102 147 101 148 c 128,-1,53
 100 149 100 149 102 150 c 256,54,55
 104 151 104 151 107 151 c 128,-1,56
 110 151 110 151 112 149 c 0,57,58
 116 147 116 147 118 145 c 128,-1,59
 120 143 120 143 120 141 c 2,60,61
 120 141 120 141 120 140.5 c 128,-1,62
 120 140 120 140 120 140 c 2,63,64
 120 138 120 138 120 136.5 c 128,-1,0
 120 135 120 135 119 133 c 128,-1,1
146 72 m 2,65,66
 146 73 146 73 148 73 c 128,-1,67
 150 73 150 73 154 72 c 256,68,69
 158 71 158 71 162 69.5 c 128,-1,70
 166 68 166 68 168 65 c 0,71,72
 174 61 174 61 178 58 c 0,73,74
 180 54 180 54 184 50 c 1,75,-1
 186 50 l 1,76,77
 190 46 190 46 192 41 c 128,-1,78
 194 36 194 36 194 30 c 0,79,80
 194 29 194 29 195 28 c 128,-1,81
 196 27 196 27 196 26 c 0,82,83
 196 24 196 24 195 21.5 c 128,-1,84
 194 19 194 19 194 17 c 0,85,86
 192 15 192 15 185 21.5 c 128,-1,87
 178 28 178 28 168 41 c 0,88,89
 162 48 162 48 156 55.5 c 128,-1,90
 150 63 150 63 146 71 c 1,91,-1
 146 72 l 2,65,66
EndSplineSet
Validated: 37
EndChar

StartChar: uniE90B
Encoding: 59659 59659 13
Width: 160
GlyphClass: 1
Flags: W
LayerCount: 2
Fore
SplineSet
120 60 m 0,0,1
 120 64 120 64 117 67.5 c 128,-1,2
 114 71 114 71 112 73 c 256,3,4
 110 75 110 75 107 76.5 c 128,-1,5
 104 78 104 78 100 78 c 128,-1,6
 96 78 96 78 96 77 c 0,7,8
 98 74 98 74 99 71 c 128,-1,9
 100 68 100 68 102 66 c 1,10,-1
 100 66 l 1,11,12
 92 61 92 61 83 56.5 c 128,-1,13
 74 52 74 52 64 49 c 2,14,-1
 62 49 l 1,15,16
 62 49 62 49 62 73.5 c 128,-1,17
 62 98 62 98 62 147 c 1,18,19
 48 149 48 149 46 147 c 0,20,21
 46 145 46 145 46 143 c 128,-1,22
 46 141 46 141 48 139 c 0,23,24
 50 133 50 133 51 126 c 128,-1,25
 52 119 52 119 52 111 c 0,26,27
 52 109 52 109 52 106.5 c 128,-1,28
 52 104 52 104 50 101 c 1,29,-1
 52 102 l 1,30,31
 52 100 52 100 52 98.5 c 128,-1,32
 52 97 52 97 52 94 c 0,33,34
 52 84 52 84 51 74 c 128,-1,35
 50 64 50 64 48 54 c 1,36,-1
 48 55 l 1,37,38
 48 50 48 50 47 45.5 c 128,-1,39
 46 41 46 41 42 37 c 0,40,41
 40 36 40 36 39 34.5 c 128,-1,42
 38 33 38 33 38 30 c 0,43,44
 38 28 38 28 39 26 c 128,-1,45
 40 24 40 24 42 22 c 0,46,47
 44 19 44 19 46 18 c 128,-1,48
 48 17 48 17 48 17 c 2,49,50
 50 17 50 17 52 19 c 128,-1,51
 54 21 54 21 58 25 c 0,52,53
 68 35 68 35 79 43.5 c 128,-1,54
 90 52 90 52 102 59 c 2,55,-1
 104 60 l 1,56,-1
 104 58 l 1,57,58
 110 50 110 50 112 46 c 128,-1,59
 114 42 114 42 115 42 c 128,-1,60
 116 42 116 42 117 43.5 c 128,-1,61
 118 45 118 45 120 47 c 0,62,63
 120 48 120 48 121 50 c 128,-1,64
 122 52 122 52 122 55 c 0,65,66
 122 56 122 56 122 57.5 c 128,-1,67
 122 59 122 59 120 60 c 0,0,1
EndSplineSet
Validated: 41
EndChar

StartChar: uniE90C
Encoding: 59660 59660 14
Width: 208
GlyphClass: 1
Flags: W
LayerCount: 2
Fore
SplineSet
46 64 m 0,0,1
 44 65 44 65 42.5 67.5 c 128,-1,2
 41 70 41 70 39 72 c 0,3,4
 38 74 38 74 38.5 75.5 c 128,-1,5
 39 77 39 77 40 77 c 2,6,7
 40 77 40 77 41.5 77 c 128,-1,8
 43 77 43 77 43 77 c 2,9,10
 44 77 44 77 46 77 c 128,-1,11
 48 77 48 77 49 76 c 0,12,13
 51 76 51 76 52.5 75.5 c 128,-1,14
 54 75 54 75 56 75 c 128,-1,15
 58 75 58 75 59.5 75.5 c 128,-1,16
 61 76 61 76 63 76 c 0,17,18
 67 77 67 77 71.5 77.5 c 128,-1,19
 76 78 76 78 82 79 c 0,20,21
 87 80 87 80 96 81 c 128,-1,22
 105 82 105 82 117 84 c 0,23,24
 126 86 126 86 136.5 87 c 128,-1,25
 147 88 147 88 158 89 c 1,26,-1
 158 78 l 1,27,28
 154 78 154 78 149.5 78 c 128,-1,29
 145 78 145 78 141 77 c 1,30,-1
 142 78 l 1,31,32
 138 78 138 78 129.5 76 c 128,-1,33
 121 74 121 74 108 72 c 0,34,35
 96 70 96 70 86.5 67.5 c 128,-1,36
 77 65 77 65 67 62 c 1,37,-1
 70 63 l 1,38,39
 66 62 66 62 62.5 61 c 128,-1,40
 59 60 59 60 54 60 c 0,41,42
 52 60 52 60 49.5 61 c 128,-1,43
 47 62 47 62 46 64 c 0,0,1
116 66 m 0,44,45
 116 65 116 65 116 64.5 c 128,-1,46
 116 64 116 64 116 63 c 128,-1,47
 116 62 116 62 116 60.5 c 128,-1,48
 116 59 116 59 115 58 c 2,49,-1
 104 41 l 2,50,51
 100 34 100 34 95 28 c 0,52,53
 89 21 89 21 83 17 c 0,54,55
 77 12 77 12 70 7.5 c 128,-1,56
 63 3 63 3 56 0 c 2,57,-1
 55 0 l 2,58,59
 48 -3 48 -3 44 -4.5 c 128,-1,60
 40 -6 40 -6 39 -5 c 0,61,62
 39 -4 39 -4 42.5 -1 c 128,-1,63
 46 2 46 2 53 6 c 0,64,65
 61 12 61 12 68.5 19.5 c 128,-1,66
 76 27 76 27 82 35 c 0,67,68
 89 43 89 43 94 53.5 c 128,-1,69
 99 64 99 64 101 76 c 1,70,71
 108 73 108 73 111.5 70.5 c 128,-1,72
 115 68 115 68 116 66 c 0,44,45
111 105 m 1,73,74
 108 103 108 103 105.5 101.5 c 128,-1,75
 103 100 103 100 102 100 c 128,-1,76
 101 100 101 100 99.5 101.5 c 128,-1,77
 98 103 98 103 96 105 c 0,78,79
 95 106 95 106 94 108 c 128,-1,80
 93 110 93 110 93 112 c 0,81,82
 93 113 93 113 94 114 c 128,-1,83
 95 115 95 115 96 117 c 0,84,85
 98 118 98 118 99 122.5 c 128,-1,86
 100 127 100 127 100 133 c 2,87,88
 100 133 100 133 100 134 c 128,-1,89
 100 135 100 135 100 135 c 2,90,91
 100 141 100 141 99.5 146.5 c 128,-1,92
 99 152 99 152 98 157 c 1,93,-1
 98 156 l 1,94,95
 98 160 98 160 96.5 163 c 128,-1,96
 95 166 95 166 93 169 c 0,97,98
 91 171 91 171 91 172 c 128,-1,99
 91 173 91 173 93 173 c 2,100,101
 93 173 93 173 93.5 173 c 128,-1,102
 94 173 94 173 94 173 c 2,103,104
 96 173 96 173 98.5 172.5 c 128,-1,105
 101 172 101 172 103 171 c 0,106,107
 107 170 107 170 109 168 c 0,108,109
 111 167 111 167 112 165 c 0,110,111
 112 163 112 163 112 160 c 128,-1,112
 112 157 112 157 112 154 c 0,113,114
 112 152 112 152 112 149 c 128,-1,115
 112 146 112 146 112 144 c 128,-1,116
 112 142 112 142 111.5 139.5 c 128,-1,117
 111 137 111 137 111 134 c 256,118,119
 111 131 111 131 111 128.5 c 128,-1,120
 111 126 111 126 112 123 c 0,121,122
 113 119 113 119 115 120 c 0,123,124
 121 121 121 121 126 122 c 128,-1,125
 131 123 131 123 136 124 c 1,126,-1
 134 123 l 1,127,128
 139 124 139 124 145 125.5 c 128,-1,129
 151 127 151 127 158 127 c 1,130,-1
 158 119 l 1,131,132
 145 117 145 117 133 113.5 c 128,-1,133
 121 110 121 110 110 104 c 1,134,-1
 111 105 l 1,73,74
168 182 m 0,135,136
 168 181 168 181 168.5 180.5 c 128,-1,137
 169 180 169 180 169 179 c 256,138,139
 169 178 169 178 168.5 177.5 c 128,-1,140
 168 177 168 177 168 176 c 0,141,142
 167 172 167 172 166.5 168.5 c 128,-1,143
 166 165 166 165 166 160 c 2,144,145
 166 160 166 160 166 159.5 c 128,-1,146
 166 159 166 159 166 158 c 0,147,148
 166 151 166 151 166 143.5 c 128,-1,149
 166 136 166 136 166 129 c 2,150,-1
 166 82 l 2,151,152
 166 66 166 66 166 51 c 128,-1,153
 166 36 166 36 166 22 c 0,154,155
 166 21 166 21 166 20 c 128,-1,156
 166 19 166 19 166 19 c 2,157,158
 166 10 166 10 165 1 c 128,-1,159
 164 -8 164 -8 163 -17 c 1,160,-1
 163 -16 l 1,161,162
 162 -21 162 -21 161 -23.5 c 128,-1,163
 160 -26 160 -26 159 -26 c 128,-1,164
 158 -26 158 -26 157 -23.5 c 128,-1,165
 156 -21 156 -21 154 -15 c 0,166,167
 153 -12 153 -12 151.5 -8.5 c 128,-1,168
 150 -5 150 -5 150 -1 c 2,169,-1
 150 0 l 2,170,171
 150 1 150 1 150.5 6 c 128,-1,172
 151 11 151 11 152 20 c 0,173,174
 153 33 153 33 154 47.5 c 128,-1,175
 155 62 155 62 155 77 c 0,176,177
 155 81 155 81 155 85 c 128,-1,178
 155 89 155 89 155 92 c 0,179,180
 155 119 155 119 154.5 137 c 128,-1,181
 154 155 154 155 153 164 c 2,182,183
 153 164 153 164 153 164.5 c 128,-1,184
 153 165 153 165 153 166 c 0,185,186
 153 172 153 172 152 176.5 c 128,-1,187
 151 181 151 181 149 186 c 1,188,-1
 149 185 l 1,189,190
 148 186 148 186 147.5 187.5 c 128,-1,191
 147 189 147 189 149 190 c 0,192,193
 150 190 150 190 150.5 190 c 128,-1,194
 151 190 151 190 152 190 c 0,195,196
 154 190 154 190 156 189.5 c 128,-1,197
 158 189 158 189 159 188 c 0,198,199
 162 186 162 186 164.5 185 c 128,-1,200
 167 184 167 184 168 182 c 0,135,136
EndSplineSet
Validated: 5
EndChar

StartChar: uniE90D
Encoding: 59661 59661 15
Width: 155
GlyphClass: 1
Flags: W
LayerCount: 2
Fore
SplineSet
116 119 m 1,0,1
 114 120 114 120 113 121 c 128,-1,2
 112 122 112 122 110 122 c 128,-1,3
 108 122 108 122 106 121 c 128,-1,4
 104 120 104 120 98 117 c 0,5,6
 88 115 88 115 83 114.5 c 128,-1,7
 78 114 78 114 78 116 c 0,8,9
 78 117 78 117 78 118.5 c 128,-1,10
 78 120 78 120 78 121 c 128,-1,11
 78 122 78 122 78 124 c 128,-1,12
 78 126 78 126 78 127 c 128,-1,13
 78 128 78 128 78 128.5 c 128,-1,14
 78 129 78 129 78 130 c 0,15,16
 78 132 78 132 78 133.5 c 128,-1,17
 78 135 78 135 78 137 c 0,18,19
 76 139 76 139 74 140 c 128,-1,20
 72 141 72 141 70 142 c 0,21,22
 66 143 66 143 64 143.5 c 128,-1,23
 62 144 62 144 61 143 c 128,-1,24
 60 142 60 142 61 140.5 c 128,-1,25
 62 139 62 139 64 137 c 0,26,27
 66 134 66 134 67 130.5 c 128,-1,28
 68 127 68 127 68 123 c 2,29,30
 68 123 68 123 68 122 c 0,31,32
 68 116 68 116 68 113 c 128,-1,33
 68 110 68 110 67 109 c 128,-1,34
 66 108 66 108 65 107 c 128,-1,35
 64 106 64 106 64 105 c 0,36,37
 64 103 64 103 65 101.5 c 128,-1,38
 66 100 66 100 67 99 c 128,-1,39
 68 98 68 98 70 98.5 c 128,-1,40
 72 99 72 99 74 101 c 128,-1,41
 76 103 76 103 79 104.5 c 128,-1,42
 82 106 82 106 86 107 c 256,43,44
 90 108 90 108 93 108.5 c 128,-1,45
 96 109 96 109 100 110 c 1,46,47
 102 106 102 106 103 101.5 c 128,-1,48
 104 97 104 97 104 92 c 0,49,50
 104 91 104 91 104 90.5 c 128,-1,51
 104 90 104 90 104 89 c 1,52,-1
 104 90 l 1,53,-1
 104 87 l 1,54,55
 98 87 98 87 91 86.5 c 128,-1,56
 84 86 84 86 76 85 c 1,57,-1
 78 85 l 1,58,59
 70 84 70 84 65 83 c 128,-1,60
 60 82 60 82 58 82 c 256,61,62
 56 82 56 82 54 82.5 c 128,-1,63
 52 83 52 83 50 83 c 1,64,-1
 52 83 l 1,65,66
 48 83 48 83 47 83 c 128,-1,67
 46 83 46 83 44 83 c 1,68,69
 44 83 44 83 45 81 c 128,-1,70
 46 79 46 79 47 77 c 128,-1,71
 48 75 48 75 50 73.5 c 128,-1,72
 52 72 52 72 54 72 c 0,73,74
 58 72 58 72 62 72.5 c 128,-1,75
 66 73 66 73 72 74 c 1,76,-1
 70 74 l 1,77,78
 70 67 70 67 67 61 c 128,-1,79
 64 55 64 55 62 49 c 1,80,-1
 62 50 l 1,81,82
 58 45 58 45 55 40.5 c 128,-1,83
 52 36 52 36 48 31 c 0,84,85
 38 23 38 23 38 21 c 1,86,87
 38 21 38 21 41 22 c 128,-1,88
 44 23 44 23 49 26 c 128,-1,89
 54 29 54 29 59 32.5 c 128,-1,90
 64 36 64 36 68 41 c 0,91,92
 72 45 72 45 74 48.5 c 128,-1,93
 76 52 76 52 78 57 c 0,94,95
 80 59 80 59 81 62 c 128,-1,96
 82 65 82 65 82 67 c 2,97,-1
 82 68 l 2,98,99
 82 69 82 69 81 71 c 128,-1,100
 80 73 80 73 78 76 c 1,101,-1
 78 76 l 1,102,103
 84 77 84 77 90 78 c 128,-1,104
 96 79 96 79 104 80 c 1,105,-1
 104 80 l 1,106,107
 104 73 104 73 103 66.5 c 128,-1,108
 102 60 102 60 102 53 c 1,109,110
 102 53 102 53 102 54 c 1,111,112
 102 52 102 52 101 50 c 128,-1,113
 100 48 100 48 100 45 c 128,-1,114
 100 42 100 42 101 38.5 c 128,-1,115
 102 35 102 35 104 32 c 1,116,-1
 102 32 l 1,117,118
 104 28 104 28 105 26.5 c 128,-1,119
 106 25 106 25 108 25 c 2,120,121
 108 25 108 25 109 26 c 128,-1,122
 110 27 110 27 110 29 c 0,123,124
 112 34 112 34 112 40 c 128,-1,125
 112 46 112 46 112 52 c 0,126,127
 112 54 112 54 112 56 c 128,-1,128
 112 58 112 58 112 61 c 1,129,-1
 112 60 l 1,130,131
 112 61 112 61 112 63 c 128,-1,132
 112 65 112 65 112 66 c 0,133,134
 112 75 112 75 113 84 c 128,-1,135
 114 93 114 93 114 101 c 1,136,-1
 114 100 l 1,137,138
 116 106 116 106 116 109.5 c 128,-1,139
 116 113 116 113 116 115 c 0,140,141
 116 116 116 116 116 117.5 c 128,-1,142
 116 119 116 119 116 120 c 1,143,-1
 116 119 l 1,0,1
EndSplineSet
Validated: 5
EndChar

StartChar: uniE90E
Encoding: 59662 59662 16
Width: 142
GlyphClass: 1
Flags: W
LayerCount: 2
Fore
SplineSet
103 144 m 1,0,1
 100 145 100 145 97 145.5 c 128,-1,2
 94 146 94 146 91 146 c 1,3,-1
 91 147 l 1,4,5
 90 147 90 147 88.5 146 c 128,-1,6
 87 145 87 145 87 143 c 0,7,8
 87 142 87 142 87 140.5 c 128,-1,9
 87 139 87 139 90 138 c 0,10,11
 92 137 92 137 92.5 134.5 c 128,-1,12
 93 132 93 132 94 127 c 0,13,14
 94 126 94 126 94 125 c 128,-1,15
 94 124 94 124 94 122 c 0,16,17
 94 121 94 121 94 119.5 c 128,-1,18
 94 118 94 118 94 117 c 1,19,20
 91 117 91 117 88.5 116.5 c 128,-1,21
 86 116 86 116 83 115 c 1,22,-1
 84 115 l 1,23,-1
 74 113 l 2,24,25
 73 113 73 113 72.5 114 c 128,-1,26
 72 115 72 115 72 118 c 0,27,28
 72 119 72 119 72.5 120 c 128,-1,29
 73 121 73 121 73 122 c 128,-1,30
 73 123 73 123 72.5 124.5 c 128,-1,31
 72 126 72 126 72 127 c 0,32,33
 72 129 72 129 72 131 c 128,-1,34
 72 133 72 133 71 134 c 0,35,36
 71 135 71 135 69 136 c 128,-1,37
 67 137 67 137 65 138 c 0,38,39
 64 138 64 138 63 138.5 c 128,-1,40
 62 139 62 139 61 139 c 256,41,42
 60 139 60 139 58.5 138.5 c 128,-1,43
 57 138 57 138 56 138 c 0,44,45
 54 137 54 137 53.5 136 c 128,-1,46
 53 135 53 135 54 134 c 128,-1,47
 55 133 55 133 56.5 132 c 128,-1,48
 58 131 58 131 59 131 c 0,49,50
 61 130 61 130 62 128 c 128,-1,51
 63 126 63 126 63 122 c 0,52,53
 63 121 63 121 63.5 120.5 c 128,-1,54
 64 120 64 120 64 120 c 2,55,56
 64 118 64 118 63 115.5 c 128,-1,57
 62 113 62 113 61 112 c 128,-1,58
 60 111 60 111 59.5 110 c 128,-1,59
 59 109 59 109 59 107 c 128,-1,60
 59 105 59 105 60 104 c 128,-1,61
 61 103 61 103 62 102 c 2,62,-1
 63 102 l 1,63,64
 63 101 63 101 64 101 c 128,-1,65
 65 101 65 101 66 101 c 128,-1,66
 67 101 67 101 67.5 101 c 128,-1,67
 68 101 68 101 69 102 c 0,68,69
 74 105 74 105 80 107.5 c 128,-1,70
 86 110 86 110 93 112 c 2,71,-1
 94 112 l 1,72,73
 94 110 94 110 94 107 c 128,-1,74
 94 104 94 104 94 101 c 256,75,76
 94 98 94 98 93.5 95.5 c 128,-1,77
 93 93 93 93 92 91 c 0,78,79
 89 90 89 90 84.5 89 c 128,-1,80
 80 88 80 88 74 87 c 0,81,82
 65 85 65 85 60 83.5 c 128,-1,83
 55 82 55 82 53 81 c 0,84,85
 52 81 52 81 51.5 81 c 128,-1,86
 51 81 51 81 50 81 c 128,-1,87
 49 81 49 81 48 81 c 128,-1,88
 47 81 47 81 46 81 c 0,89,90
 44 81 44 81 42.5 81 c 128,-1,91
 41 81 41 81 40 80 c 256,92,93
 39 79 39 79 40 77.5 c 128,-1,94
 41 76 41 76 43 73 c 0,95,96
 45 71 45 71 47.5 70 c 128,-1,97
 50 69 50 69 52 69 c 0,98,99
 55 69 55 69 57 70 c 128,-1,100
 59 71 59 71 62 72 c 1,101,102
 60 63 60 63 55.5 55 c 128,-1,103
 51 47 51 47 46 40 c 1,104,-1
 47 40 l 1,105,106
 42 33 42 33 40 29.5 c 128,-1,107
 38 26 38 26 39 26 c 256,108,109
 40 26 40 26 42.5 28 c 128,-1,110
 45 30 45 30 50 34 c 0,111,112
 55 39 55 39 58.5 44.5 c 128,-1,113
 62 50 62 50 65 56 c 0,114,115
 67 61 67 61 69.5 66.5 c 128,-1,116
 72 72 72 72 73 77 c 2,117,-1
 73 78 l 1,118,119
 77 80 77 80 81.5 81.5 c 128,-1,120
 86 83 86 83 90 84 c 2,121,-1
 91 85 l 1,122,123
 90 80 90 80 89 75.5 c 128,-1,124
 88 71 88 71 87 65 c 0,125,126
 85 56 85 56 81.5 47.5 c 128,-1,127
 78 39 78 39 73 31 c 1,128,-1
 74 32 l 1,129,130
 69 25 69 25 67.5 21.5 c 128,-1,131
 66 18 66 18 67 18 c 128,-1,132
 68 18 68 18 70.5 20.5 c 128,-1,133
 73 23 73 23 79 28 c 0,134,135
 84 34 84 34 87.5 40.5 c 128,-1,136
 91 47 91 47 93 54 c 0,137,138
 96 62 96 62 98 70.5 c 128,-1,139
 100 79 100 79 102 88 c 2,140,-1
 102 89 l 2,141,142
 103 97 103 97 103.5 107 c 128,-1,143
 104 117 104 117 104 127 c 0,144,145
 104 132 104 132 103.5 136 c 128,-1,146
 103 140 103 140 103 145 c 1,147,-1
 103 144 l 1,0,1
EndSplineSet
Validated: 9
EndChar

StartChar: uniE90F
Encoding: 59663 59663 17
Width: 166
GlyphClass: 1
Flags: W
LayerCount: 2
Fore
SplineSet
56 11 m 0,0,1
 55 -2 55 -2 54 -7 c 128,-1,2
 53 -12 53 -12 50 -11 c 0,3,4
 48 -10 48 -10 47 -3 c 128,-1,5
 46 4 46 4 46 16 c 0,6,7
 46 27 46 27 46 40.5 c 128,-1,8
 46 54 46 54 46 69 c 128,-1,9
 46 84 46 84 46 98 c 128,-1,10
 46 112 46 112 46 124 c 0,11,12
 46 126 46 126 46.5 127.5 c 128,-1,13
 47 129 47 129 47 131 c 0,14,15
 47 138 47 138 45 145 c 128,-1,16
 43 152 43 152 41 157 c 0,17,18
 38 161 38 161 38.5 163 c 128,-1,19
 39 165 39 165 42 164 c 0,20,21
 46 163 46 163 49 163 c 128,-1,22
 52 163 52 163 55 162 c 1,23,-1
 54 162 l 1,24,25
 55 162 55 162 56 162 c 128,-1,26
 57 162 57 162 58 162 c 0,27,28
 63 162 63 162 68 163 c 128,-1,29
 73 164 73 164 77 165 c 0,30,31
 83 166 83 166 88.5 168 c 128,-1,32
 94 170 94 170 98 174 c 0,33,34
 99 175 99 175 101 175.5 c 128,-1,35
 103 176 103 176 105 176 c 0,36,37
 106 176 106 176 107.5 175.5 c 128,-1,38
 109 175 109 175 110 175 c 0,39,40
 114 174 114 174 117 172 c 128,-1,41
 120 170 120 170 124 167 c 1,42,-1
 124 168 l 1,43,44
 127 165 127 165 127.5 163 c 128,-1,45
 128 161 128 161 126 159 c 128,-1,46
 124 157 124 157 123 155 c 128,-1,47
 122 153 122 153 121 150 c 128,-1,48
 120 147 120 147 119 143 c 128,-1,49
 118 139 118 139 118 135 c 1,50,-1
 117 135 l 1,51,52
 117 130 117 130 116 123 c 128,-1,53
 115 116 115 116 115 108 c 0,54,55
 114 100 114 100 111 93.5 c 128,-1,56
 108 87 108 87 103 81 c 0,57,58
 98 76 98 76 94.5 76 c 128,-1,59
 91 76 91 76 89 80 c 0,60,61
 86 85 86 85 82.5 89.5 c 128,-1,62
 79 94 79 94 74 97 c 0,63,64
 68 101 68 101 68 102 c 128,-1,65
 68 103 68 103 74 102 c 0,66,67
 78 101 78 101 82 100 c 128,-1,68
 86 99 86 99 90 99 c 0,69,70
 93 99 93 99 95 101 c 128,-1,71
 97 103 97 103 97 105 c 0,72,73
 98 109 98 109 99.5 113.5 c 128,-1,74
 101 118 101 118 101 123 c 2,75,-1
 101 124 l 2,76,77
 102 129 102 129 103 135 c 128,-1,78
 104 141 104 141 104 148 c 2,79,-1
 104 149 l 2,80,81
 104 155 104 155 102.5 158 c 128,-1,82
 101 161 101 161 96 161 c 0,83,84
 85 160 85 160 75.5 158.5 c 128,-1,85
 66 157 66 157 56 154 c 1,86,-1
 58 154 l 1,87,88
 58 36 58 36 56 11 c 0,0,1
EndSplineSet
Validated: 5
EndChar

StartChar: uniE910
Encoding: 59664 59664 18
Width: 217
GlyphClass: 1
Flags: W
LayerCount: 2
Fore
SplineSet
168 166 m 0,0,1
 166 168 166 168 162.5 169.5 c 128,-1,2
 159 171 159 171 156 173 c 1,3,-1
 156 173 l 1,4,5
 155 173 155 173 155 173 c 2,6,7
 154 173 154 173 153 172.5 c 128,-1,8
 152 172 152 172 152 171 c 0,9,10
 147 169 147 169 141 167.5 c 128,-1,11
 135 166 135 166 129 166 c 0,12,13
 108 164 108 164 90 161 c 0,14,15
 79 159 79 159 65.5 158 c 128,-1,16
 52 157 52 157 39 157 c 2,17,-1
 38 157 l 1,18,19
 44 150 44 150 49 147 c 128,-1,20
 54 144 54 144 57 144 c 0,21,22
 66 145 66 145 74.5 146 c 128,-1,23
 83 147 83 147 92 149 c 1,24,-1
 90 149 l 1,25,-1
 92 149 l 1,26,27
 94 125 94 125 94 57 c 0,28,29
 94 46 94 46 94 37.5 c 128,-1,30
 94 29 94 29 94 24 c 128,-1,31
 94 19 94 19 95 13 c 128,-1,32
 96 7 96 7 97 2 c 256,33,34
 98 -3 98 -3 98.5 -6 c 128,-1,35
 99 -9 99 -9 101 -9 c 0,36,37
 102 -9 102 -9 103 -4 c 128,-1,38
 104 1 104 1 105 11 c 0,39,40
 106 18 106 18 106 34.5 c 128,-1,41
 106 51 106 51 106 75 c 0,42,43
 106 88 106 88 106.5 97.5 c 128,-1,44
 107 107 107 107 107 112 c 0,45,46
 107 118 107 118 108.5 123.5 c 128,-1,47
 110 129 110 129 111 134 c 0,48,49
 112 136 112 136 111.5 138.5 c 128,-1,50
 111 141 111 141 108 143 c 0,51,52
 106 145 106 145 104 146.5 c 128,-1,53
 102 148 102 148 99 150 c 1,54,-1
 127 156 l 2,55,56
 131 157 131 157 135.5 157.5 c 128,-1,57
 140 158 140 158 144 158 c 2,58,-1
 145 158 l 2,59,60
 147 158 147 158 149 157.5 c 128,-1,61
 151 157 151 157 152 156 c 128,-1,62
 153 155 153 155 154 153 c 128,-1,63
 155 151 155 151 156 150 c 0,64,65
 156 143 156 143 155 137 c 128,-1,66
 154 131 154 131 153 125 c 1,67,-1
 153 126 l 1,68,69
 153 120 153 120 151 114 c 128,-1,70
 149 108 149 108 146 102 c 1,71,-1
 147 103 l 1,72,73
 145 102 145 102 142 101.5 c 128,-1,74
 139 101 139 101 134 103 c 0,75,76
 130 104 130 104 127.5 104.5 c 128,-1,77
 125 105 125 105 124 104 c 256,78,79
 123 103 123 103 125 101 c 128,-1,80
 127 99 127 99 132 95 c 256,81,82
 137 91 137 91 139.5 88 c 128,-1,83
 142 85 142 85 141 82 c 0,84,85
 141 79 141 79 142 77.5 c 128,-1,86
 143 76 143 76 145 76 c 128,-1,87
 147 76 147 76 149.5 78 c 128,-1,88
 152 80 152 80 155 83 c 0,89,90
 159 89 159 89 161.5 95.5 c 128,-1,91
 164 102 164 102 165 110 c 1,92,-1
 166 110 l 1,93,94
 168 120 168 120 169 126.5 c 128,-1,95
 170 133 170 133 170 138 c 0,96,97
 170 142 170 142 171.5 145.5 c 128,-1,98
 173 149 173 149 175 151 c 128,-1,99
 177 153 177 153 178 154.5 c 128,-1,100
 179 156 179 156 178 157 c 0,101,102
 178 158 178 158 175.5 160.5 c 128,-1,103
 173 163 173 163 168 166 c 0,0,1
EndSplineSet
Validated: 37
EndChar

StartChar: uniE911
Encoding: 59665 59665 19
Width: 265
GlyphClass: 1
Flags: W
LayerCount: 2
Fore
SplineSet
38 16 m 128,-1,1
 38 17 38 17 43 22 c 128,-1,2
 48 27 48 27 58 34 c 0,3,4
 70 43 70 43 79 52.5 c 128,-1,5
 88 62 88 62 96 73 c 1,6,-1
 96 74 l 1,7,8
 104 83 104 83 110 94 c 128,-1,9
 116 105 116 105 120 117 c 1,10,-1
 122 118 l 1,11,12
 124 126 124 126 126 134.5 c 128,-1,13
 128 143 128 143 128 153 c 1,14,15
 136 148 136 148 140 144.5 c 128,-1,16
 144 141 144 141 144 139 c 0,17,18
 144 134 144 134 142 129.5 c 128,-1,19
 140 125 140 125 138 121 c 0,20,21
 134 110 134 110 129 101 c 128,-1,22
 124 92 124 92 118 83 c 1,23,-1
 118 84 l 1,24,25
 112 74 112 74 105 65 c 128,-1,26
 98 56 98 56 90 48 c 0,27,28
 82 41 82 41 74 35 c 128,-1,29
 66 29 66 29 58 24 c 1,30,-1
 56 24 l 1,31,32
 48 19 48 19 43 17 c 128,-1,0
 38 15 38 15 38 16 c 128,-1,1
164 22 m 0,33,34
 166 21 166 21 169 19 c 128,-1,35
 172 17 172 17 176 17 c 1,36,-1
 176 17 l 1,37,38
 178 17 178 17 179 17 c 128,-1,39
 180 17 180 17 180 18 c 0,40,41
 184 21 184 21 186 24.5 c 128,-1,42
 188 28 188 28 190 32 c 2,43,-1
 190 33 l 1,44,45
 194 41 194 41 197 50 c 128,-1,46
 200 59 200 59 202 69 c 2,47,-1
 202 70 l 1,48,49
 206 82 206 82 207 89 c 128,-1,50
 208 96 208 96 206 97 c 256,51,52
 204 98 204 98 202 98.5 c 128,-1,53
 200 99 200 99 196 99 c 2,54,55
 196 99 196 99 195 99 c 128,-1,56
 194 99 194 99 194 99 c 2,57,58
 188 99 188 99 184 98 c 128,-1,59
 180 97 180 97 176 95 c 0,60,61
 174 94 174 94 172 93 c 128,-1,62
 170 92 170 92 168 92 c 2,63,-1
 166 92 l 1,64,65
 166 92 166 92 165 93 c 128,-1,66
 164 94 164 94 162 97 c 0,67,68
 160 98 160 98 160 99.5 c 128,-1,69
 160 101 160 101 158 103 c 0,70,71
 158 104 158 104 160 106.5 c 128,-1,72
 162 109 162 109 166 113 c 0,73,74
 170 118 170 118 174 124.5 c 128,-1,75
 178 131 178 131 180 138 c 2,76,-1
 180 139 l 1,77,78
 184 148 184 148 185 152.5 c 128,-1,79
 186 157 186 157 186 158 c 0,80,81
 184 159 184 159 183 159 c 128,-1,82
 182 159 182 159 182 159 c 257,83,84
 182 159 182 159 181 159 c 128,-1,85
 180 159 180 159 180 159 c 2,86,87
 174 158 174 158 168 157 c 128,-1,88
 162 156 162 156 158 154 c 1,89,-1
 158 155 l 1,90,91
 150 153 150 153 138 149 c 128,-1,92
 126 145 126 145 112 140 c 0,93,94
 106 137 106 137 98 134.5 c 128,-1,95
 90 132 90 132 84 130 c 2,96,-1
 82 129 l 2,97,98
 80 129 80 129 74 136 c 0,99,100
 70 139 70 139 69 141 c 128,-1,101
 68 143 68 143 70 144 c 128,-1,102
 72 145 72 145 75 145 c 128,-1,103
 78 145 78 145 82 146 c 1,104,-1
 82 146 l 1,105,106
 96 148 96 148 107 150.5 c 128,-1,107
 118 153 118 153 128 156 c 1,108,-1
 126 155 l 1,109,110
 142 160 142 160 154 163 c 0,111,112
 164 166 164 166 170 168 c 0,113,114
 174 169 174 169 178 171 c 128,-1,115
 182 173 182 173 186 175 c 0,116,117
 186 176 186 176 187 176.5 c 128,-1,118
 188 177 188 177 190 177 c 0,119,120
 194 176 194 176 197 174.5 c 128,-1,121
 200 173 200 173 204 171 c 1,122,-1
 202 171 l 1,123,124
 208 168 208 168 210 166.5 c 128,-1,125
 212 165 212 165 212 164 c 128,-1,126
 212 163 212 163 211 161.5 c 128,-1,127
 210 160 210 160 208 158 c 0,128,129
 202 152 202 152 197 145.5 c 128,-1,130
 192 139 192 139 188 132 c 0,131,132
 184 127 184 127 182 120.5 c 128,-1,133
 180 114 180 114 178 108 c 2,134,-1
 178 107 l 1,135,136
 180 107 180 107 182 107 c 128,-1,137
 184 107 184 107 186 107 c 128,-1,138
 188 107 188 107 190 107 c 128,-1,139
 192 107 192 107 194 107 c 0,140,141
 198 107 198 107 201 107.5 c 128,-1,142
 204 108 204 108 208 108 c 2,143,144
 208 108 208 108 209 108 c 128,-1,145
 210 108 210 108 212 108 c 1,146,-1
 210 108 l 1,147,148
 212 107 212 107 215 106 c 128,-1,149
 218 105 218 105 220 103 c 256,150,151
 222 101 222 101 224 98.5 c 128,-1,152
 226 96 226 96 226 95 c 2,153,154
 226 95 226 95 226 94.5 c 128,-1,155
 226 94 226 94 226 94 c 2,156,157
 226 93 226 93 226 91.5 c 128,-1,158
 226 90 226 90 225 89 c 128,-1,159
 224 88 224 88 223 86 c 128,-1,160
 222 84 222 84 222 81 c 0,161,162
 220 78 220 78 218 70.5 c 128,-1,163
 216 63 216 63 212 52 c 0,164,165
 210 40 210 40 206 30.5 c 128,-1,166
 202 21 202 21 198 11 c 1,167,-1
 198 13 l 1,168,169
 196 7 196 7 192 2 c 128,-1,170
 188 -3 188 -3 184 -7 c 0,171,172
 182 -9 182 -9 179 -10 c 128,-1,173
 176 -11 176 -11 172 -12 c 2,174,175
 172 -12 172 -12 171 -10.5 c 128,-1,176
 170 -9 170 -9 170 -5 c 0,177,178
 168 1 168 1 166 5 c 128,-1,179
 164 9 164 9 160 13 c 0,180,181
 156 19 156 19 154 22 c 128,-1,182
 152 25 152 25 152 25 c 2,183,184
 152 26 152 26 155 25 c 128,-1,185
 158 24 158 24 164 22 c 0,33,34
EndSplineSet
Validated: 37
EndChar

StartChar: uniE912
Encoding: 59666 59666 20
Width: 236
GlyphClass: 1
Flags: W
LayerCount: 2
Fore
SplineSet
194 93 m 0,0,1
 192 95 192 95 190 96 c 128,-1,2
 188 97 188 97 185 98 c 0,3,4
 184 98 184 98 182.5 98.5 c 128,-1,5
 181 99 181 99 180 100 c 0,6,7
 177 99 177 99 174 98.5 c 128,-1,8
 171 98 171 98 169 97 c 0,9,10
 165 96 165 96 162.5 95.5 c 128,-1,11
 160 95 160 95 160 96 c 0,12,13
 163 103 163 103 166 109.5 c 128,-1,14
 169 116 169 116 173 122 c 0,15,16
 177 130 177 130 181 136.5 c 128,-1,17
 185 143 185 143 191 149 c 0,18,19
 193 150 193 150 194 151 c 128,-1,20
 195 152 195 152 195 153 c 128,-1,21
 195 154 195 154 193 156 c 128,-1,22
 191 158 191 158 188 160 c 0,23,24
 186 161 186 161 183.5 162 c 128,-1,25
 181 163 181 163 178 163 c 2,26,-1
 177 163 l 1,27,28
 177 163 177 163 177 163 c 1,29,30
 176 163 176 163 175 162.5 c 128,-1,31
 174 162 174 162 173 161 c 0,32,33
 171 160 171 160 168.5 158.5 c 128,-1,34
 166 157 166 157 163 157 c 0,35,36
 158 156 158 156 148.5 153.5 c 128,-1,37
 139 151 139 151 124 147 c 0,38,39
 113 144 113 144 99.5 142 c 128,-1,40
 86 140 86 140 72 138 c 2,41,-1
 70 138 l 1,42,43
 70 137 70 137 70 135 c 128,-1,44
 70 133 70 133 73 132 c 0,45,46
 75 130 75 130 76.5 129 c 128,-1,47
 78 128 78 128 80 128 c 2,48,-1
 81 128 l 2,49,50
 90 129 90 129 98.5 131 c 128,-1,51
 107 133 107 133 115 136 c 1,52,-1
 113 135 l 1,53,-1
 115 136 l 1,54,55
 115 136 115 136 115.5 135 c 128,-1,56
 116 134 116 134 117 133 c 0,57,58
 117 131 117 131 117 130 c 128,-1,59
 117 129 117 129 117 127 c 128,-1,60
 117 125 117 125 117 122.5 c 128,-1,61
 117 120 117 120 115 118 c 0,62,63
 113 109 113 109 110 102 c 128,-1,64
 107 95 107 95 104 88 c 1,65,-1
 104 89 l 1,66,67
 98 78 98 78 92 68 c 128,-1,68
 86 58 86 58 80 49 c 0,69,70
 74 39 74 39 66.5 31 c 128,-1,71
 59 23 59 23 51 15 c 0,72,73
 44 9 44 9 41 6 c 128,-1,74
 38 3 38 3 39 1 c 0,75,76
 40 0 40 0 44.5 2.5 c 128,-1,77
 49 5 49 5 57 11 c 0,78,79
 66 18 66 18 74 25.5 c 128,-1,80
 82 33 82 33 89 41 c 1,81,-1
 89 42 l 1,82,83
 96 51 96 51 102.5 60.5 c 128,-1,84
 109 70 109 70 114 81 c 1,85,-1
 115 82 l 2,86,87
 119 89 119 89 122.5 96.5 c 128,-1,88
 126 104 126 104 129 113 c 2,89,-1
 129 114 l 2,90,91
 130 118 130 118 131 122 c 128,-1,92
 132 126 132 126 133 130 c 2,93,-1
 133 131 l 2,94,95
 133 133 133 133 131 134.5 c 128,-1,96
 129 136 129 136 126 138 c 2,97,-1
 125 138 l 1,98,99
 135 140 135 140 142.5 142 c 128,-1,100
 150 144 150 144 155 144 c 0,101,102
 162 145 162 145 165.5 145.5 c 128,-1,103
 169 146 169 146 169 146 c 2,104,105
 170 146 170 146 168.5 140.5 c 128,-1,106
 167 135 167 135 163 125 c 0,107,108
 161 118 161 118 157.5 112 c 128,-1,109
 154 106 154 106 150 101 c 1,110,-1
 151 101 l 1,111,112
 150 100 150 100 148.5 98.5 c 128,-1,113
 147 97 147 97 146 95 c 2,114,-1
 146 94 l 1,115,116
 146 94 146 94 146 93 c 128,-1,117
 146 92 146 92 146 91 c 128,-1,118
 146 90 146 90 147 89 c 0,119,120
 148 87 148 87 149 85.5 c 128,-1,121
 150 84 150 84 152 84 c 128,-1,122
 154 84 154 84 157 85 c 128,-1,123
 160 86 160 86 162 87 c 128,-1,124
 164 88 164 88 166.5 88.5 c 128,-1,125
 169 89 169 89 171 89 c 0,126,127
 172 89 172 89 173.5 88.5 c 128,-1,128
 175 88 175 88 176 87 c 128,-1,129
 177 86 177 86 176 81.5 c 128,-1,130
 175 77 175 77 171 69 c 256,131,132
 167 61 167 61 163 53.5 c 128,-1,133
 159 46 159 46 153 39 c 0,134,135
 147 33 147 33 140.5 28 c 128,-1,136
 134 23 134 23 127 19 c 1,137,-1
 126 19 l 2,138,139
 120 16 120 16 114 13 c 128,-1,140
 108 10 108 10 102 7 c 2,141,-1
 101 7 l 1,142,143
 90 3 90 3 90 2 c 0,144,145
 91 1 91 1 95.5 1.5 c 128,-1,146
 100 2 100 2 108 4 c 0,147,148
 117 6 117 6 126 9.5 c 128,-1,149
 135 13 135 13 142 18 c 1,150,-1
 142 17 l 1,151,152
 150 21 150 21 156.5 27 c 128,-1,153
 163 33 163 33 168 39 c 2,154,-1
 169 40 l 2,155,156
 174 46 174 46 178 52.5 c 128,-1,157
 182 59 182 59 185 67 c 2,158,-1
 186 68 l 2,159,160
 188 73 188 73 190 77 c 128,-1,161
 192 81 192 81 195 85 c 1,162,-1
 195 84 l 1,163,164
 196 85 196 85 197 86 c 128,-1,165
 198 87 198 87 198 88 c 256,166,167
 198 89 198 89 196.5 90 c 128,-1,168
 195 91 195 91 194 93 c 0,0,1
EndSplineSet
Validated: 5
EndChar

StartChar: uniE913
Encoding: 59667 59667 21
Width: 289
GlyphClass: 1
Flags: W
LayerCount: 2
Fore
SplineSet
53 17 m 2,0,1
 47 13 47 13 43 11 c 128,-1,2
 39 9 39 9 39 11 c 0,3,4
 38 12 38 12 40 14.5 c 128,-1,5
 42 17 42 17 47 22 c 0,6,7
 53 28 53 28 59 34.5 c 128,-1,8
 65 41 65 41 70 49 c 0,9,10
 76 57 76 57 80.5 65.5 c 128,-1,11
 85 74 85 74 88 83 c 2,12,-1
 88 84 l 2,13,14
 91 93 91 93 92.5 98 c 128,-1,15
 94 103 94 103 93 103 c 0,16,17
 88 103 88 103 84 102 c 128,-1,18
 80 101 80 101 76 99 c 0,19,20
 72 98 72 98 68 97 c 128,-1,21
 64 96 64 96 59 95 c 0,22,23
 56 96 56 96 53 97.5 c 128,-1,24
 50 99 50 99 48 101 c 0,25,26
 44 104 44 104 43 105 c 128,-1,27
 42 106 42 106 44 107 c 0,28,29
 45 107 45 107 46.5 107 c 128,-1,30
 48 107 48 107 49 107 c 128,-1,31
 50 107 50 107 51 107 c 128,-1,32
 52 107 52 107 54 107 c 1,33,-1
 53 107 l 1,34,35
 59 107 59 107 64.5 108 c 128,-1,36
 70 109 70 109 75 110 c 1,37,-1
 74 110 l 1,38,39
 80 110 80 110 85 111.5 c 128,-1,40
 90 113 90 113 95 116 c 1,41,-1
 94 115 l 1,42,43
 95 116 95 116 96.5 117 c 128,-1,44
 98 118 98 118 100 119 c 0,45,46
 101 119 101 119 103 118 c 128,-1,47
 105 117 105 117 108 115 c 0,48,49
 112 113 112 113 113.5 111 c 128,-1,50
 115 109 115 109 115 107 c 128,-1,51
 115 105 115 105 114 104 c 128,-1,52
 113 103 113 103 111 102 c 0,53,54
 107 97 107 97 104 92 c 0,55,56
 102 85 102 85 101 79 c 0,57,58
 97 69 97 69 91.5 59.5 c 128,-1,59
 86 50 86 50 80 42 c 0,60,61
 74 35 74 35 67.5 29 c 128,-1,62
 61 23 61 23 54 18 c 2,63,-1
 53 17 l 2,0,1
134 -8 m 2,64,65
 132 -13 132 -13 129.5 -15 c 128,-1,66
 127 -17 127 -17 125 -17 c 256,67,68
 123 -17 123 -17 122.5 -15 c 128,-1,69
 122 -13 122 -13 121 -10 c 0,70,71
 120 -5 120 -5 116.5 -1 c 128,-1,72
 113 3 113 3 109 6 c 0,73,74
 103 11 103 11 100 14 c 0,75,76
 98 17 98 17 99 17 c 1,77,78
 99 18 99 18 101 17 c 128,-1,79
 103 16 103 16 106 15 c 128,-1,80
 109 14 109 14 112 13.5 c 128,-1,81
 115 13 115 13 118 12 c 0,82,83
 120 12 120 12 122 13.5 c 128,-1,84
 124 15 124 15 125 19 c 128,-1,85
 126 23 126 23 126.5 40 c 128,-1,86
 127 57 127 57 127 89 c 256,87,88
 127 121 127 121 126.5 139.5 c 128,-1,89
 126 158 126 158 125 162 c 0,90,91
 125 166 125 166 124.5 169 c 128,-1,92
 124 172 124 172 122 175 c 0,93,94
 121 177 121 177 120.5 178 c 128,-1,95
 120 179 120 179 121 180 c 128,-1,96
 122 181 122 181 124.5 181 c 128,-1,97
 127 181 127 181 130 180 c 0,98,99
 133 180 133 180 135.5 178.5 c 128,-1,100
 138 177 138 177 140 175 c 0,101,102
 140 174 140 174 140.5 173 c 128,-1,103
 141 172 141 172 141 171 c 128,-1,104
 141 170 141 170 141 169.5 c 128,-1,105
 141 169 141 169 140 168 c 0,106,107
 139 164 139 164 138.5 161 c 128,-1,108
 138 158 138 158 138 154 c 2,109,110
 138 154 138 154 138 153.5 c 128,-1,111
 138 153 138 153 138 153 c 2,112,113
 138 147 138 147 137.5 139.5 c 128,-1,114
 137 132 137 132 137 122 c 128,-1,115
 137 112 137 112 137 95 c 128,-1,116
 137 78 137 78 137 52 c 0,117,118
 137 27 137 27 136.5 12 c 128,-1,119
 136 -3 136 -3 134 -7 c 2,120,-1
 134 -8 l 2,64,65
230 45 m 1,121,122
 241 42 241 42 246 40 c 128,-1,123
 251 38 251 38 251 37 c 256,124,125
 251 36 251 36 246 35 c 128,-1,126
 241 34 241 34 231 33 c 0,127,128
 225 32 225 32 218 31.5 c 128,-1,129
 211 31 211 31 204 31 c 128,-1,130
 197 31 197 31 131 105 c 1,131,-1
 131 114 l 1,132,133
 144 100 144 100 158.5 87.5 c 128,-1,134
 173 75 173 75 189 63 c 1,135,-1
 190 63 l 1,136,137
 199 58 199 58 208.5 53 c 128,-1,138
 218 48 218 48 229 46 c 1,139,-1
 230 45 l 1,121,122
205 144 m 0,140,141
 205 141 205 141 193 128 c 0,142,143
 187 122 187 122 180 116.5 c 128,-1,144
 173 111 173 111 166 106 c 1,145,-1
 166 105 l 1,146,147
 162 102 162 102 157 99.5 c 128,-1,148
 152 97 152 97 147 94 c 0,149,150
 147 93 147 93 146 93 c 2,151,-1
 143 98 l 1,152,153
 150 104 150 104 156.5 109.5 c 128,-1,154
 163 115 163 115 168 121 c 1,155,-1
 169 121 l 1,156,157
 173 125 173 125 176.5 130 c 128,-1,158
 180 135 180 135 184 140 c 0,159,160
 186 144 186 144 186.5 147 c 128,-1,161
 187 150 187 150 186 152 c 256,162,163
 185 154 185 154 185 155.5 c 128,-1,164
 185 157 185 157 186 157 c 256,165,166
 187 157 187 157 190 156 c 128,-1,167
 193 155 193 155 197 153 c 256,168,169
 201 151 201 151 203 148 c 128,-1,170
 205 145 205 145 205 144 c 0,140,141
EndSplineSet
Validated: 5
EndChar

StartChar: uniE914
Encoding: 59668 59668 22
Width: 244
GlyphClass: 1
Flags: W
LayerCount: 2
Fore
SplineSet
106 86 m 257,0,1
 106 86 106 86 107 86 c 128,-1,2
 108 86 108 86 108 85 c 0,3,4
 102 77 102 77 96 70.5 c 128,-1,5
 90 64 90 64 84 58 c 1,6,-1
 82 58 l 1,7,8
 74 51 74 51 67 44 c 128,-1,9
 60 37 60 37 54 29 c 1,10,-1
 52 29 l 1,11,12
 52 24 52 24 51 24 c 128,-1,13
 50 24 50 24 48 26 c 128,-1,14
 46 28 46 28 42 31 c 0,15,16
 40 34 40 34 39 37 c 128,-1,17
 38 40 38 40 38 43 c 0,18,19
 38 44 38 44 39 45.5 c 128,-1,20
 40 47 40 47 42 48 c 0,21,22
 52 50 52 50 59 53.5 c 128,-1,23
 66 57 66 57 74 63 c 1,24,-1
 72 63 l 1,25,26
 88 75 88 75 97 80.5 c 128,-1,27
 106 86 106 86 106 86 c 257,0,1
64 132 m 1,28,-1
 76 130 l 2,29,30
 82 129 82 129 86 126 c 128,-1,31
 90 123 90 123 92 120 c 0,32,33
 94 118 94 118 95 115 c 128,-1,34
 96 112 96 112 96 108 c 0,35,36
 96 105 96 105 95 103.5 c 128,-1,37
 94 102 94 102 92 102 c 0,38,39
 86 102 86 102 81 107 c 128,-1,40
 76 112 76 112 70 121 c 0,41,42
 68 123 68 123 66 126 c 128,-1,43
 64 129 64 129 62 132 c 1,44,-1
 64 132 l 1,28,-1
112 180 m 1,45,46
 116 180 116 180 119 178.5 c 128,-1,47
 122 177 122 177 126 176 c 0,48,49
 130 174 130 174 132 171 c 128,-1,50
 134 168 134 168 134 166 c 0,51,52
 134 165 134 165 134 164 c 0,53,54
 134 161 134 161 132 159 c 0,55,56
 132 154 132 154 131 149 c 128,-1,57
 130 144 130 144 130 139 c 0,58,59
 130 138 130 138 130 137.5 c 128,-1,60
 130 137 130 137 130 136 c 1,61,-1
 130 137 l 1,62,63
 130 96 130 96 130 71 c 128,-1,64
 130 46 130 46 132 39 c 0,65,66
 132 30 132 30 132 24 c 128,-1,67
 132 18 132 18 132 15 c 0,68,69
 132 9 132 9 131 4 c 128,-1,70
 130 -1 130 -1 130 -7 c 1,71,-1
 130 -6 l 1,72,73
 128 -11 128 -11 125 -13 c 128,-1,74
 122 -15 122 -15 120 -15 c 256,75,76
 118 -15 118 -15 117 -14 c 128,-1,77
 116 -13 116 -13 114 -11 c 0,78,79
 110 -4 110 -4 104 2 c 128,-1,80
 98 8 98 8 92 13 c 1,81,-1
 92 14 l 2,82,83
 92 15 92 15 91 15.5 c 128,-1,84
 90 16 90 16 90 17 c 2,85,-1
 90 18 l 1,86,87
 90 18 90 18 90 18 c 1,88,89
 94 17 94 17 98 15.5 c 128,-1,90
 102 14 102 14 104 12 c 0,91,92
 110 11 110 11 112 9.5 c 128,-1,93
 114 8 114 8 114 8 c 2,94,95
 116 8 116 8 117 10.5 c 128,-1,96
 118 13 118 13 118 17 c 2,97,-1
 118 149 l 1,98,99
 118 149 118 149 118 149.5 c 128,-1,100
 118 150 118 150 118 151 c 0,101,102
 118 157 118 157 117 162.5 c 128,-1,103
 116 168 116 168 112 172 c 0,104,105
 112 173 112 173 111 174 c 128,-1,106
 110 175 110 175 110 176 c 1,107,-1
 110 176 l 1,108,109
 110 177 110 177 111 178 c 128,-1,110
 112 179 112 179 112 179 c 1,111,-1
 112 180 l 1,45,46
136 85 m 2,112,113
 142 84 142 84 147 83 c 128,-1,114
 152 82 152 82 158 80 c 1,115,-1
 158 80 l 1,116,117
 168 76 168 76 176 70.5 c 128,-1,118
 184 65 184 65 190 59 c 0,119,120
 198 52 198 52 201 43.5 c 128,-1,121
 204 35 204 35 206 25 c 0,122,123
 206 24 206 24 205 23 c 128,-1,124
 204 22 204 22 204 22 c 1,125,126
 198 22 198 22 182 40 c 0,127,128
 174 50 174 50 166 58.5 c 128,-1,129
 158 67 158 67 148 75 c 0,130,131
 144 77 144 77 141 80 c 128,-1,132
 138 83 138 83 136 85 c 2,133,-1
 134 85 l 1,134,-1
 136 85 l 2,112,113
170 140 m 0,135,136
 174 139 174 139 177 138 c 128,-1,137
 180 137 180 137 182 136 c 1,138,-1
 182 137 l 1,139,140
 188 135 188 135 190 133 c 128,-1,141
 192 131 192 131 192 128 c 0,142,143
 188 122 188 122 182 117.5 c 128,-1,144
 176 113 176 113 170 108 c 1,145,-1
 168 108 l 1,146,147
 162 103 162 103 156 98.5 c 128,-1,148
 150 94 150 94 144 91 c 1,149,-1
 144 90 l 1,150,151
 142 90 142 90 141 90 c 128,-1,152
 140 90 140 90 140 91 c 128,-1,153
 140 92 140 92 141 93 c 128,-1,154
 142 94 142 94 144 96 c 0,155,156
 148 100 148 100 151 104.5 c 128,-1,157
 154 109 154 109 158 114 c 128,-1,158
 162 119 162 119 164 125 c 128,-1,159
 166 131 166 131 166 137 c 0,160,161
 166 140 166 140 170 140 c 0,135,136
EndSplineSet
Validated: 5
EndChar

StartChar: uniE915
Encoding: 59669 59669 23
Width: 184
GlyphClass: 1
Flags: W
LayerCount: 2
Fore
SplineSet
66 71 m 0,0,1
 62 69 62 69 58 68 c 128,-1,2
 54 67 54 67 48 65 c 1,3,-1
 48 65 l 1,4,5
 46 65 46 65 46 64.5 c 128,-1,6
 46 64 46 64 44 64 c 2,7,8
 44 64 44 64 43 64 c 128,-1,9
 42 64 42 64 42 65 c 1,10,11
 40 65 40 65 39 65 c 128,-1,12
 38 65 38 65 38 65 c 257,13,14
 38 65 38 65 38 63 c 128,-1,15
 38 61 38 61 40 59 c 256,16,17
 42 57 42 57 44 55.5 c 128,-1,18
 46 54 46 54 48 53 c 0,19,20
 50 53 50 53 55 55.5 c 128,-1,21
 60 58 60 58 68 64 c 256,22,23
 76 70 76 70 79 73 c 128,-1,24
 82 76 82 76 82 77 c 1,25,26
 82 77 82 77 78 76 c 128,-1,27
 74 75 74 75 66 71 c 0,0,1
58 85 m 0,28,29
 62 81 62 81 64 79.5 c 128,-1,30
 66 78 66 78 67 79 c 128,-1,31
 68 80 68 80 69 81.5 c 128,-1,32
 70 83 70 83 70 84 c 2,33,34
 70 84 70 84 70 84.5 c 128,-1,35
 70 85 70 85 70 85 c 1,36,-1
 70 86 l 1,37,38
 70 86 70 86 70 86 c 1,39,40
 70 88 70 88 68 90 c 128,-1,41
 66 92 66 92 64 93 c 128,-1,42
 62 94 62 94 60 94.5 c 128,-1,43
 58 95 58 95 54 95 c 256,44,45
 50 95 50 95 49 95 c 128,-1,46
 48 95 48 95 48 93 c 0,47,48
 48 92 48 92 50 90 c 128,-1,49
 52 88 52 88 58 85 c 0,28,29
86 111 m 1,50,-1
 86 110 l 1,51,52
 86 110 86 110 86 109 c 0,53,54
 86 96 86 96 87 83.5 c 128,-1,55
 88 71 88 71 92 59 c 1,56,-1
 90 61 l 1,57,58
 92 60 92 60 93 59 c 128,-1,59
 94 58 94 58 95 58 c 128,-1,60
 96 58 96 58 96 60.5 c 128,-1,61
 96 63 96 63 96 68 c 256,62,63
 96 73 96 73 96 77.5 c 128,-1,64
 96 82 96 82 96 87 c 2,65,66
 96 87 96 87 96 87.5 c 128,-1,67
 96 88 96 88 96 88 c 2,68,69
 96 92 96 92 97 95.5 c 128,-1,70
 98 99 98 99 99 102 c 128,-1,71
 100 105 100 105 96 107.5 c 128,-1,72
 92 110 92 110 86 111 c 1,50,-1
134 90 m 1,73,74
 138 92 138 92 141 94 c 128,-1,75
 144 96 144 96 144 98 c 256,76,77
 144 100 144 100 142 101.5 c 128,-1,78
 140 103 140 103 137 104 c 128,-1,79
 134 105 134 105 132 105.5 c 128,-1,80
 130 106 130 106 129 106 c 128,-1,81
 128 106 128 106 128 105 c 128,-1,82
 128 104 128 104 129 103 c 128,-1,83
 130 102 130 102 130 100.5 c 128,-1,84
 130 99 130 99 128 97 c 0,85,86
 124 95 124 95 121 93 c 128,-1,87
 118 91 118 91 114 90 c 0,88,89
 110 88 110 88 108 86 c 128,-1,90
 106 84 106 84 106 84 c 2,91,92
 106 83 106 83 108 83 c 128,-1,93
 110 83 110 83 116 85 c 0,94,95
 122 86 122 86 126 87.5 c 128,-1,96
 130 89 130 89 136 91 c 1,97,-1
 134 90 l 1,73,74
145 65 m 128,-1,99
 144 67 144 67 142 69 c 128,-1,100
 140 71 140 71 138 72 c 0,101,102
 134 73 134 73 130 74 c 128,-1,103
 126 75 126 75 122 75 c 1,104,105
 122 75 122 75 122 75 c 129,-1,106
 122 75 122 75 120 75 c 0,107,108
 114 75 114 75 112 74.5 c 128,-1,109
 110 74 110 74 110 73 c 0,110,111
 114 70 114 70 118 68 c 128,-1,112
 122 66 122 66 126 65 c 0,113,114
 134 61 134 61 139 59.5 c 128,-1,115
 144 58 144 58 144 59 c 1,116,117
 146 59 146 59 146 61 c 128,-1,98
 146 63 146 63 145 65 c 128,-1,99
EndSplineSet
Validated: 5
EndChar

StartChar: uniE916
Encoding: 59670 59670 24
Width: 297
GlyphClass: 1
Flags: W
LayerCount: 2
Fore
SplineSet
57 38 m 0,0,1
 41 29 41 29 39 31 c 0,2,3
 38 32 38 32 40.5 34 c 128,-1,4
 43 36 43 36 47 39 c 0,5,6
 53 44 53 44 58.5 48.5 c 128,-1,7
 64 53 64 53 69 58 c 0,8,9
 75 64 75 64 80.5 70.5 c 128,-1,10
 86 77 86 77 90 84 c 1,11,-1
 90 85 l 1,12,13
 95 92 95 92 97 96.5 c 128,-1,14
 99 101 99 101 98 102 c 128,-1,15
 97 103 97 103 92.5 102.5 c 128,-1,16
 88 102 88 102 79 101 c 0,17,18
 75 100 75 100 70.5 99 c 128,-1,19
 66 98 66 98 61 97 c 2,20,-1
 60 97 l 2,21,22
 58 97 58 97 56 98 c 128,-1,23
 54 99 54 99 53 99 c 0,24,25
 51 100 51 100 48.5 102.5 c 128,-1,26
 46 105 46 105 45 107 c 1,27,-1
 45 107 l 1,28,29
 46 107 46 107 46 107 c 2,30,31
 55 107 55 107 64 108 c 128,-1,32
 73 109 73 109 82 111 c 1,33,-1
 81 110 l 1,34,35
 87 110 87 110 92.5 112 c 128,-1,36
 98 114 98 114 103 116 c 1,37,-1
 102 116 l 1,38,39
 103 117 103 117 104.5 117.5 c 128,-1,40
 106 118 106 118 107 118 c 2,41,42
 107 118 107 118 108 118 c 128,-1,43
 109 118 109 118 109 118 c 2,44,45
 111 117 111 117 113 115.5 c 128,-1,46
 115 114 115 114 116 113 c 0,47,48
 118 112 118 112 119.5 110 c 128,-1,49
 121 108 121 108 122 106 c 0,50,51
 122 105 122 105 121 104 c 128,-1,52
 120 103 120 103 118 102 c 0,53,54
 115 99 115 99 112 95.5 c 128,-1,55
 109 92 109 92 107 88 c 2,56,-1
 107 87 l 1,57,58
 103 79 103 79 97.5 73 c 128,-1,59
 92 67 92 67 87 61 c 0,60,61
 81 54 81 54 73.5 48 c 128,-1,62
 66 42 66 42 57 38 c 0,0,1
127 10 m 0,63,64
 125 15 125 15 122.5 18.5 c 128,-1,65
 120 22 120 22 116 25 c 2,66,-1
 115 25 l 1,67,68
 110 29 110 29 108 31 c 128,-1,69
 106 33 106 33 106 33 c 257,70,71
 106 33 106 33 109 33 c 128,-1,72
 112 33 112 33 118 32 c 128,-1,73
 124 31 124 31 127 30.5 c 128,-1,74
 130 30 130 30 132 32 c 0,75,76
 133 36 133 36 134 41 c 128,-1,77
 135 46 135 46 135 51 c 0,78,79
 135 53 135 53 135 55 c 128,-1,80
 135 57 135 57 135 59 c 1,81,-1
 135 58 l 1,82,-1
 135 112 l 2,83,84
 135 114 135 114 135 116.5 c 128,-1,85
 135 119 135 119 135 122 c 0,86,87
 135 128 135 128 134.5 133.5 c 128,-1,88
 134 139 134 139 132 144 c 1,89,-1
 133 144 l 1,90,91
 132 144 132 144 131 144 c 128,-1,92
 130 144 130 144 129 144 c 128,-1,93
 128 144 128 144 126.5 144 c 128,-1,94
 125 144 125 144 124 144 c 2,95,-1
 109 142 l 2,96,97
 108 142 108 142 107 141.5 c 128,-1,98
 106 141 106 141 105 141 c 0,99,100
 103 141 103 141 101.5 141.5 c 128,-1,101
 100 142 100 142 98 143 c 128,-1,102
 96 144 96 144 94.5 146 c 128,-1,103
 93 148 93 148 92 150 c 1,104,105
 93 150 93 150 93.5 150 c 128,-1,106
 94 150 94 150 94 150 c 2,107,108
 100 150 100 150 106.5 150.5 c 128,-1,109
 113 151 113 151 119 152 c 1,110,-1
 118 152 l 1,111,112
 122 152 122 152 125.5 153 c 128,-1,113
 129 154 129 154 131 157 c 0,114,115
 132 158 132 158 133.5 159 c 128,-1,116
 135 160 135 160 136 160 c 0,117,118
 138 159 138 159 140.5 158.5 c 128,-1,119
 143 158 143 158 145 156 c 1,120,-1
 145 157 l 1,121,122
 148 155 148 155 150 153 c 128,-1,123
 152 151 152 151 152 150 c 0,124,125
 152 148 152 148 151 146 c 128,-1,126
 150 144 150 144 149 142 c 128,-1,127
 148 140 148 140 147 125 c 128,-1,128
 146 110 146 110 146 83 c 0,129,130
 146 77 146 77 146.5 71 c 128,-1,131
 147 65 147 65 147 59 c 0,132,133
 147 49 147 49 146.5 38.5 c 128,-1,134
 146 28 146 28 145 18 c 1,135,-1
 145 19 l 1,136,137
 144 15 144 15 143 12 c 128,-1,138
 142 9 142 9 139 6 c 0,139,140
 137 4 137 4 135.5 3 c 128,-1,141
 134 2 134 2 133 2 c 256,142,143
 132 2 132 2 130.5 4.5 c 128,-1,144
 129 7 129 7 127 10 c 0,63,64
235 57 m 2,145,146
 242 55 242 55 248 52.5 c 128,-1,147
 254 50 254 50 259 47 c 0,148,149
 259 46 259 46 254 45.5 c 128,-1,150
 249 45 249 45 239 44 c 0,151,152
 234 44 234 44 228.5 43.5 c 128,-1,153
 223 43 223 43 218 43 c 0,154,155
 217 43 217 43 215 43 c 128,-1,156
 213 43 213 43 212 43 c 0,157,158
 208 44 208 44 204 46 c 128,-1,159
 200 48 200 48 198 52 c 0,160,161
 194 56 194 56 187 64 c 128,-1,162
 180 72 180 72 171 84 c 256,163,164
 162 96 162 96 154 105.5 c 128,-1,165
 146 115 146 115 140 123 c 1,166,-1
 142 129 l 1,167,168
 154 116 154 116 166 104.5 c 128,-1,169
 178 93 178 93 191 82 c 2,170,-1
 192 81 l 2,171,172
 201 74 201 74 211.5 68 c 128,-1,173
 222 62 222 62 234 58 c 1,174,-1
 235 57 l 2,145,146
158 106 m 1,175,-1
 154 110 l 1,176,177
 160 116 160 116 166 121.5 c 128,-1,178
 172 127 172 127 178 133 c 0,179,180
 182 137 182 137 185 141 c 128,-1,181
 188 145 188 145 192 150 c 0,182,183
 193 151 193 151 193.5 152.5 c 128,-1,184
 194 154 194 154 194 155 c 128,-1,185
 194 156 194 156 193.5 156.5 c 128,-1,186
 193 157 193 157 193 158 c 0,187,188
 192 160 192 160 192.5 161 c 128,-1,189
 193 162 193 162 194 162 c 0,190,191
 196 162 196 162 198.5 161 c 128,-1,192
 201 160 201 160 205 157 c 128,-1,193
 209 154 209 154 210.5 151 c 128,-1,194
 212 148 212 148 212 146 c 128,-1,195
 212 144 212 144 208.5 140.5 c 128,-1,196
 205 137 205 137 197 132 c 0,197,198
 190 127 190 127 180 120.5 c 128,-1,199
 170 114 170 114 158 106 c 1,175,-1
EndSplineSet
Validated: 37
EndChar

StartChar: uniE917
Encoding: 59671 59671 25
Width: 223
GlyphClass: 1
Flags: W
LayerCount: 2
Fore
SplineSet
112 180 m 1,0,1
 112 181 112 181 114 182 c 128,-1,2
 116 183 116 183 118 183 c 0,3,4
 122 182 122 182 125 180.5 c 128,-1,5
 128 179 128 179 130 177 c 0,6,7
 134 174 134 174 136 171.5 c 128,-1,8
 138 169 138 169 138 168 c 256,9,10
 138 167 138 167 137 166 c 128,-1,11
 136 165 136 165 134 164 c 128,-1,12
 132 163 132 163 130 158.5 c 128,-1,13
 128 154 128 154 126 146 c 256,14,15
 124 138 124 138 122 129.5 c 128,-1,16
 120 121 120 121 118 112 c 256,17,18
 116 103 116 103 115 96 c 128,-1,19
 114 89 114 89 114 84 c 1,20,-1
 104 84 l 1,21,22
 104 94 104 94 106 105 c 128,-1,23
 108 116 108 116 110 127 c 0,24,25
 112 134 112 134 112 141.5 c 128,-1,26
 112 149 112 149 112 158 c 0,27,28
 112 162 112 162 112 164 c 128,-1,29
 112 166 112 166 112 166 c 1,30,31
 110 166 110 166 109 166.5 c 128,-1,32
 108 167 108 167 106 167 c 2,33,34
 106 167 106 167 104 166.5 c 128,-1,35
 102 166 102 166 102 166 c 2,36,37
 96 165 96 165 90 164 c 128,-1,38
 84 163 84 163 80 162 c 1,39,-1
 82 162 l 1,40,41
 76 161 76 161 71 160 c 128,-1,42
 66 159 66 159 60 158 c 2,43,44
 60 158 60 158 59 157.5 c 128,-1,45
 58 157 58 157 56 157 c 256,46,47
 54 157 54 157 51 158 c 128,-1,48
 48 159 48 159 46 161 c 0,49,50
 42 163 42 163 40 164.5 c 128,-1,51
 38 166 38 166 38 167 c 256,52,53
 38 168 38 168 41 168.5 c 128,-1,54
 44 169 44 169 50 169 c 0,55,56
 56 170 56 170 65 171 c 128,-1,57
 74 172 74 172 86 174 c 0,58,59
 92 174 92 174 99 175.5 c 128,-1,60
 106 177 106 177 112 180 c 1,61,-1
 112 180 l 1,0,1
156 97 m 1,62,63
 158 98 158 98 159 98 c 128,-1,64
 160 98 160 98 162 99 c 0,65,66
 166 97 166 97 169 95 c 128,-1,67
 172 93 172 93 174 91 c 0,68,69
 180 87 180 87 182 84.5 c 128,-1,70
 184 82 184 82 184 81 c 256,71,72
 184 80 184 80 183 79 c 128,-1,73
 182 78 182 78 182 77 c 0,74,75
 178 75 178 75 178 63 c 0,76,77
 176 55 176 55 175 47.5 c 128,-1,78
 174 40 174 40 172 32 c 1,79,-1
 172 34 l 1,80,81
 170 26 170 26 168 18.5 c 128,-1,82
 166 11 166 11 162 4 c 1,83,-1
 162 5 l 1,84,85
 160 0 160 0 156 -4.5 c 128,-1,86
 152 -9 152 -9 148 -13 c 0,87,88
 144 -16 144 -16 141 -17.5 c 128,-1,89
 138 -19 138 -19 137 -19 c 128,-1,90
 136 -19 136 -19 135 -17 c 128,-1,91
 134 -15 134 -15 134 -12 c 0,92,93
 132 -7 132 -7 130 -3 c 128,-1,94
 128 1 128 1 124 4 c 0,95,96
 120 9 120 9 118 12 c 128,-1,97
 116 15 116 15 116 16 c 256,98,99
 116 17 116 17 118 16.5 c 128,-1,100
 120 16 120 16 126 14 c 0,101,102
 130 13 130 13 134 12 c 128,-1,103
 138 11 138 11 140 11 c 2,104,-1
 142 11 l 2,105,106
 144 11 144 11 146 13 c 128,-1,107
 148 15 148 15 150 19 c 0,108,109
 154 24 154 24 156 29.5 c 128,-1,110
 158 35 158 35 159 41 c 128,-1,111
 160 47 160 47 160 53.5 c 128,-1,112
 160 60 160 60 160 67 c 2,113,114
 160 67 160 67 160 67.5 c 128,-1,115
 160 68 160 68 160 68 c 2,116,117
 160 69 160 69 160 69.5 c 128,-1,118
 160 70 160 70 160 71 c 0,119,120
 160 74 160 74 160 77 c 128,-1,121
 160 80 160 80 158 82 c 0,122,123
 158 83 158 83 155 83.5 c 128,-1,124
 152 84 152 84 146 84 c 0,125,126
 136 84 136 84 126 83 c 128,-1,127
 116 82 116 82 106 81 c 1,128,-1
 108 81 l 1,129,130
 98 80 98 80 89 78 c 128,-1,131
 80 76 80 76 70 73 c 1,132,-1
 72 74 l 1,133,134
 68 73 68 73 64 70.5 c 128,-1,135
 60 68 60 68 56 66 c 0,136,137
 54 64 54 64 53 63 c 128,-1,138
 52 62 52 62 50 62 c 256,139,140
 48 62 48 62 47 64 c 128,-1,141
 46 66 46 66 44 69 c 0,142,143
 44 71 44 71 43 73 c 128,-1,144
 42 75 42 75 42 77 c 0,145,146
 42 78 42 78 43 79.5 c 128,-1,147
 44 81 44 81 48 83 c 0,148,149
 50 85 50 85 52 92.5 c 128,-1,150
 54 100 54 100 54 113 c 128,-1,151
 54 126 54 126 53 132 c 128,-1,152
 52 138 52 138 52 140 c 0,153,154
 50 141 50 141 50 142 c 128,-1,155
 50 143 50 143 50 144 c 256,156,157
 50 145 50 145 52 145 c 128,-1,158
 54 145 54 145 58 144 c 0,159,160
 60 143 60 143 63 142 c 128,-1,161
 66 141 66 141 68 140 c 0,162,163
 68 139 68 139 70 138 c 128,-1,164
 72 137 72 137 72 135 c 2,165,-1
 72 134 l 1,166,167
 72 134 72 134 72 134 c 1,168,169
 72 132 72 132 71 130 c 128,-1,170
 70 128 70 128 70 127 c 0,171,172
 68 122 68 122 66 116 c 128,-1,173
 64 110 64 110 64 104 c 2,174,-1
 64 103 l 2,175,176
 62 100 62 100 62 96.5 c 128,-1,177
 62 93 62 93 62 89 c 0,178,179
 62 87 62 87 62 86 c 128,-1,180
 62 85 62 85 62 83 c 1,181,182
 64 83 64 83 64 83 c 129,-1,183
 64 83 64 83 64 83 c 1,184,185
 66 83 66 83 66 83 c 129,-1,186
 66 83 66 83 68 83 c 0,187,188
 70 84 70 84 74 84.5 c 128,-1,189
 78 85 78 85 84 86 c 128,-1,190
 90 87 90 87 100 88.5 c 128,-1,191
 110 90 110 90 124 91 c 0,192,193
 134 91 134 91 142 93 c 128,-1,194
 150 95 150 95 158 97 c 1,195,-1
 156 97 l 1,62,63
EndSplineSet
Validated: 5
EndChar

StartChar: uniE918
Encoding: 59672 59672 26
Width: 160
GlyphClass: 1
Flags: W
LayerCount: 2
Fore
SplineSet
114 90 m 1,0,1
 118 85 118 85 120 79.5 c 128,-1,2
 122 74 122 74 122 67 c 0,3,4
 122 65 122 65 121 62.5 c 128,-1,5
 120 60 120 60 120 58 c 0,6,7
 118 50 118 50 115 48.5 c 128,-1,8
 112 47 112 47 106 52 c 256,9,10
 100 57 100 57 94 61 c 128,-1,11
 88 65 88 65 82 68 c 2,12,-1
 80 68 l 2,13,14
 74 70 74 70 76 71 c 128,-1,15
 78 72 78 72 88 71 c 0,16,17
 100 70 100 70 103 73.5 c 128,-1,18
 106 77 106 77 100 86 c 0,19,20
 96 93 96 93 92 98 c 128,-1,21
 88 103 88 103 82 108 c 0,22,23
 78 111 78 111 77 113.5 c 128,-1,24
 76 116 76 116 76 117 c 0,25,26
 78 122 78 122 81 127 c 128,-1,27
 84 132 84 132 86 138 c 0,28,29
 90 147 90 147 90 151.5 c 128,-1,30
 90 156 90 156 86 155 c 2,31,-1
 56 148 l 1,32,-1
 56 71 l 2,33,34
 56 55 56 55 56 39 c 128,-1,35
 56 23 56 23 56 8 c 256,36,37
 56 -7 56 -7 54 -14.5 c 128,-1,38
 52 -22 52 -22 49 -22 c 128,-1,39
 46 -22 46 -22 45 -11.5 c 128,-1,40
 44 -1 44 -1 44 20 c 2,41,-1
 44 102 l 2,42,43
 44 104 44 104 44 107 c 128,-1,44
 44 110 44 110 44 113 c 0,45,46
 44 123 44 123 43 132.5 c 128,-1,47
 42 142 42 142 40 151 c 1,48,-1
 40 150 l 1,49,50
 38 154 38 154 38 156.5 c 128,-1,51
 38 159 38 159 42 158 c 0,52,53
 44 158 44 158 47 157.5 c 128,-1,54
 50 157 50 157 52 156 c 1,55,-1
 52 156 l 1,56,57
 52 156 52 156 54 155.5 c 128,-1,58
 56 155 56 155 58 155 c 0,59,60
 62 155 62 155 66 156 c 128,-1,61
 70 157 70 157 74 159 c 1,62,-1
 74 159 l 1,63,64
 80 161 80 161 84 163.5 c 128,-1,65
 88 166 88 166 92 169 c 0,66,67
 94 170 94 170 96 170.5 c 128,-1,68
 98 171 98 171 100 171 c 2,69,70
 100 171 100 171 101 171 c 128,-1,71
 102 171 102 171 102 171 c 2,72,73
 106 170 106 170 110 168 c 128,-1,74
 114 166 114 166 116 164 c 0,75,76
 120 162 120 162 120 160 c 128,-1,77
 120 158 120 158 116 156 c 0,78,79
 106 148 106 148 98 138.5 c 128,-1,80
 90 129 90 129 84 119 c 1,81,-1
 84 118 l 1,82,83
 92 113 92 113 100 106 c 128,-1,84
 108 99 108 99 114 90 c 1,85,-1
 114 90 l 1,0,1
EndSplineSet
Validated: 37
EndChar

StartChar: uniE919
Encoding: 59673 59673 27
Width: 217
GlyphClass: 1
Flags: W
LayerCount: 2
Fore
SplineSet
48 137 m 0,0,1
 62 137 62 137 75 139 c 128,-1,2
 88 141 88 141 100 143 c 1,3,-1
 98 143 l 1,4,5
 110 145 110 145 121 147 c 128,-1,6
 132 149 132 149 142 152 c 1,7,-1
 140 152 l 1,8,9
 144 153 144 153 147 154 c 128,-1,10
 150 155 150 155 154 155 c 0,11,12
 158 154 158 154 161 152.5 c 128,-1,13
 164 151 164 151 168 149 c 0,14,15
 174 146 174 146 176 143 c 128,-1,16
 178 140 178 140 178 138 c 128,-1,17
 178 136 178 136 177 134.5 c 128,-1,18
 176 133 176 133 174 131 c 0,19,20
 170 125 170 125 168 118 c 128,-1,21
 166 111 166 111 166 104 c 2,22,23
 166 104 166 104 166 103.5 c 128,-1,24
 166 103 166 103 166 102 c 0,25,26
 166 90 166 90 164 80 c 128,-1,27
 162 70 162 70 162 60 c 0,28,29
 160 52 160 52 158 45.5 c 128,-1,30
 156 39 156 39 154 32 c 1,31,-1
 156 34 l 1,32,33
 154 28 154 28 151 23 c 128,-1,34
 148 18 148 18 144 14 c 0,35,36
 142 9 142 9 138 5.5 c 128,-1,37
 134 2 134 2 130 -1 c 0,38,39
 128 -3 128 -3 124 -4.5 c 128,-1,40
 120 -6 120 -6 118 -6 c 256,41,42
 116 -6 116 -6 114 -4.5 c 128,-1,43
 112 -3 112 -3 112 0 c 0,44,45
 112 8 112 8 109 14.5 c 128,-1,46
 106 21 106 21 100 27 c 0,47,48
 100 28 100 28 99 29 c 128,-1,49
 98 30 98 30 98 32 c 1,50,-1
 98 32 l 1,51,52
 98 33 98 33 100 33 c 256,53,54
 102 33 102 33 103 32.5 c 128,-1,55
 104 32 104 32 106 31 c 0,56,57
 110 29 110 29 114 27 c 128,-1,58
 118 25 118 25 124 24 c 1,59,-1
 124 24 l 1,60,61
 128 24 128 24 130 25.5 c 128,-1,62
 132 27 132 27 134 30 c 0,63,64
 136 34 136 34 139 39 c 128,-1,65
 142 44 142 44 142 49 c 2,66,-1
 142 50 l 2,67,68
 144 58 144 58 147 66.5 c 128,-1,69
 150 75 150 75 150 84 c 2,70,-1
 150 86 l 2,71,72
 152 94 152 94 153 102.5 c 128,-1,73
 154 111 154 111 154 120 c 1,74,-1
 154 120 l 1,75,76
 154 121 154 121 154 122 c 128,-1,77
 154 123 154 123 154 123 c 2,78,79
 154 127 154 127 153 130.5 c 128,-1,80
 152 134 152 134 152 136 c 0,81,82
 150 137 150 137 148 138.5 c 128,-1,83
 146 140 146 140 144 140 c 2,84,85
 144 140 144 140 143 140 c 128,-1,86
 142 140 142 140 142 140 c 2,87,88
 122 139 122 139 104 136 c 0,89,90
 88 132 88 132 70 127 c 1,91,-1
 72 128 l 1,92,93
 68 127 68 127 64 126 c 128,-1,94
 60 125 60 125 56 125 c 0,95,96
 54 125 54 125 51 126 c 128,-1,97
 48 127 48 127 44 129 c 1,98,-1
 46 129 l 1,99,100
 42 131 42 131 40 132.5 c 128,-1,101
 38 134 38 134 38 135 c 128,-1,102
 38 136 38 136 41 136.5 c 128,-1,103
 44 137 44 137 48 137 c 0,0,1
EndSplineSet
Validated: 5
EndChar

StartChar: uniE91A
Encoding: 59674 59674 28
Width: 264
GlyphClass: 1
Flags: W
LayerCount: 2
Fore
SplineSet
148 156 m 0,0,1
 150 154 150 154 149.5 151.5 c 128,-1,2
 149 149 149 149 145 146 c 128,-1,3
 141 143 141 143 139 133.5 c 128,-1,4
 137 124 137 124 138 108 c 0,5,6
 138 93 138 93 141 79 c 128,-1,7
 144 65 144 65 150 52 c 1,8,-1
 149 53 l 1,9,10
 153 43 153 43 159 34.5 c 128,-1,11
 165 26 165 26 172 18 c 0,12,13
 177 13 177 13 183 9.5 c 128,-1,14
 189 6 189 6 196 3 c 2,15,-1
 197 3 l 2,16,17
 203 1 203 1 209 -1.5 c 128,-1,18
 215 -4 215 -4 221 -6 c 128,-1,19
 227 -8 227 -8 225.5 -9.5 c 128,-1,20
 224 -11 224 -11 215 -13 c 0,21,22
 209 -14 209 -14 202.5 -14.5 c 128,-1,23
 196 -15 196 -15 189 -15 c 0,24,25
 187 -15 187 -15 185.5 -15 c 128,-1,26
 184 -15 184 -15 181 -15 c 1,27,-1
 182 -15 l 1,28,29
 182 -15 182 -15 181.5 -15 c 128,-1,30
 181 -15 181 -15 181 -15 c 2,31,32
 175 -15 175 -15 170 -12.5 c 128,-1,33
 165 -10 165 -10 162 -5 c 0,34,35
 158 0 158 0 154.5 5.5 c 128,-1,36
 151 11 151 11 148 17 c 2,37,-1
 147 18 l 2,38,39
 142 27 142 27 139 37 c 128,-1,40
 136 47 136 47 133 58 c 2,41,-1
 133 59 l 2,42,43
 130 71 130 71 128 84 c 128,-1,44
 126 97 126 97 126 110 c 2,45,-1
 126 111 l 2,46,47
 126 124 126 124 126 132 c 128,-1,48
 126 140 126 140 126 143 c 256,49,50
 126 146 126 146 125.5 147.5 c 128,-1,51
 125 149 125 149 123 149 c 2,52,-1
 96 142 l 2,53,54
 87 140 87 140 79 137.5 c 128,-1,55
 71 135 71 135 63 132 c 1,56,-1
 65 132 l 1,57,58
 64 131 64 131 62 131 c 128,-1,59
 60 131 60 131 59 131 c 0,60,61
 55 131 55 131 51.5 132.5 c 128,-1,62
 48 134 48 134 45 137 c 0,63,64
 39 141 39 141 39 143 c 128,-1,65
 39 145 39 145 46 145 c 0,66,67
 55 145 55 145 63.5 146 c 128,-1,68
 72 147 72 147 80 149 c 1,69,-1
 78 148 l 1,70,71
 87 149 87 149 95.5 151 c 128,-1,72
 104 153 104 153 112 156 c 1,73,-1
 110 155 l 1,74,75
 115 156 115 156 119 158 c 128,-1,76
 123 160 123 160 127 162 c 0,77,78
 128 163 128 163 129.5 164 c 128,-1,79
 131 165 131 165 133 165 c 0,80,81
 134 165 134 165 135 164.5 c 128,-1,82
 136 164 136 164 137 164 c 0,83,84
 140 163 140 163 142.5 160.5 c 128,-1,85
 145 158 145 158 148 156 c 0,0,1
EndSplineSet
Validated: 37
EndChar

StartChar: uniE91B
Encoding: 59675 59675 29
Width: 189
GlyphClass: 1
Flags: W
LayerCount: 2
Fore
SplineSet
112 -8 m 0,0,1
 107 -13 107 -13 104 -15.5 c 128,-1,2
 101 -18 101 -18 99 -18 c 128,-1,3
 97 -18 97 -18 96.5 -16 c 128,-1,4
 96 -14 96 -14 96 -11 c 0,5,6
 95 -6 95 -6 93 -2 c 128,-1,7
 91 2 91 2 87 5 c 0,8,9
 82 10 82 10 80 13 c 128,-1,10
 78 16 78 16 79 16 c 128,-1,11
 80 16 80 16 83 15.5 c 128,-1,12
 86 15 86 15 91 13 c 0,13,14
 94 11 94 11 97 10 c 128,-1,15
 100 9 100 9 104 9 c 0,16,17
 106 9 106 9 108 13 c 128,-1,18
 110 17 110 17 113 25 c 128,-1,19
 116 33 116 33 119 42.5 c 128,-1,20
 122 52 122 52 123 62 c 2,21,-1
 124 64 l 2,22,23
 126 70 126 70 127 77.5 c 128,-1,24
 128 85 128 85 129 92 c 2,25,-1
 129 93 l 1,26,27
 129 93 129 93 129 93.5 c 128,-1,28
 129 94 129 94 129 94 c 2,29,30
 129 96 129 96 128 97.5 c 128,-1,31
 127 99 127 99 126 100 c 128,-1,32
 125 101 125 101 119 101 c 128,-1,33
 113 101 113 101 103 99 c 0,34,35
 92 97 92 97 83 95.5 c 128,-1,36
 74 94 74 94 67 92 c 0,37,38
 62 91 62 91 58 89.5 c 128,-1,39
 54 88 54 88 50 86 c 0,40,41
 49 85 49 85 47.5 84 c 128,-1,42
 46 83 46 83 45 83 c 128,-1,43
 44 83 44 83 42.5 84.5 c 128,-1,44
 41 86 41 86 40 88 c 128,-1,45
 39 90 39 90 38.5 92 c 128,-1,46
 38 94 38 94 39 94 c 0,47,48
 41 95 41 95 43 96.5 c 128,-1,49
 45 98 45 98 47 99 c 0,50,51
 53 103 53 103 58 108 c 128,-1,52
 63 113 63 113 68 118 c 1,53,-1
 68 119 l 1,54,55
 75 127 75 127 79.5 132.5 c 128,-1,56
 84 138 84 138 87 142 c 128,-1,57
 90 146 90 146 91 148 c 128,-1,58
 92 150 92 150 91 151 c 256,59,60
 90 152 90 152 85.5 151.5 c 128,-1,61
 81 151 81 151 72 149 c 0,62,63
 68 148 68 148 64 147 c 128,-1,64
 60 146 60 146 56 146 c 0,65,66
 54 146 54 146 52 146 c 128,-1,67
 50 146 50 146 49 146 c 0,68,69
 47 147 47 147 45 149 c 128,-1,70
 43 151 43 151 42 153 c 1,71,72
 53 154 53 154 62.5 156 c 128,-1,73
 72 158 72 158 82 160 c 1,74,-1
 80 160 l 1,75,76
 85 161 85 161 88.5 162 c 128,-1,77
 92 163 92 163 96 166 c 1,78,-1
 96 165 l 1,79,80
 97 166 97 166 97.5 166.5 c 128,-1,81
 98 167 98 167 99 167 c 2,82,83
 99 167 99 167 99.5 167 c 128,-1,84
 100 167 100 167 100 167 c 2,85,86
 102 166 102 166 104.5 165 c 128,-1,87
 107 164 107 164 109 163 c 0,88,89
 112 161 112 161 113.5 159.5 c 128,-1,90
 115 158 115 158 115 157 c 128,-1,91
 115 156 115 156 114 155 c 128,-1,92
 113 154 113 154 111 152 c 0,93,94
 104 146 104 146 97.5 139.5 c 128,-1,95
 91 133 91 133 85 127 c 1,96,-1
 85 126 l 1,97,98
 74 114 74 114 69 108 c 128,-1,99
 64 102 64 102 65 102 c 128,-1,100
 66 102 66 102 67 102 c 128,-1,101
 68 102 68 102 69 102 c 0,102,103
 73 102 73 102 76 102.5 c 128,-1,104
 79 103 79 103 82 103 c 0,105,106
 90 104 90 104 96.5 105.5 c 128,-1,107
 103 107 103 107 109 108 c 0,108,109
 114 109 114 109 118 110 c 128,-1,110
 122 111 122 111 125 113 c 0,111,112
 126 114 126 114 127.5 114 c 128,-1,113
 129 114 129 114 130 114 c 0,114,115
 133 113 133 113 136 111 c 128,-1,116
 139 109 139 109 141 107 c 0,117,118
 145 104 145 104 147.5 101.5 c 128,-1,119
 150 99 150 99 150 97 c 0,120,121
 150 96 150 96 149.5 94.5 c 128,-1,122
 149 93 149 93 148 93 c 0,123,124
 145 88 145 88 143 81.5 c 128,-1,125
 141 75 141 75 140 68 c 0,126,127
 138 56 138 56 135 45 c 128,-1,128
 132 34 132 34 128 24 c 0,129,130
 126 15 126 15 121.5 6.5 c 128,-1,131
 117 -2 117 -2 112 -8 c 0,0,1
EndSplineSet
Validated: 1
EndChar

StartChar: uniE91C
Encoding: 59676 59676 30
Width: 195
GlyphClass: 1
Flags: W
LayerCount: 2
Fore
SplineSet
148 81 m 0,0,1
 146 83 146 83 143 84.5 c 128,-1,2
 140 86 140 86 136 87 c 2,3,4
 136 87 136 87 134 86.5 c 128,-1,5
 132 86 132 86 132 85 c 0,6,7
 128 83 128 83 124 82 c 128,-1,8
 120 81 120 81 114 81 c 0,9,10
 112 80 112 80 109 80 c 128,-1,11
 106 80 106 80 104 80 c 256,12,13
 102 80 102 80 100 80 c 128,-1,14
 98 80 98 80 98 80 c 2,15,16
 96 81 96 81 96 82.5 c 128,-1,17
 96 84 96 84 96 85 c 2,18,19
 96 85 96 85 96 85.5 c 128,-1,20
 96 86 96 86 96 86 c 2,21,22
 96 88 96 88 97 96 c 128,-1,23
 98 104 98 104 100 117 c 256,24,25
 102 130 102 130 104 138 c 128,-1,26
 106 146 106 146 108 147 c 0,27,28
 110 149 110 149 112 150 c 128,-1,29
 114 151 114 151 114 152 c 128,-1,30
 114 153 114 153 112 155 c 128,-1,31
 110 157 110 157 106 159 c 0,32,33
 104 161 104 161 100 162.5 c 128,-1,34
 96 164 96 164 94 164 c 1,35,-1
 94 165 l 1,36,37
 94 165 94 165 93 165 c 128,-1,38
 92 165 92 165 92 165 c 2,39,40
 90 165 90 165 89 164 c 128,-1,41
 88 163 88 163 86 162 c 0,42,43
 80 160 80 160 75 158.5 c 128,-1,44
 70 157 70 157 64 157 c 0,45,46
 56 156 56 156 49 154.5 c 128,-1,47
 42 153 42 153 38 153 c 1,48,-1
 38 147 l 1,49,50
 38 147 38 147 39 147 c 128,-1,51
 40 147 40 147 40 147 c 2,52,53
 48 147 48 147 56 147.5 c 128,-1,54
 64 148 64 148 72 149 c 1,55,-1
 72 149 l 1,56,57
 86 151 86 151 86 149 c 0,58,59
 88 148 88 148 88 143 c 128,-1,60
 88 138 88 138 88 130 c 0,61,62
 88 121 88 121 87 113 c 128,-1,63
 86 105 86 105 86 98 c 2,64,65
 86 98 86 98 86 97.5 c 128,-1,66
 86 97 86 97 86 97 c 2,67,68
 86 93 86 93 86 88.5 c 128,-1,69
 86 84 86 84 84 80 c 1,70,-1
 84 81 l 1,71,72
 82 80 82 80 82 78.5 c 128,-1,73
 82 77 82 77 82 76 c 1,74,-1
 82 76 l 1,75,76
 82 75 82 75 82 75 c 2,77,78
 82 73 82 73 82 71.5 c 128,-1,79
 82 70 82 70 82 69 c 0,80,81
 84 67 84 67 85 66 c 128,-1,82
 86 65 86 65 88 65 c 128,-1,83
 90 65 90 65 91 66 c 128,-1,84
 92 67 92 67 94 68 c 0,85,86
 98 70 98 70 103 71.5 c 128,-1,87
 108 73 108 73 114 73 c 0,88,89
 122 74 122 74 127 74 c 128,-1,90
 132 74 132 74 134 73 c 0,91,92
 134 71 134 71 135 69 c 128,-1,93
 136 67 136 67 136 64 c 2,94,95
 136 64 136 64 136 63.5 c 128,-1,96
 136 63 136 63 136 62 c 0,97,98
 136 56 136 56 135 50 c 128,-1,99
 134 44 134 44 132 38 c 1,100,-1
 134 39 l 1,101,102
 132 31 132 31 129 24 c 128,-1,103
 126 17 126 17 122 11 c 1,104,-1
 114 11 l 1,105,106
 116 7 116 7 118 3 c 128,-1,107
 120 -1 120 -1 120 -6 c 2,108,109
 120 -6 120 -6 120 -6.5 c 128,-1,110
 120 -7 120 -7 120 -7 c 2,111,112
 118 -11 118 -11 119 -12.5 c 128,-1,113
 120 -14 120 -14 122 -15 c 2,114,115
 122 -15 122 -15 125 -13 c 128,-1,116
 128 -11 128 -11 131 -7 c 128,-1,117
 134 -3 134 -3 136 1.5 c 128,-1,118
 138 6 138 6 140 12 c 0,119,120
 142 19 142 19 144 26.5 c 128,-1,121
 146 34 146 34 148 43 c 2,122,-1
 148 44 l 2,123,124
 148 50 148 50 150 56 c 128,-1,125
 152 62 152 62 154 67 c 0,126,127
 156 68 156 68 156 69 c 128,-1,128
 156 70 156 70 156 71 c 0,129,130
 156 73 156 73 154 75 c 128,-1,131
 152 77 152 77 148 81 c 0,0,1
EndSplineSet
Validated: 41
EndChar

StartChar: uniE91D
Encoding: 59677 59677 31
Width: 176
GlyphClass: 1
Flags: W
LayerCount: 2
Fore
SplineSet
130 56 m 0,0,1
 126 55 126 55 121 54 c 128,-1,2
 116 53 116 53 112 52 c 1,3,-1
 112 52 l 1,4,5
 108 51 108 51 102 50 c 128,-1,6
 96 49 96 49 90 49 c 1,7,-1
 90 49 l 1,8,9
 90 53 90 53 90 58 c 128,-1,10
 90 63 90 63 90 69 c 0,11,12
 90 71 90 71 90 73.5 c 128,-1,13
 90 76 90 76 90 78 c 0,14,15
 90 84 90 84 91 90 c 128,-1,16
 92 96 92 96 92 102 c 1,17,-1
 92 101 l 1,18,19
 94 102 94 102 94 103.5 c 128,-1,20
 94 105 94 105 94 107 c 0,21,22
 94 108 94 108 93 109.5 c 128,-1,23
 92 111 92 111 88 112 c 0,24,25
 86 113 86 113 84 114 c 128,-1,26
 82 115 82 115 80 116 c 0,27,28
 78 116 78 116 77 115 c 128,-1,29
 76 114 76 114 74 112 c 0,30,31
 74 110 74 110 65 108.5 c 128,-1,32
 56 107 56 107 38 105 c 1,33,-1
 42 96 l 1,34,35
 56 100 56 100 65 101 c 128,-1,36
 74 102 74 102 76 101 c 128,-1,37
 78 100 78 100 79 94.5 c 128,-1,38
 80 89 80 89 80 81 c 0,39,40
 80 78 80 78 80 75 c 128,-1,41
 80 72 80 72 80 68 c 0,42,43
 80 65 80 65 80 62 c 128,-1,44
 80 59 80 59 80 56 c 0,45,46
 80 54 80 54 79 52.5 c 128,-1,47
 78 51 78 51 78 49 c 2,48,49
 78 49 78 49 78 48 c 128,-1,50
 78 47 78 47 78 47 c 2,51,52
 80 45 80 45 80 43 c 128,-1,53
 80 41 80 41 82 39 c 0,54,55
 82 36 82 36 83 35 c 128,-1,56
 84 34 84 34 85 34 c 128,-1,57
 86 34 86 34 87 35 c 128,-1,58
 88 36 88 36 88 38 c 2,59,60
 88 38 88 38 88 38.5 c 128,-1,61
 88 39 88 39 88 39 c 1,62,63
 106 42 106 42 116 43 c 128,-1,64
 126 44 126 44 126 44 c 2,65,66
 130 44 130 44 133 45 c 128,-1,67
 136 46 136 46 138 46 c 1,68,-1
 138 53 l 2,69,70
 136 54 136 54 134 55 c 128,-1,71
 132 56 132 56 130 56 c 0,0,1
EndSplineSet
Validated: 37
EndChar

StartChar: uniE91E
Encoding: 59678 59678 32
Width: 124
GlyphClass: 1
Flags: W
LayerCount: 2
Fore
SplineSet
84 26 m 1,0,1
 84 18 84 18 81 10.5 c 128,-1,2
 78 3 78 3 74 -3 c 0,3,4
 71 -7 71 -7 68.5 -8.5 c 128,-1,5
 66 -10 66 -10 65 -9 c 0,6,7
 64 -9 64 -9 63 -7.5 c 128,-1,8
 62 -6 62 -6 61 -2 c 128,-1,9
 60 2 60 2 57.5 5.5 c 128,-1,10
 55 9 55 9 52 11 c 0,11,12
 48 14 48 14 46.5 16 c 128,-1,13
 45 18 45 18 45 19 c 256,14,15
 45 20 45 20 47 19.5 c 128,-1,16
 49 19 49 19 53 19 c 0,17,18
 55 18 55 18 57.5 17.5 c 128,-1,19
 60 17 60 17 63 17 c 0,20,21
 64 17 64 17 65.5 18 c 128,-1,22
 67 19 67 19 68 21 c 0,23,24
 69 26 69 26 70 31 c 128,-1,25
 71 36 71 36 72 41 c 2,26,-1
 72 42 l 2,27,28
 73 47 73 47 73 52.5 c 128,-1,29
 73 58 73 58 73 64 c 128,-1,30
 73 70 73 70 72.5 75.5 c 128,-1,31
 72 81 72 81 72 87 c 1,32,-1
 72 86 l 1,33,34
 72 98 72 98 69 108.5 c 128,-1,35
 66 119 66 119 61 128 c 0,36,37
 57 134 57 134 53 139.5 c 128,-1,38
 49 145 49 145 45 150 c 0,39,40
 41 154 41 154 39.5 156 c 128,-1,41
 38 158 38 158 39 158 c 0,42,43
 40 159 40 159 43.5 157.5 c 128,-1,44
 47 156 47 156 52 152 c 0,45,46
 58 148 58 148 63 142.5 c 128,-1,47
 68 137 68 137 72 131 c 1,48,-1
 72 130 l 1,49,50
 76 124 76 124 78.5 116.5 c 128,-1,51
 81 109 81 109 82 101 c 0,52,53
 83 94 83 94 84.5 85 c 128,-1,54
 86 76 86 76 86 67 c 0,55,56
 86 65 86 65 86 63 c 128,-1,57
 86 61 86 61 86 59 c 0,58,59
 86 50 86 50 85.5 41.5 c 128,-1,60
 85 33 85 33 84 25 c 1,61,-1
 84 26 l 1,0,1
EndSplineSet
Validated: 1
EndChar

StartChar: uniE91F
Encoding: 59679 59679 33
Width: 231
GlyphClass: 1
Flags: W
LayerCount: 2
Fore
SplineSet
186 73 m 0,0,1
 178 71 178 71 171.5 67.5 c 128,-1,2
 165 64 165 64 159 59 c 0,3,4
 151 53 151 53 148.5 53 c 128,-1,5
 146 53 146 53 149 58 c 0,6,7
 151 62 151 62 153.5 66 c 128,-1,8
 156 70 156 70 158 74 c 2,9,-1
 159 75 l 2,10,11
 160 78 160 78 159 80 c 128,-1,12
 158 82 158 82 155 83 c 0,13,14
 143 83 143 83 130.5 81.5 c 128,-1,15
 118 80 118 80 107 78 c 1,16,-1
 109 78 l 1,17,18
 95 76 95 76 82 74 c 128,-1,19
 69 72 69 72 57 69 c 1,20,-1
 61 70 l 1,21,22
 60 70 60 70 59 69.5 c 128,-1,23
 58 69 58 69 57 69 c 0,24,25
 53 69 53 69 49.5 70.5 c 128,-1,26
 46 72 46 72 43 75 c 0,27,28
 38 79 38 79 38.5 81 c 128,-1,29
 39 83 39 83 46 82 c 0,30,31
 48 82 48 82 50.5 82 c 128,-1,32
 53 82 53 82 55 82 c 0,33,34
 64 82 64 82 74 83 c 128,-1,35
 84 84 84 84 93 85 c 1,36,-1
 91 85 l 1,37,38
 108 87 108 87 120.5 88.5 c 128,-1,39
 133 90 133 90 141 91 c 0,40,41
 147 92 147 92 152 93 c 128,-1,42
 157 94 157 94 162 96 c 1,43,-1
 161 96 l 1,44,45
 162 96 162 96 163 96 c 128,-1,46
 164 96 164 96 165 96 c 0,47,48
 167 96 167 96 169.5 95.5 c 128,-1,49
 172 95 172 95 173 94 c 0,50,51
 178 92 178 92 182 89 c 128,-1,52
 186 86 186 86 189 82 c 0,53,54
 193 79 193 79 192.5 77 c 128,-1,55
 192 75 192 75 186 73 c 0,0,1
EndSplineSet
Validated: 5
EndChar

StartChar: uniE920
Encoding: 59680 59680 34
Width: 242
GlyphClass: 1
Flags: W
LayerCount: 2
Fore
SplineSet
189 20 m 0,0,1
 186 19 186 19 182 18.5 c 128,-1,2
 178 18 178 18 174 18 c 2,3,4
 174 18 174 18 173.5 18 c 128,-1,5
 173 18 173 18 173 18 c 2,6,7
 167 18 167 18 159.5 17.5 c 128,-1,8
 152 17 152 17 143 17 c 0,9,10
 134 16 134 16 122.5 14.5 c 128,-1,11
 111 13 111 13 97 12 c 2,12,-1
 60 7 l 1,13,14
 60 7 60 7 59.5 7 c 128,-1,15
 59 7 59 7 59 7 c 2,16,17
 54 7 54 7 50 8.5 c 128,-1,18
 46 10 46 10 43 13 c 0,19,20
 38 17 38 17 39 18.5 c 128,-1,21
 40 20 40 20 46 20 c 0,22,23
 50 20 50 20 53.5 20 c 128,-1,24
 57 20 57 20 61 20 c 128,-1,25
 65 20 65 20 69.5 20 c 128,-1,26
 74 20 74 20 78 20 c 1,27,-1
 77 20 l 1,28,29
 87 21 87 21 99 22 c 128,-1,30
 111 23 111 23 125 25 c 2,31,-1
 169 29 l 1,32,33
 172 54 172 54 174.5 72 c 128,-1,34
 177 90 177 90 178 100 c 128,-1,35
 179 110 179 110 179.5 116 c 128,-1,36
 180 122 180 122 178 124 c 128,-1,37
 176 126 176 126 170.5 126.5 c 128,-1,38
 165 127 165 127 156 126 c 128,-1,39
 147 125 147 125 138 124 c 128,-1,40
 129 123 129 123 120 122 c 128,-1,41
 111 121 111 121 103.5 119.5 c 128,-1,42
 96 118 96 118 89 117 c 0,43,44
 88 117 88 117 86 116.5 c 128,-1,45
 84 116 84 116 82 116 c 0,46,47
 78 116 78 116 73.5 117.5 c 128,-1,48
 69 119 69 119 66 121 c 0,49,50
 62 124 62 124 62 125.5 c 128,-1,51
 62 127 62 127 68 127 c 0,52,53
 83 127 83 127 97.5 129 c 128,-1,54
 112 131 112 131 127 133 c 1,55,-1
 124 132 l 1,56,57
 138 133 138 133 150.5 136 c 128,-1,58
 163 139 163 139 176 142 c 1,59,-1
 174 142 l 1,60,61
 175 142 175 142 176 142.5 c 128,-1,62
 177 143 177 143 179 143 c 128,-1,63
 181 143 181 143 182.5 142.5 c 128,-1,64
 184 142 184 142 186 141 c 0,65,66
 190 139 190 139 193.5 137 c 128,-1,67
 197 135 197 135 200 132 c 0,68,69
 204 130 204 130 204 127.5 c 128,-1,70
 204 125 204 125 201 122 c 0,71,72
 197 115 197 115 194.5 107.5 c 128,-1,73
 192 100 192 100 192 91 c 0,74,75
 189 78 189 78 186.5 62.5 c 128,-1,76
 184 47 184 47 181 30 c 1,77,78
 187 25 187 25 189 22.5 c 128,-1,79
 191 20 191 20 189 20 c 0,0,1
157 88 m 1,80,81
 158 88 158 88 159 88 c 128,-1,82
 160 88 160 88 161 88 c 0,83,84
 164 88 164 88 167 87 c 128,-1,85
 170 86 170 86 171 84 c 2,86,-1
 171 83 l 1,87,88
 175 80 175 80 173 78 c 128,-1,89
 171 76 171 76 164 75 c 128,-1,90
 157 74 157 74 147 73 c 128,-1,91
 137 72 137 72 124 70 c 256,92,93
 111 68 111 68 102.5 67 c 128,-1,94
 94 66 94 66 88 66 c 0,95,96
 87 66 87 66 86.5 65.5 c 128,-1,97
 86 65 86 65 85 65 c 0,98,99
 81 65 81 65 77 66.5 c 128,-1,100
 73 68 73 68 69 70 c 0,101,102
 65 73 65 73 66.5 74.5 c 128,-1,103
 68 76 68 76 74 76 c 0,104,105
 86 76 86 76 97.5 77.5 c 128,-1,106
 109 79 109 79 120 80 c 1,107,-1
 118 80 l 1,108,109
 129 81 129 81 139 83 c 128,-1,110
 149 85 149 85 159 88 c 1,111,-1
 157 87 l 1,112,-1
 157 88 l 1,80,81
EndSplineSet
Validated: 37
EndChar

StartChar: uniE921
Encoding: 59681 59681 35
Width: 282
GlyphClass: 1
Flags: W
LayerCount: 2
Fore
SplineSet
236 83 m 256,0,1
 232 85 232 85 228 86.5 c 128,-1,2
 224 88 224 88 220 88 c 0,3,4
 218 88 218 88 209 87 c 128,-1,5
 200 86 200 86 184 84 c 1,6,7
 184 88 184 88 186 90.5 c 128,-1,8
 188 93 188 93 190 96 c 0,9,10
 190 97 190 97 191 98 c 128,-1,11
 192 99 192 99 194 101 c 0,12,13
 194 102 194 102 191 103.5 c 128,-1,14
 188 105 188 105 184 108 c 0,15,16
 182 110 182 110 179 111 c 128,-1,17
 176 112 176 112 172 113 c 2,18,19
 172 113 172 113 170 112 c 128,-1,20
 168 111 168 111 168 110 c 0,21,22
 162 107 162 107 157 105.5 c 128,-1,23
 152 104 152 104 146 104 c 0,24,25
 136 103 136 103 127 101.5 c 128,-1,26
 118 100 118 100 112 99 c 256,27,28
 106 98 106 98 101 98 c 128,-1,29
 96 98 96 98 94 98 c 256,30,31
 92 98 92 98 90 97.5 c 128,-1,32
 88 97 88 97 88 96 c 256,33,34
 88 95 88 95 89 94.5 c 128,-1,35
 90 94 90 94 94 92 c 0,36,37
 96 91 96 91 98 90 c 128,-1,38
 100 89 100 89 102 89 c 256,39,40
 104 89 104 89 112 90 c 128,-1,41
 120 91 120 91 135 94 c 128,-1,42
 150 97 150 97 158 98 c 128,-1,43
 166 99 166 99 168 99 c 256,44,45
 170 99 170 99 171 98.5 c 128,-1,46
 172 98 172 98 172 97 c 0,47,48
 172 93 172 93 172 89 c 128,-1,49
 172 85 172 85 170 81 c 2,50,-1
 122 74 l 1,51,-1
 86 69 l 2,52,53
 78 68 78 68 70 67 c 128,-1,54
 62 66 62 66 56 66 c 2,55,-1
 40 64 l 2,56,57
 38 64 38 64 38 63 c 128,-1,58
 38 62 38 62 40 61 c 256,59,60
 42 60 42 60 44 59 c 128,-1,61
 46 58 46 58 48 57 c 128,-1,62
 50 56 50 56 52 55.5 c 128,-1,63
 54 55 54 55 56 55 c 2,64,-1
 58 55 l 1,65,66
 58 55 58 55 63 56 c 128,-1,67
 68 57 68 57 78 58 c 0,68,69
 86 60 86 60 100 62.5 c 128,-1,70
 114 65 114 65 134 68 c 0,71,72
 144 69 144 69 153 70.5 c 128,-1,73
 162 72 162 72 168 73 c 1,74,75
 168 69 168 69 168 65 c 128,-1,76
 168 61 168 61 166 56 c 1,77,78
 156 56 156 56 146 54.5 c 128,-1,79
 136 53 136 53 126 52 c 1,80,-1
 128 52 l 1,81,-1
 86 44 l 1,82,83
 90 40 90 40 93 38.5 c 128,-1,84
 96 37 96 37 98 37 c 128,-1,85
 100 37 100 37 106 38 c 128,-1,86
 112 39 112 39 124 40 c 0,87,88
 136 42 136 42 146 43.5 c 128,-1,89
 156 45 156 45 165 46 c 128,-1,90
 174 47 174 47 178 49 c 128,-1,91
 182 51 182 51 182 52 c 0,92,93
 180 54 180 54 179 54.5 c 128,-1,94
 178 55 178 55 176 55 c 1,95,96
 178 60 178 60 179 65 c 128,-1,97
 180 70 180 70 182 75 c 1,98,-1
 182 74 l 1,99,-1
 186 74 l 2,100,101
 192 75 192 75 198 75 c 128,-1,102
 204 75 204 75 210 75 c 256,103,104
 216 75 216 75 222 75 c 128,-1,105
 228 75 228 75 233 74 c 128,-1,106
 238 73 238 73 240 74 c 128,-1,107
 242 75 242 75 244 76 c 0,108,109
 244 77 244 77 242 79 c 128,-1,110
 240 81 240 81 236 83 c 256,0,1
EndSplineSet
Validated: 9
EndChar

StartChar: uniE922
Encoding: 59682 59682 36
Width: 246
GlyphClass: 1
Flags: W
LayerCount: 2
Fore
SplineSet
204 54 m 0,0,1
 202 56 202 56 198 57 c 128,-1,2
 194 58 194 58 192 58 c 256,3,4
 190 58 190 58 190 58 c 129,-1,5
 190 58 190 58 188 58 c 0,6,7
 180 58 180 58 171 57 c 128,-1,8
 162 56 162 56 154 55 c 1,9,-1
 156 55 l 1,10,11
 160 77 160 77 163 88.5 c 128,-1,12
 166 100 166 100 168 101 c 256,13,14
 170 102 170 102 172 103 c 128,-1,15
 174 104 174 104 174 105 c 128,-1,16
 174 106 174 106 172 108 c 128,-1,17
 170 110 170 110 166 113 c 0,18,19
 164 115 164 115 161 116.5 c 128,-1,20
 158 118 158 118 156 119 c 0,21,22
 154 119 154 119 152 118 c 128,-1,23
 150 117 150 117 148 116 c 0,24,25
 144 114 144 114 138 112.5 c 128,-1,26
 132 111 132 111 124 111 c 2,27,-1
 68 102 l 1,28,29
 70 100 70 100 74 97.5 c 128,-1,30
 78 95 78 95 80 94 c 2,31,-1
 80 93 l 1,32,33
 88 94 88 94 96 95 c 0,34,35
 104 97 104 97 112 99 c 1,36,-1
 110 98 l 1,37,38
 118 100 118 100 126 101.5 c 128,-1,39
 134 103 134 103 142 104 c 2,40,-1
 144 104 l 1,41,42
 144 104 144 104 144 104 c 129,-1,43
 144 104 144 104 144 104 c 1,44,45
 146 104 146 104 148 103.5 c 128,-1,46
 150 103 150 103 150 103 c 1,47,48
 150 90 150 90 149 77 c 128,-1,49
 148 64 148 64 144 51 c 1,50,-1
 144 53 l 1,51,-1
 128 51 l 2,52,53
 82 44 82 44 70 43 c 2,54,-1
 48 41 l 2,55,56
 44 41 44 41 41 40 c 128,-1,57
 38 39 38 39 38 38 c 256,58,59
 38 37 38 37 40 36 c 128,-1,60
 42 35 42 35 44 34 c 0,61,62
 44 33 44 33 47 32 c 128,-1,63
 50 31 50 31 50 31 c 1,64,-1
 52 31 l 1,65,66
 52 31 52 31 57 31.5 c 128,-1,67
 62 32 62 32 70 33 c 128,-1,68
 78 34 78 34 86 35.5 c 128,-1,69
 94 37 94 37 102 38 c 256,70,71
 110 39 110 39 119 40.5 c 128,-1,72
 128 42 128 42 138 44 c 0,73,74
 146 45 146 45 157 45.5 c 128,-1,75
 168 46 168 46 180 46 c 1,76,77
 180 46 180 46 180 46 c 129,-1,78
 180 46 180 46 182 46 c 1,79,-1
 180 46 l 1,80,81
 182 46 182 46 184 46 c 128,-1,82
 186 46 186 46 188 46 c 0,83,84
 194 46 194 46 198 46.5 c 128,-1,85
 202 47 202 47 208 47 c 1,86,-1
 206 47 l 1,87,88
 208 47 208 47 208 47.5 c 128,-1,89
 208 48 208 48 208 49 c 0,90,91
 208 51 208 51 204 54 c 0,0,1
94 68 m 1,92,93
 96 68 96 68 100 68.5 c 128,-1,94
 104 69 104 69 114 70 c 0,95,96
 120 71 120 71 126 72 c 128,-1,97
 132 73 132 73 138 75 c 1,98,-1
 136 74 l 1,99,100
 140 75 140 75 141 76 c 128,-1,101
 142 77 142 77 142 78 c 128,-1,102
 142 79 142 79 141 79.5 c 128,-1,103
 140 80 140 80 138 81 c 128,-1,104
 136 82 136 82 134 82 c 128,-1,105
 132 82 132 82 130 82 c 2,106,107
 130 82 130 82 129 82 c 128,-1,108
 128 82 128 82 128 82 c 2,109,110
 122 82 122 82 116 81 c 128,-1,111
 110 80 110 80 104 79 c 1,112,-1
 104 79 l 1,113,114
 96 77 96 77 91 76 c 128,-1,115
 86 75 86 75 84 75 c 2,116,117
 84 75 84 75 83 75 c 128,-1,118
 82 75 82 75 82 74 c 128,-1,119
 82 73 82 73 84 72.5 c 128,-1,120
 86 72 86 72 88 70 c 0,121,122
 90 69 90 69 91 68.5 c 128,-1,123
 92 68 92 68 94 68 c 1,124,-1
 94 68 l 1,92,93
EndSplineSet
Validated: 5
EndChar

StartChar: uniE923
Encoding: 59683 59683 37
Width: 208
GlyphClass: 1
Flags: W
LayerCount: 2
Fore
SplineSet
56 113 m 0,0,1
 56 112 56 112 56 111.5 c 128,-1,2
 56 111 56 111 56 109 c 0,3,4
 56 106 56 106 55 103.5 c 128,-1,5
 54 101 54 101 54 99 c 0,6,7
 54 93 54 93 53 87 c 128,-1,8
 52 81 52 81 52 74 c 0,9,10
 52 73 52 73 52 72.5 c 128,-1,11
 52 72 52 72 52 71 c 128,-1,12
 52 70 52 70 52 69 c 128,-1,13
 52 68 52 68 52 67 c 0,14,15
 52 62 52 62 53 57.5 c 128,-1,16
 54 53 54 53 56 49 c 0,17,18
 58 46 58 46 60 44 c 128,-1,19
 62 42 62 42 66 40 c 0,20,21
 72 38 72 38 78 37 c 128,-1,22
 84 36 84 36 90 36 c 0,23,24
 92 36 92 36 93 36 c 128,-1,25
 94 36 94 36 95 36 c 128,-1,26
 96 36 96 36 97 36 c 128,-1,27
 98 36 98 36 100 36 c 0,28,29
 106 36 106 36 114 36.5 c 128,-1,30
 122 37 122 37 130 39 c 1,31,-1
 128 38 l 1,32,33
 134 39 134 39 137 40.5 c 128,-1,34
 140 42 140 42 144 44 c 0,35,36
 146 46 146 46 148 48 c 128,-1,37
 150 50 150 50 150 53 c 0,38,39
 152 58 152 58 154 64 c 128,-1,40
 156 70 156 70 156 76 c 2,41,-1
 156 77 l 2,42,43
 158 81 158 81 158 82.5 c 128,-1,44
 158 84 158 84 160 84 c 2,45,46
 160 84 160 84 161 82 c 128,-1,47
 162 80 162 80 162 77 c 0,48,49
 162 69 162 69 164 62 c 0,50,51
 166 54 166 54 168 47 c 0,52,53
 170 46 170 46 170 44.5 c 128,-1,54
 170 43 170 43 170 41 c 0,55,56
 170 37 170 37 165 34 c 128,-1,57
 160 31 160 31 150 27 c 0,58,59
 140 24 140 24 128 22 c 128,-1,60
 116 20 116 20 104 20 c 1,61,62
 104 20 104 20 104 20.5 c 128,-1,63
 104 21 104 21 103 21 c 128,-1,64
 102 21 102 21 100 20.5 c 128,-1,65
 98 20 98 20 96 20 c 0,66,67
 84 20 84 20 74 23.5 c 128,-1,68
 64 27 64 27 54 32 c 0,69,70
 48 38 48 38 44 45.5 c 128,-1,71
 40 53 40 53 40 62 c 0,72,73
 40 63 40 63 40 63.5 c 128,-1,74
 40 64 40 64 40 65 c 1,75,-1
 40 64 l 1,76,77
 40 65 40 65 40 68.5 c 128,-1,78
 40 72 40 72 42 79 c 0,79,80
 42 85 42 85 42 90.5 c 128,-1,81
 42 96 42 96 42 102 c 2,82,83
 42 102 42 102 42 102.5 c 128,-1,84
 42 103 42 103 42 103 c 2,85,86
 42 107 42 107 42 110 c 128,-1,87
 42 113 42 113 40 116 c 0,88,89
 40 117 40 117 39 118.5 c 128,-1,90
 38 120 38 120 38 122 c 0,91,92
 38 123 38 123 39 123 c 128,-1,93
 40 123 40 123 42 123 c 256,94,95
 44 123 44 123 47 122 c 128,-1,96
 50 121 50 121 52 120 c 0,97,98
 60 120 60 120 67 120.5 c 128,-1,99
 74 121 74 121 82 122 c 1,100,-1
 82 122 l 1,101,102
 88 123 88 123 92 124 c 128,-1,103
 96 125 96 125 102 127 c 0,104,105
 104 128 104 128 106 128.5 c 128,-1,106
 108 129 108 129 110 129 c 0,107,108
 112 128 112 128 114 127 c 0,109,110
 116 127 116 127 118 125 c 0,111,112
 122 123 122 123 124 121 c 128,-1,113
 126 119 126 119 126 118 c 128,-1,114
 126 117 126 117 125 115.5 c 128,-1,115
 124 114 124 114 122 113 c 0,116,117
 120 111 120 111 119 109 c 128,-1,118
 118 107 118 107 118 105 c 0,119,120
 116 102 116 102 115 97.5 c 128,-1,121
 114 93 114 93 112 88 c 0,122,123
 112 83 112 83 110 79 c 128,-1,124
 108 75 108 75 104 71 c 0,125,126
 100 64 100 64 96 65 c 0,127,128
 94 65 94 65 93 66 c 0,129,130
 90 67 90 67 90 68 c 0,131,132
 90 72 90 72 88 75.5 c 128,-1,133
 86 79 86 79 82 83 c 0,134,135
 80 85 80 85 79 86.5 c 128,-1,136
 78 88 78 88 78 89 c 128,-1,137
 78 90 78 90 79 90 c 128,-1,138
 80 90 80 90 80 90 c 257,139,140
 80 90 80 90 81 89.5 c 128,-1,141
 82 89 82 89 82 89 c 2,142,143
 84 88 84 88 87 87 c 128,-1,144
 90 86 90 86 94 86 c 0,145,146
 96 86 96 86 96 86 c 2,147,148
 98 87 98 87 98 89 c 0,149,150
 100 91 100 91 100 94 c 128,-1,151
 100 97 100 97 102 100 c 0,152,153
 102 102 102 102 103 105 c 128,-1,154
 104 108 104 108 104 111 c 0,155,156
 104 113 104 113 104 114 c 128,-1,157
 104 115 104 115 102 115 c 2,158,159
 102 115 102 115 101 115.5 c 128,-1,160
 100 116 100 116 98 116 c 1,161,162
 98 116 98 116 98 116 c 129,-1,163
 98 116 98 116 98 116 c 1,164,165
 94 116 94 116 83 115.5 c 128,-1,166
 72 115 72 115 56 113 c 0,0,1
EndSplineSet
Validated: 37
EndChar

StartChar: uniE924
Encoding: 59684 59684 38
Width: 136
GlyphClass: 1
Flags: W
LayerCount: 2
Fore
SplineSet
55 44 m 1,0,1
 59 46 59 46 64.5 48.5 c 128,-1,2
 70 51 70 51 78 55 c 0,3,4
 86 58 86 58 87.5 57.5 c 128,-1,5
 89 57 89 57 84 54 c 0,6,7
 79 50 79 50 74 45.5 c 128,-1,8
 69 41 69 41 64 35 c 0,9,10
 60 31 60 31 56.5 27.5 c 128,-1,11
 53 24 53 24 50 20 c 2,12,-1
 50 19 l 2,13,14
 49 17 49 17 46.5 17.5 c 128,-1,15
 44 18 44 18 41 22 c 0,16,17
 40 24 40 24 39 26 c 128,-1,18
 38 28 38 28 38 30 c 256,19,20
 38 32 38 32 39 34 c 128,-1,21
 40 36 40 36 41 37 c 0,22,23
 44 42 44 42 46 47.5 c 128,-1,24
 48 53 48 53 48 59 c 2,25,26
 48 59 48 59 48 59.5 c 128,-1,27
 48 60 48 60 48 60 c 2,28,29
 48 68 48 68 48.5 77 c 128,-1,30
 49 86 49 86 49 96 c 0,31,32
 49 97 49 97 49 98 c 128,-1,33
 49 99 49 99 49 100 c 0,34,35
 49 106 49 106 48 111 c 128,-1,36
 47 116 47 116 45 121 c 0,37,38
 43 124 43 124 44 125 c 128,-1,39
 45 126 45 126 48 125 c 0,40,41
 49 125 49 125 51 124.5 c 128,-1,42
 53 124 53 124 54 124 c 0,43,44
 56 124 56 124 57.5 124.5 c 128,-1,45
 59 125 59 125 60 125 c 0,46,47
 63 126 63 126 65.5 126.5 c 128,-1,48
 68 127 68 127 69 127 c 0,49,50
 71 128 71 128 73 129 c 128,-1,51
 75 130 75 130 76 132 c 0,52,53
 77 133 77 133 79 133 c 128,-1,54
 81 133 81 133 84 133 c 0,55,56
 87 132 87 132 89.5 130.5 c 128,-1,57
 92 129 92 129 94 128 c 128,-1,58
 96 127 96 127 97 125.5 c 128,-1,59
 98 124 98 124 96 122 c 0,60,61
 94 118 94 118 93 113.5 c 128,-1,62
 92 109 92 109 92 104 c 0,63,64
 91 98 91 98 90 92.5 c 128,-1,65
 89 87 89 87 88 82 c 0,66,67
 87 78 87 78 84.5 75.5 c 128,-1,68
 82 73 82 73 80 70 c 0,69,70
 77 68 77 68 75.5 68 c 128,-1,71
 74 68 74 68 73 71 c 0,72,73
 72 75 72 75 69.5 78.5 c 128,-1,74
 67 82 67 82 64 84 c 0,75,76
 60 87 60 87 60.5 88 c 128,-1,77
 61 89 61 89 66 88 c 128,-1,78
 71 87 71 87 73 87.5 c 128,-1,79
 75 88 75 88 76 90 c 0,80,81
 77 94 77 94 78 98.5 c 128,-1,82
 79 103 79 103 80 108 c 0,83,84
 81 115 81 115 80 118.5 c 128,-1,85
 79 122 79 122 76 122 c 0,86,87
 71 121 71 121 66 120 c 128,-1,88
 61 119 61 119 57 118 c 1,89,-1
 58 118 l 1,90,91
 58 100 58 100 57.5 81 c 128,-1,92
 57 62 57 62 55 44 c 1,0,1
EndSplineSet
Validated: 33
EndChar

StartChar: uniE925
Encoding: 59685 59685 39
Width: 121
GlyphClass: 1
Flags: W
LayerCount: 2
Fore
SplineSet
81 153 m 0,0,1
 79 147 79 147 77.5 140.5 c 128,-1,2
 76 134 76 134 76 127 c 0,3,4
 76 125 76 125 76 123 c 128,-1,5
 76 121 76 121 76 119 c 1,6,-1
 76 120 l 1,7,8
 76 93 76 93 76 70 c 0,9,10
 76 59 76 59 77 48.5 c 128,-1,11
 78 38 78 38 79 27 c 0,12,13
 79 24 79 24 79.5 21 c 128,-1,14
 80 18 80 18 80 15 c 0,15,16
 80 10 80 10 79.5 6 c 128,-1,17
 79 2 79 2 78 -3 c 1,18,-1
 78 -2 l 1,19,20
 77 -7 77 -7 74.5 -11 c 128,-1,21
 72 -15 72 -15 69 -18 c 0,22,23
 66 -22 66 -22 64 -21 c 128,-1,24
 62 -20 62 -20 60 -15 c 0,25,26
 58 -9 58 -9 54 -4 c 128,-1,27
 50 1 50 1 45 4 c 0,28,29
 39 9 39 9 39 10.5 c 128,-1,30
 39 12 39 12 44 11 c 2,31,-1
 58 8 l 2,32,33
 60 7 60 7 61.5 8 c 128,-1,34
 63 9 63 9 64 12 c 0,35,36
 65 20 65 20 65 29.5 c 128,-1,37
 65 39 65 39 65 49 c 0,38,39
 65 53 65 53 65 56.5 c 128,-1,40
 65 60 65 60 65 64 c 1,41,-1
 65 63 l 1,42,43
 65 86 65 86 65 103.5 c 128,-1,44
 65 121 65 121 64 133 c 2,45,46
 64 133 64 133 64 133.5 c 128,-1,47
 64 134 64 134 64 135 c 0,48,49
 64 143 64 143 62 150 c 128,-1,50
 60 157 60 157 57 164 c 1,51,-1
 58 164 l 1,52,53
 55 168 55 168 56 169 c 128,-1,54
 57 170 57 170 61 170 c 0,55,56
 66 169 66 169 70 167 c 128,-1,57
 74 165 74 165 78 162 c 0,58,59
 82 160 82 160 82.5 158 c 128,-1,60
 83 156 83 156 81 153 c 0,0,1
EndSplineSet
Validated: 1
EndChar

StartChar: uniE926
Encoding: 59686 59686 40
Width: 219
GlyphClass: 1
Flags: W
LayerCount: 2
Fore
SplineSet
159 173 m 0,0,1
 165 171 165 171 170.5 168 c 128,-1,2
 176 165 176 165 180 160 c 0,3,4
 180 158 180 158 179.5 157 c 128,-1,5
 179 156 179 156 178 155 c 0,6,7
 176 150 176 150 174.5 144.5 c 128,-1,8
 173 139 173 139 173 134 c 2,9,-1
 173 133 l 2,10,11
 172 111 172 111 173 41 c 2,12,-1
 173 3 l 2,13,14
 173 -10 173 -10 171 -16.5 c 128,-1,15
 169 -23 169 -23 165 -24 c 0,16,17
 161 -20 161 -20 158.5 -15 c 128,-1,18
 156 -10 156 -10 156 -4 c 0,19,20
 156 -3 156 -3 156 -1.5 c 128,-1,21
 156 0 156 0 157 1 c 0,22,23
 158 4 158 4 158.5 7.5 c 128,-1,24
 159 11 159 11 159 15 c 2,25,-1
 159 16 l 1,26,27
 156 15 156 15 151 14.5 c 128,-1,28
 146 14 146 14 140 13 c 0,29,30
 127 12 127 12 118.5 11.5 c 128,-1,31
 110 11 110 11 104 10 c 0,32,33
 102 10 102 10 100 9.5 c 128,-1,34
 98 9 98 9 96 9 c 0,35,36
 85 8 85 8 75 5.5 c 128,-1,37
 65 3 65 3 55 1 c 1,38,-1
 57 1 l 1,39,40
 52 2 52 2 47 4.5 c 128,-1,41
 42 7 42 7 39 11 c 0,42,43
 38 14 38 14 39 15.5 c 128,-1,44
 40 17 40 17 44 17 c 128,-1,45
 48 17 48 17 52 17 c 128,-1,46
 56 17 56 17 60 17 c 0,47,48
 70 17 70 17 80 17.5 c 128,-1,49
 90 18 90 18 100 19 c 1,50,-1
 98 19 l 1,51,-1
 149 24 l 2,52,53
 153 24 153 24 155.5 24.5 c 128,-1,54
 158 25 158 25 160 25 c 0,55,56
 161 35 161 35 162 46.5 c 128,-1,57
 163 58 163 58 163 70 c 0,58,59
 163 71 163 71 163 73 c 128,-1,60
 163 75 163 75 163 76 c 2,61,-1
 163 104 l 2,62,63
 162 115 162 115 162 122 c 128,-1,64
 162 129 162 129 162 131 c 0,65,66
 162 132 162 132 162 133.5 c 128,-1,67
 162 135 162 135 162 136 c 0,68,69
 162 144 162 144 160.5 152 c 128,-1,70
 159 160 159 160 156 167 c 0,71,72
 155 168 155 168 154.5 168.5 c 128,-1,73
 154 169 154 169 154 170 c 2,74,75
 154 170 154 170 154.5 170.5 c 128,-1,76
 155 171 155 171 155 171 c 2,77,78
 155 172 155 172 156 172.5 c 128,-1,79
 157 173 157 173 159 173 c 0,0,1
EndSplineSet
Validated: 37
EndChar

StartChar: uniE927
Encoding: 59687 59687 41
Width: 217
GlyphClass: 1
Flags: W
LayerCount: 2
Fore
SplineSet
126 101 m 0,0,1
 124 97 124 97 123.5 93 c 128,-1,2
 123 89 123 89 123 84 c 0,3,4
 123 80 123 80 122.5 75.5 c 128,-1,5
 122 71 122 71 122 66 c 128,-1,6
 122 61 122 61 122 56.5 c 128,-1,7
 122 52 122 52 123 47 c 1,8,-1
 123 48 l 1,9,10
 124 36 124 36 124 27 c 128,-1,11
 124 18 124 18 123 13 c 0,12,13
 123 6 123 6 120.5 0 c 128,-1,14
 118 -6 118 -6 114 -11 c 0,15,16
 109 -17 109 -17 105.5 -18 c 128,-1,17
 102 -19 102 -19 100 -14 c 0,18,19
 97 -8 97 -8 93 -4 c 128,-1,20
 89 0 89 0 84 4 c 0,21,22
 78 9 78 9 78 10.5 c 128,-1,23
 78 12 78 12 84 10 c 0,24,25
 87 9 87 9 90.5 8.5 c 128,-1,26
 94 8 94 8 97 8 c 0,27,28
 98 8 98 8 99 8 c 128,-1,29
 100 8 100 8 101 8 c 1,30,-1
 100 8 l 1,31,32
 103 9 103 9 105.5 11 c 128,-1,33
 108 13 108 13 108 16 c 0,34,35
 109 23 109 23 109 31.5 c 128,-1,36
 109 40 109 40 109 49 c 0,37,38
 109 51 109 51 109.5 53.5 c 128,-1,39
 110 56 110 56 110 59 c 0,40,41
 110 67 110 67 109.5 75 c 128,-1,42
 109 83 109 83 108 91 c 1,43,-1
 108 90 l 1,44,45
 108 96 108 96 106 101 c 128,-1,46
 104 106 104 106 101 110 c 0,47,48
 99 113 99 113 98.5 114.5 c 128,-1,49
 98 116 98 116 101 116 c 0,50,51
 105 115 105 115 108 114.5 c 128,-1,52
 111 114 111 114 114 113 c 1,53,-1
 113 113 l 1,54,55
 122 121 122 121 130 129.5 c 128,-1,56
 138 138 138 138 145 146 c 1,57,-1
 145 147 l 1,58,59
 149 152 149 152 147 154 c 128,-1,60
 145 156 145 156 136 154 c 128,-1,61
 127 152 127 152 116 150.5 c 128,-1,62
 105 149 105 149 94 147 c 0,63,64
 85 146 85 146 78 144 c 128,-1,65
 71 142 71 142 64 139 c 1,66,-1
 65 139 l 1,67,68
 64 138 64 138 62 138 c 128,-1,69
 60 138 60 138 59 138 c 0,70,71
 57 138 57 138 55 138.5 c 128,-1,72
 53 139 53 139 52 140 c 0,73,74
 48 141 48 141 45 143 c 128,-1,75
 42 145 42 145 40 147 c 0,76,77
 38 150 38 150 39 151 c 128,-1,78
 40 152 40 152 45 152 c 2,79,80
 45 152 45 152 45.5 152 c 128,-1,81
 46 152 46 152 46 152 c 2,82,83
 55 152 55 152 63.5 152.5 c 128,-1,84
 72 153 72 153 81 154 c 1,85,-1
 79 153 l 1,86,87
 91 154 91 154 102 156 c 128,-1,88
 113 158 113 158 124 160 c 0,89,90
 132 161 132 161 138.5 162.5 c 128,-1,91
 145 164 145 164 151 167 c 0,92,93
 152 168 152 168 153.5 168 c 128,-1,94
 155 168 155 168 157 168 c 128,-1,95
 159 168 159 168 161.5 167 c 128,-1,96
 164 166 164 166 165 165 c 0,97,98
 169 163 169 163 172 159.5 c 128,-1,99
 175 156 175 156 177 153 c 2,100,-1
 178 153 l 2,101,102
 180 150 180 150 178.5 148 c 128,-1,103
 177 146 177 146 173 145 c 0,104,105
 166 143 166 143 160 140 c 128,-1,106
 154 137 154 137 149 133 c 0,107,108
 140 127 140 127 132 121.5 c 128,-1,109
 124 116 124 116 117 109 c 1,110,-1
 117 110 l 1,111,112
 123 108 123 108 125 105.5 c 128,-1,113
 127 103 127 103 126 101 c 0,0,1
EndSplineSet
Validated: 37
EndChar

StartChar: uniE928
Encoding: 59688 59688 42
Width: 216
GlyphClass: 1
Flags: W
LayerCount: 2
Fore
SplineSet
90 49 m 0,0,1
 92 53 92 53 93 57 c 128,-1,2
 94 61 94 61 94 65 c 2,3,4
 94 65 94 65 94 66 c 0,5,6
 94 70 94 70 94 74.5 c 128,-1,7
 94 79 94 79 94 84 c 128,-1,8
 94 89 94 89 94 93.5 c 128,-1,9
 94 98 94 98 94 102 c 1,10,-1
 94 101 l 1,11,12
 93 113 93 113 93 122 c 128,-1,13
 93 131 93 131 93 136 c 0,14,15
 94 143 94 143 96.5 149 c 128,-1,16
 99 155 99 155 102 160 c 0,17,18
 111 173 111 173 116 164 c 0,19,20
 119 158 119 158 123 153.5 c 128,-1,21
 127 149 127 149 132 145 c 0,22,23
 138 140 138 140 137.5 138.5 c 128,-1,24
 137 137 137 137 132 139 c 0,25,26
 129 140 129 140 125.5 141 c 128,-1,27
 122 142 122 142 118 142 c 0,28,29
 117 142 117 142 116.5 141.5 c 128,-1,30
 116 141 116 141 115 141 c 0,31,32
 112 141 112 141 110 138.5 c 128,-1,33
 108 136 108 136 108 133 c 0,34,35
 107 126 107 126 106.5 117.5 c 128,-1,36
 106 109 106 109 106 101 c 2,37,38
 106 101 106 101 106 100.5 c 128,-1,39
 106 100 106 100 106 100 c 2,40,41
 106 98 106 98 106 95.5 c 128,-1,42
 106 93 106 93 106 91 c 0,43,44
 106 83 106 83 106.5 74.5 c 128,-1,45
 107 66 107 66 108 58 c 1,46,-1
 108 60 l 1,47,48
 108 54 108 54 110 49 c 128,-1,49
 112 44 112 44 115 39 c 0,50,51
 117 36 117 36 117 35 c 128,-1,52
 117 34 117 34 115 34 c 0,53,54
 111 34 111 34 108 35 c 128,-1,55
 105 36 105 36 102 36 c 1,56,-1
 103 36 l 1,57,58
 94 28 94 28 86 20 c 128,-1,59
 78 12 78 12 71 3 c 0,60,61
 66 -3 66 -3 68.5 -5 c 128,-1,62
 71 -7 71 -7 80 -5 c 0,63,64
 89 -4 89 -4 99.5 -2 c 128,-1,65
 110 0 110 0 122 3 c 0,66,67
 130 4 130 4 137.5 6 c 128,-1,68
 145 8 145 8 152 10 c 1,69,-1
 151 10 l 1,70,71
 152 10 152 10 154 10.5 c 128,-1,72
 156 11 156 11 157 11 c 0,73,74
 159 11 159 11 161 10.5 c 128,-1,75
 163 10 163 10 164 10 c 0,76,77
 168 9 168 9 170.5 7 c 128,-1,78
 173 5 173 5 176 2 c 0,79,80
 178 -1 178 -1 177 -2 c 128,-1,81
 176 -3 176 -3 170 -2 c 0,82,83
 161 -2 161 -2 152 -2.5 c 128,-1,84
 143 -3 143 -3 135 -4 c 1,85,-1
 136 -4 l 1,86,87
 124 -5 124 -5 113 -6.5 c 128,-1,88
 102 -8 102 -8 92 -10 c 0,89,90
 85 -11 85 -11 78 -13 c 128,-1,91
 71 -15 71 -15 64 -18 c 1,92,-1
 65 -17 l 1,93,94
 64 -18 64 -18 62.5 -18.5 c 128,-1,95
 61 -19 61 -19 59 -19 c 128,-1,96
 57 -19 57 -19 54.5 -18 c 128,-1,97
 52 -17 52 -17 50 -15 c 0,98,99
 47 -13 47 -13 44.5 -10 c 128,-1,100
 42 -7 42 -7 40 -4 c 128,-1,101
 38 -1 38 -1 39 1 c 128,-1,102
 40 3 40 3 44 4 c 0,103,104
 51 6 51 6 57 9 c 128,-1,105
 63 12 63 12 68 16 c 0,106,107
 77 22 77 22 85 28 c 128,-1,108
 93 34 93 34 100 40 c 1,109,-1
 100 39 l 1,110,111
 94 41 94 41 91.5 44 c 128,-1,112
 89 47 89 47 90 49 c 0,0,1
EndSplineSet
Validated: 37
EndChar

StartChar: uniE929
Encoding: 59689 59689 43
Width: 277
GlyphClass: 1
Flags: W
LayerCount: 2
Fore
SplineSet
151 101 m 1,0,1
 160 102 160 102 169 103 c 128,-1,2
 178 104 178 104 185 105 c 0,3,4
 193 106 193 106 199 107.5 c 128,-1,5
 205 109 205 109 210 109 c 0,6,7
 211 109 211 109 213 109.5 c 128,-1,8
 215 110 215 110 217 110 c 128,-1,9
 219 110 219 110 220.5 109.5 c 128,-1,10
 222 109 222 109 224 109 c 0,11,12
 227 108 227 108 230 106.5 c 128,-1,13
 233 105 233 105 235 102 c 0,14,15
 241 96 241 96 236 96 c 0,16,17
 233 96 233 96 230 95.5 c 128,-1,18
 227 95 227 95 224 95 c 0,19,20
 223 95 223 95 222.5 95 c 128,-1,21
 222 95 222 95 221 95 c 0,22,23
 216 95 216 95 209 95 c 128,-1,24
 202 95 202 95 193 95 c 0,25,26
 182 94 182 94 172 93 c 128,-1,27
 162 92 162 92 152 91 c 1,28,-1
 154 91 l 1,29,30
 155 86 155 86 155.5 80 c 128,-1,31
 156 74 156 74 157 67 c 128,-1,32
 158 60 158 60 158 52 c 128,-1,33
 158 44 158 44 158 36 c 0,34,35
 158 35 158 35 158 34 c 128,-1,36
 158 33 158 33 158 32 c 0,37,38
 158 26 158 26 157 19.5 c 128,-1,39
 156 13 156 13 155 7 c 1,40,-1
 155 8 l 1,41,42
 153 1 153 1 150 -4.5 c 128,-1,43
 147 -10 147 -10 143 -15 c 0,44,45
 138 -21 138 -21 135 -22 c 128,-1,46
 132 -23 132 -23 130 -20 c 0,47,48
 128 -16 128 -16 125 -13 c 128,-1,49
 122 -10 122 -10 119 -8 c 2,50,-1
 118 -7 l 2,51,52
 115 -4 115 -4 111.5 -1.5 c 128,-1,53
 108 1 108 1 104 3 c 1,54,-1
 104 4 l 2,55,56
 101 6 101 6 100.5 6.5 c 128,-1,57
 100 7 100 7 103 7 c 128,-1,58
 106 7 106 7 110 6 c 128,-1,59
 114 5 114 5 120 4 c 0,60,61
 121 4 121 4 122 4 c 128,-1,62
 123 4 123 4 125 4 c 0,63,64
 128 4 128 4 130.5 4.5 c 128,-1,65
 133 5 133 5 135 7 c 0,66,67
 137 10 137 10 139 13 c 128,-1,68
 141 16 141 16 141 20 c 0,69,70
 142 25 142 25 142.5 30.5 c 128,-1,71
 143 36 143 36 143 42 c 0,72,73
 143 43 143 43 143 45 c 128,-1,74
 143 47 143 47 143 48 c 0,75,76
 143 59 143 59 142 69.5 c 128,-1,77
 141 80 141 80 139 91 c 1,78,-1
 139 89 l 1,79,80
 124 88 124 88 112.5 86 c 128,-1,81
 101 84 101 84 91 83 c 0,82,83
 83 82 83 82 76.5 80 c 128,-1,84
 70 78 70 78 63 77 c 1,85,-1
 65 77 l 1,86,87
 63 76 63 76 60.5 76 c 128,-1,88
 58 76 58 76 56 76 c 0,89,90
 55 76 55 76 54.5 76 c 128,-1,91
 54 76 54 76 53 76 c 0,92,93
 50 77 50 77 47.5 78.5 c 128,-1,94
 45 80 45 80 43 82 c 0,95,96
 40 84 40 84 39 85.5 c 128,-1,97
 38 87 38 87 39 87 c 128,-1,98
 40 87 40 87 44 87.5 c 128,-1,99
 48 88 48 88 53 89 c 0,100,101
 59 89 59 89 67 90 c 128,-1,102
 75 91 75 91 85 92 c 256,103,104
 95 93 95 93 108 94.5 c 128,-1,105
 121 96 121 96 137 98 c 1,106,107
 135 104 135 104 131.5 109 c 128,-1,108
 128 114 128 114 123 118 c 0,109,110
 118 121 118 121 123 121.5 c 128,-1,111
 128 122 128 122 141 120 c 1,112,113
 148 128 148 128 154 137 c 128,-1,114
 160 146 160 146 165 155 c 1,115,-1
 165 156 l 2,116,117
 166 159 166 159 160.5 159 c 128,-1,118
 155 159 155 159 144 156 c 0,119,120
 135 154 135 154 126.5 151 c 128,-1,121
 118 148 118 148 110 144 c 1,122,-1
 111 145 l 1,123,124
 109 144 109 144 107 143.5 c 128,-1,125
 105 143 105 143 103 143 c 0,126,127
 99 143 99 143 96 144.5 c 128,-1,128
 93 146 93 146 91 149 c 0,129,130
 85 154 85 154 86 156 c 128,-1,131
 87 158 87 158 95 157 c 0,132,133
 96 157 96 157 97.5 157 c 128,-1,134
 99 157 99 157 100 157 c 0,135,136
 109 157 109 157 117.5 158 c 128,-1,137
 126 159 126 159 134 162 c 1,138,-1
 134 161 l 1,139,140
 142 163 142 163 149.5 165.5 c 128,-1,141
 157 168 157 168 164 171 c 0,142,143
 165 172 165 172 166.5 172 c 128,-1,144
 168 172 168 172 170 172 c 128,-1,145
 172 172 172 172 174 171.5 c 128,-1,146
 176 171 176 171 177 170 c 0,147,148
 181 168 181 168 184.5 165 c 128,-1,149
 188 162 188 162 191 159 c 128,-1,150
 194 156 194 156 194 154 c 128,-1,151
 194 152 194 152 191 151 c 0,152,153
 178 143 178 143 167 134.5 c 128,-1,154
 156 126 156 126 145 117 c 1,155,-1
 146 117 l 1,156,157
 148 113 148 113 149 109.5 c 128,-1,158
 150 106 150 106 151 101 c 1,0,1
EndSplineSet
Validated: 33
EndChar

StartChar: uniE92A
Encoding: 59690 59690 44
Width: 257
GlyphClass: 1
Flags: W
LayerCount: 2
Fore
SplineSet
135 116 m 1,0,-1
 135 116 l 1,1,2
 136 115 136 115 136 114 c 0,3,4
 136 111 136 111 135 108.5 c 128,-1,5
 134 106 134 106 133 104 c 1,6,7
 153 107 153 107 165.5 109 c 128,-1,8
 178 111 178 111 183 112 c 0,9,10
 184 113 184 113 185.5 113 c 128,-1,11
 187 113 187 113 189 113 c 0,12,13
 193 113 193 113 196 112 c 128,-1,14
 199 111 199 111 202 109 c 0,15,16
 206 107 206 107 210 103.5 c 128,-1,17
 214 100 214 100 217 97 c 128,-1,18
 220 94 220 94 218 91.5 c 128,-1,19
 216 89 216 89 209 88 c 128,-1,20
 202 87 202 87 196 84 c 128,-1,21
 190 81 190 81 184 77 c 128,-1,22
 178 73 178 73 176.5 73 c 128,-1,23
 175 73 175 73 177 77 c 128,-1,24
 179 81 179 81 181 84.5 c 128,-1,25
 183 88 183 88 186 91 c 0,26,27
 188 94 188 94 188 96.5 c 128,-1,28
 188 99 188 99 186 100 c 128,-1,29
 184 101 184 101 181.5 101.5 c 128,-1,30
 179 102 179 102 175 102 c 0,31,32
 174 102 174 102 172 102 c 128,-1,33
 170 102 170 102 169 101 c 0,34,35
 162 100 162 100 149.5 99 c 128,-1,36
 137 98 137 98 120 95 c 1,37,38
 129 92 129 92 132.5 89.5 c 128,-1,39
 136 87 136 87 135 84 c 0,40,41
 135 81 135 81 135 77.5 c 128,-1,42
 135 74 135 74 135 71 c 0,43,44
 135 67 135 67 135 64 c 128,-1,45
 135 61 135 61 136 57 c 1,46,-1
 135 58 l 1,47,48
 135 54 135 54 135.5 49.5 c 128,-1,49
 136 45 136 45 136 40 c 128,-1,50
 136 35 136 35 136 30.5 c 128,-1,51
 136 26 136 26 135 21 c 1,52,-1
 135 22 l 1,53,54
 135 15 135 15 134 8.5 c 128,-1,55
 133 2 133 2 131 -4 c 0,56,57
 129 -9 129 -9 126 -13.5 c 128,-1,58
 123 -18 123 -18 119 -21 c 128,-1,59
 115 -24 115 -24 112 -23.5 c 128,-1,60
 109 -23 109 -23 107 -19 c 128,-1,61
 105 -15 105 -15 101.5 -11.5 c 128,-1,62
 98 -8 98 -8 94 -5 c 2,63,-1
 93 -5 l 1,64,65
 88 -1 88 -1 87.5 0 c 128,-1,66
 87 1 87 1 91 1 c 0,67,68
 95 0 95 0 98.5 -0.5 c 128,-1,69
 102 -1 102 -1 106 -1 c 2,70,-1
 107 -1 l 1,71,72
 107 -1 107 -1 107.5 -1 c 128,-1,73
 108 -1 108 -1 108 -1 c 2,74,75
 112 -1 112 -1 115 1 c 128,-1,76
 118 3 118 3 119 6 c 0,77,78
 121 12 121 12 122 18.5 c 128,-1,79
 123 25 123 25 123 32 c 0,80,81
 123 36 123 36 123.5 40.5 c 128,-1,82
 124 45 124 45 124 50 c 256,83,84
 124 55 124 55 123.5 59 c 128,-1,85
 123 63 123 63 123 68 c 1,86,-1
 123 67 l 1,87,88
 122 75 122 75 119.5 81.5 c 128,-1,89
 117 88 117 88 113 94 c 1,90,-1
 113 93 l 1,91,92
 92 89 92 89 79.5 87 c 128,-1,93
 67 85 67 85 62 84 c 0,94,95
 61 84 61 84 59.5 83.5 c 128,-1,96
 58 83 58 83 57 83 c 0,97,98
 53 83 53 83 50 84.5 c 128,-1,99
 47 86 47 86 44 88 c 0,100,101
 40 91 40 91 39 92.5 c 128,-1,102
 38 94 38 94 40 94 c 128,-1,103
 42 94 42 94 48 94.5 c 128,-1,104
 54 95 54 95 61 96 c 0,105,106
 69 97 69 97 77.5 97.5 c 128,-1,107
 86 98 86 98 96 99 c 256,108,109
 106 100 106 100 114 101 c 128,-1,110
 122 102 122 102 128 103 c 1,111,112
 122 109 122 109 116.5 114.5 c 128,-1,113
 111 120 111 120 106 126 c 1,114,-1
 106 127 l 2,115,116
 103 131 103 131 103.5 132 c 128,-1,117
 104 133 104 133 108 132 c 0,118,119
 113 131 113 131 117.5 130 c 128,-1,120
 122 129 122 129 126 127 c 1,121,122
 132 134 132 134 138 141 c 128,-1,123
 144 148 144 148 148 155 c 2,124,-1
 149 156 l 2,125,126
 151 160 151 160 148 161 c 128,-1,127
 145 162 145 162 138 160 c 0,128,129
 131 159 131 159 124.5 157.5 c 128,-1,130
 118 156 118 156 113 155 c 0,131,132
 107 154 107 154 102 152 c 128,-1,133
 97 150 97 150 92 150 c 0,134,135
 91 150 91 150 90 149.5 c 128,-1,136
 89 149 89 149 88 149 c 0,137,138
 84 149 84 149 81 150 c 128,-1,139
 78 151 78 151 75 153 c 0,140,141
 71 155 71 155 70.5 156.5 c 128,-1,142
 70 158 70 158 73 158 c 2,143,-1
 90 160 l 2,144,145
 99 161 99 161 107.5 162 c 128,-1,146
 116 163 116 163 124 165 c 1,147,-1
 122 165 l 1,148,149
 130 167 130 167 137 169 c 128,-1,150
 144 171 144 171 151 173 c 1,151,-1
 149 172 l 1,152,153
 150 172 150 172 151.5 172.5 c 128,-1,154
 153 173 153 173 154 173 c 0,155,156
 157 173 157 173 159.5 172 c 128,-1,157
 162 171 162 171 164 170 c 0,158,159
 168 168 168 168 171 165.5 c 128,-1,160
 174 163 174 163 177 160 c 0,161,162
 179 158 179 158 178 156 c 128,-1,163
 177 154 177 154 173 153 c 0,164,165
 167 151 167 151 161.5 148 c 128,-1,166
 156 145 156 145 152 141 c 0,167,168
 146 136 146 136 140 132 c 128,-1,169
 134 128 134 128 129 124 c 1,170,171
 131 123 131 123 133 120.5 c 128,-1,172
 135 118 135 118 135 116 c 1,0,-1
EndSplineSet
Validated: 33
EndChar

StartChar: uniE92B
Encoding: 59691 59691 45
Width: 257
GlyphClass: 1
Flags: W
LayerCount: 2
Fore
SplineSet
121 34 m 1,0,-1
 121 34 l 1,1,2
 121 35 121 35 121 35 c 2,3,4
 121 38 121 38 122 40.5 c 128,-1,5
 123 43 123 43 124 46 c 1,6,7
 104 43 104 43 91.5 41 c 128,-1,8
 79 39 79 39 74 38 c 0,9,10
 73 37 73 37 71 37 c 128,-1,11
 69 37 69 37 68 37 c 0,12,13
 64 37 64 37 61 38 c 128,-1,14
 58 39 58 39 55 41 c 0,15,16
 51 43 51 43 47 46 c 128,-1,17
 43 49 43 49 40 53 c 0,18,19
 37 56 37 56 39 58 c 128,-1,20
 41 60 41 60 47 62 c 0,21,22
 54 63 54 63 60.5 66 c 128,-1,23
 67 69 67 69 73 73 c 1,24,-1
 72 73 l 1,25,26
 78 77 78 77 80 77 c 128,-1,27
 82 77 82 77 80 73 c 128,-1,28
 78 69 78 69 76 65.5 c 128,-1,29
 74 62 74 62 71 59 c 0,30,31
 69 56 69 56 69 53.5 c 128,-1,32
 69 51 69 51 70 50 c 0,33,34
 72 49 72 49 75 48.5 c 128,-1,35
 78 48 78 48 81 48 c 0,36,37
 83 48 83 48 84.5 48 c 128,-1,38
 86 48 86 48 88 48 c 0,39,40
 95 49 95 49 107 50.5 c 128,-1,41
 119 52 119 52 137 54 c 1,42,43
 128 57 128 57 124 60 c 128,-1,44
 120 63 120 63 121 65 c 0,45,46
 121 68 121 68 121.5 71.5 c 128,-1,47
 122 75 122 75 122 79 c 256,48,49
 122 83 122 83 122 86 c 128,-1,50
 122 89 122 89 121 92 c 0,51,52
 121 96 121 96 121 100.5 c 128,-1,53
 121 105 121 105 121 110 c 128,-1,54
 121 115 121 115 121 119.5 c 128,-1,55
 121 124 121 124 121 128 c 0,56,57
 121 135 121 135 122.5 141.5 c 128,-1,58
 124 148 124 148 126 154 c 1,59,-1
 126 153 l 1,60,61
 128 158 128 158 131 162.5 c 128,-1,62
 134 167 134 167 138 170 c 1,63,-1
 138 171 l 1,64,65
 142 174 142 174 145 173 c 128,-1,66
 148 172 148 172 150 169 c 0,67,68
 152 165 152 165 155 161 c 128,-1,69
 158 157 158 157 162 154 c 2,70,-1
 163 154 l 1,71,72
 168 150 168 150 168.5 149 c 128,-1,73
 169 148 169 148 165 149 c 0,74,75
 162 150 162 150 158.5 150.5 c 128,-1,76
 155 151 155 151 151 152 c 2,77,-1
 150 152 l 1,78,79
 150 152 150 152 149.5 152 c 128,-1,80
 149 152 149 152 149 152 c 2,81,82
 145 152 145 152 142 150 c 128,-1,83
 139 148 139 148 138 144 c 0,84,85
 136 138 136 138 135 131.5 c 128,-1,86
 134 125 134 125 134 118 c 2,87,-1
 134 117 l 2,88,89
 134 113 134 113 133.5 109 c 128,-1,90
 133 105 133 105 133 100 c 128,-1,91
 133 95 133 95 133 90.5 c 128,-1,92
 133 86 133 86 134 82 c 1,93,-1
 134 83 l 1,94,95
 135 75 135 75 137.5 68.5 c 128,-1,96
 140 62 140 62 145 56 c 1,97,-1
 144 56 l 1,98,99
 165 60 165 60 178 62.5 c 128,-1,100
 191 65 191 65 196 66 c 0,101,102
 197 66 197 66 198 66 c 128,-1,103
 199 66 199 66 201 66 c 0,104,105
 205 66 205 66 208 65 c 128,-1,106
 211 64 211 64 213 62 c 0,107,108
 217 59 217 59 218 57 c 128,-1,109
 219 55 219 55 217 55 c 128,-1,110
 215 55 215 55 209.5 55 c 128,-1,111
 204 55 204 55 196 54 c 256,112,113
 188 53 188 53 179.5 52 c 128,-1,114
 171 51 171 51 161 50 c 256,115,116
 151 49 151 49 143 48 c 128,-1,117
 135 47 135 47 129 46 c 1,118,119
 135 41 135 41 140.5 35 c 128,-1,120
 146 29 146 29 151 23 c 1,121,-1
 152 23 l 1,122,123
 155 19 155 19 154 18 c 128,-1,124
 153 17 153 17 150 17 c 0,125,126
 145 18 145 18 140 19 c 128,-1,127
 135 20 135 20 131 22 c 1,128,129
 125 16 125 16 119 9 c 128,-1,130
 113 2 113 2 109 -6 c 2,131,-1
 108 -7 l 2,132,133
 106 -11 106 -11 109 -12 c 128,-1,134
 112 -13 112 -13 119 -11 c 0,135,136
 126 -10 126 -10 132.5 -8.5 c 128,-1,137
 139 -7 139 -7 144 -6 c 0,138,139
 150 -4 150 -4 155 -2.5 c 128,-1,140
 160 -1 160 -1 165 0 c 0,141,142
 166 0 166 0 167 0 c 128,-1,143
 168 0 168 0 169 0 c 0,144,145
 173 0 173 0 176 -1 c 128,-1,146
 179 -2 179 -2 182 -4 c 0,147,148
 186 -7 186 -7 186.5 -8 c 128,-1,149
 187 -9 187 -9 184 -9 c 2,150,-1
 167 -11 l 2,151,152
 158 -12 158 -12 150 -13 c 128,-1,153
 142 -14 142 -14 134 -16 c 1,154,-1
 136 -16 l 1,155,156
 128 -18 128 -18 120.5 -19.5 c 128,-1,157
 113 -21 113 -21 107 -24 c 1,158,-1
 109 -23 l 1,159,160
 108 -23 108 -23 106.5 -23.5 c 128,-1,161
 105 -24 105 -24 104 -24 c 0,162,163
 101 -24 101 -24 98 -23 c 128,-1,164
 95 -22 95 -22 93 -20 c 0,165,166
 89 -18 89 -18 86 -15.5 c 128,-1,167
 83 -13 83 -13 81 -11 c 128,-1,168
 79 -9 79 -9 80 -7 c 128,-1,169
 81 -5 81 -5 85 -4 c 0,170,171
 91 -2 91 -2 96 1 c 128,-1,172
 101 4 101 4 105 8 c 0,173,174
 111 13 111 13 117 17 c 128,-1,175
 123 21 123 21 128 25 c 1,176,177
 125 26 125 26 123.5 28.5 c 128,-1,178
 122 31 122 31 121 34 c 1,0,-1
EndSplineSet
Validated: 37
EndChar

StartChar: uniE92C
Encoding: 59692 59692 46
Width: 258
GlyphClass: 1
Flags: W
LayerCount: 2
Fore
SplineSet
146 72 m 2,0,1
 148 65 148 65 149 57.5 c 128,-1,2
 150 50 150 50 151 42 c 0,3,4
 151 41 151 41 151 39.5 c 128,-1,5
 151 38 151 38 151 37 c 0,6,7
 151 30 151 30 150.5 23 c 128,-1,8
 150 16 150 16 149 9 c 1,9,-1
 149 10 l 1,10,11
 148 3 148 3 146 -3.5 c 128,-1,12
 144 -10 144 -10 140 -16 c 0,13,14
 136 -21 136 -21 133 -22 c 128,-1,15
 130 -23 130 -23 127 -19 c 0,16,17
 123 -14 123 -14 119 -10 c 128,-1,18
 115 -6 115 -6 110 -3 c 0,19,20
 104 1 104 1 104 2.5 c 128,-1,21
 104 4 104 4 111 3 c 128,-1,22
 118 2 118 2 122.5 2 c 128,-1,23
 127 2 127 2 129 4 c 0,24,25
 131 7 131 7 132.5 11 c 128,-1,26
 134 15 134 15 134 19 c 0,27,28
 135 25 135 25 135 32.5 c 128,-1,29
 135 40 135 40 135 48 c 0,30,31
 135 49 135 49 135 49.5 c 128,-1,32
 135 50 135 50 135 51 c 2,33,-1
 135 52 l 2,34,35
 135 53 135 53 135 53 c 2,36,37
 135 61 135 61 134 69 c 128,-1,38
 133 77 133 77 130 84 c 1,39,40
 123 75 123 75 116.5 66 c 128,-1,41
 110 57 110 57 102 50 c 0,42,43
 96 44 96 44 88.5 38 c 128,-1,44
 81 32 81 32 74 28 c 2,45,-1
 72 27 l 2,46,47
 66 23 66 23 59.5 20 c 128,-1,48
 53 17 53 17 45 15 c 2,49,-1
 44 15 l 2,50,51
 37 13 37 13 39 15 c 128,-1,52
 41 17 41 17 51 23 c 0,53,54
 64 30 64 30 74.5 39.5 c 128,-1,55
 85 49 85 49 94 59 c 1,56,-1
 95 59 l 1,57,58
 103 66 103 66 109 75 c 128,-1,59
 115 84 115 84 119 94 c 1,60,-1
 120 95 l 1,61,62
 101 92 101 92 88 89.5 c 128,-1,63
 75 87 75 87 68 85 c 0,64,65
 66 84 66 84 64 84 c 128,-1,66
 62 84 62 84 60 84 c 0,67,68
 56 84 56 84 52 85 c 128,-1,69
 48 86 48 86 45 88 c 1,70,-1
 46 88 l 1,71,72
 41 92 41 92 40.5 93.5 c 128,-1,73
 40 95 40 95 44 95 c 128,-1,74
 48 95 48 95 56.5 95.5 c 128,-1,75
 65 96 65 96 77 97 c 256,76,77
 89 98 89 98 102.5 100 c 128,-1,78
 116 102 116 102 132 103 c 0,79,80
 147 105 147 105 158 107 c 128,-1,81
 169 109 169 109 175 109 c 0,82,83
 180 110 180 110 184 111 c 128,-1,84
 188 112 188 112 193 113 c 1,85,-1
 192 113 l 1,86,87
 193 113 193 113 194 113.5 c 128,-1,88
 195 114 195 114 196 114 c 0,89,90
 198 114 198 114 199.5 113.5 c 128,-1,91
 201 113 201 113 203 112 c 0,92,93
 207 110 207 110 210.5 107 c 128,-1,94
 214 104 214 104 217 101 c 0,95,96
 221 97 221 97 219.5 94.5 c 128,-1,97
 218 92 218 92 212 90 c 0,98,99
 205 88 205 88 199 85 c 128,-1,100
 193 82 193 82 188 77 c 128,-1,101
 183 72 183 72 182 73.5 c 128,-1,102
 181 75 181 75 185 83 c 0,103,104
 189 90 189 90 189.5 94.5 c 128,-1,105
 190 99 190 99 189 100 c 128,-1,106
 188 101 188 101 184.5 101.5 c 128,-1,107
 181 102 181 102 175 102 c 2,108,-1
 132 96 l 1,109,110
 137 91 137 91 140.5 85 c 128,-1,111
 144 79 144 79 145 73 c 2,112,-1
 146 72 l 2,0,1
140 108 m 1,113,114
 139 104 139 104 136 104.5 c 128,-1,115
 133 105 133 105 129 109 c 256,116,117
 125 113 125 113 121.5 116 c 128,-1,118
 118 119 118 119 117 120 c 0,119,120
 115 122 115 122 113 124.5 c 128,-1,121
 111 127 111 127 109 130 c 128,-1,122
 107 133 107 133 109 133.5 c 128,-1,123
 111 134 111 134 117 133 c 128,-1,124
 123 132 123 132 127.5 129.5 c 128,-1,125
 132 127 132 127 136 124 c 1,126,127
 142 133 142 133 146.5 139.5 c 128,-1,128
 151 146 151 146 153 150 c 256,129,130
 155 154 155 154 155.5 156 c 128,-1,131
 156 158 156 158 155 159 c 0,132,133
 154 159 154 159 153 159 c 128,-1,134
 152 159 152 159 151 159 c 0,135,136
 146 159 146 159 142 158.5 c 128,-1,137
 138 158 138 158 134 156 c 1,138,-1
 134 157 l 1,139,140
 127 156 127 156 120 153.5 c 128,-1,141
 113 151 113 151 107 149 c 1,142,-1
 108 149 l 1,143,144
 106 148 106 148 104 147.5 c 128,-1,145
 102 147 102 147 100 147 c 0,146,147
 96 147 96 147 93 148.5 c 128,-1,148
 90 150 90 150 88 152 c 0,149,150
 82 156 82 156 82.5 157 c 128,-1,151
 83 158 83 158 90 158 c 0,152,153
 91 158 91 158 92 158 c 128,-1,154
 93 158 93 158 94 158 c 0,155,156
 103 158 103 158 112 159 c 128,-1,157
 121 160 121 160 129 162 c 1,158,-1
 128 162 l 1,159,160
 136 163 136 163 143.5 165.5 c 128,-1,161
 151 168 151 168 157 170 c 1,162,-1
 156 170 l 1,163,164
 157 171 157 171 159 171 c 128,-1,165
 161 171 161 171 162 171 c 0,166,167
 164 171 164 171 166 170.5 c 128,-1,168
 168 170 168 170 169 169 c 0,169,170
 173 167 173 167 177 164.5 c 128,-1,171
 181 162 181 162 183 159 c 0,172,173
 186 156 186 156 185 154 c 128,-1,174
 184 152 184 152 179 151 c 128,-1,175
 174 150 174 150 164 142 c 128,-1,176
 154 134 154 134 139 119 c 1,177,178
 140 118 140 118 140.5 116 c 128,-1,179
 141 114 141 114 141 113 c 128,-1,180
 141 112 141 112 140.5 110.5 c 128,-1,181
 140 109 140 109 140 107 c 1,182,-1
 140 108 l 1,113,114
EndSplineSet
Validated: 33
EndChar

StartChar: uniE92D
Encoding: 59693 59693 47
Width: 291
GlyphClass: 1
Flags: W
LayerCount: 2
Fore
SplineSet
66 55 m 0,0,1
 63 55 63 55 60.5 56 c 128,-1,2
 58 57 58 57 56 58 c 0,3,4
 55 59 55 59 56.5 60 c 128,-1,5
 58 61 58 61 62 61 c 2,6,7
 62 61 62 61 62.5 61 c 128,-1,8
 63 61 63 61 64 61 c 0,9,10
 70 61 70 61 76.5 59.5 c 128,-1,11
 83 58 83 58 88 55 c 1,12,-1
 87 55 l 1,13,14
 90 60 90 60 92.5 65.5 c 128,-1,15
 95 71 95 71 96 77 c 0,16,17
 97 84 97 84 96.5 87.5 c 128,-1,18
 96 91 96 91 93 91 c 2,19,20
 93 91 93 91 92.5 91 c 128,-1,21
 92 91 92 91 92 91 c 2,22,23
 90 91 90 91 87.5 90.5 c 128,-1,24
 85 90 85 90 83 88 c 0,25,26
 82 87 82 87 81 87 c 128,-1,27
 80 87 80 87 79 88 c 0,28,29
 79 89 79 89 78.5 90 c 128,-1,30
 78 91 78 91 78 93 c 2,31,32
 78 93 78 93 78 94 c 0,33,34
 78 97 78 97 79 99 c 128,-1,35
 80 101 80 101 81 103 c 0,36,37
 83 107 83 107 85.5 111 c 128,-1,38
 88 115 88 115 89 120 c 0,39,40
 89 121 89 121 90 121 c 0,41,42
 91 124 91 124 92 127.5 c 128,-1,43
 93 131 93 131 93 135 c 0,44,45
 93 136 93 136 92 136.5 c 128,-1,46
 91 137 91 137 90 136 c 2,47,-1
 79 132 l 2,48,49
 78 132 78 132 76.5 131.5 c 128,-1,50
 75 131 75 131 73 131 c 128,-1,51
 71 131 71 131 68.5 132 c 128,-1,52
 66 133 66 133 64 134 c 0,53,54
 60 136 60 136 60.5 137 c 128,-1,55
 61 138 61 138 64 138 c 0,56,57
 69 138 69 138 73 139 c 128,-1,58
 77 140 77 140 82 142 c 1,59,-1
 81 142 l 1,60,61
 85 143 85 143 88.5 144.5 c 128,-1,62
 92 146 92 146 94 149 c 0,63,64
 95 150 95 150 96.5 150.5 c 128,-1,65
 98 151 98 151 99 151 c 128,-1,66
 100 151 100 151 101.5 150.5 c 128,-1,67
 103 150 103 150 103 149 c 0,68,69
 106 147 106 147 108.5 145.5 c 128,-1,70
 111 144 111 144 113 142 c 0,71,72
 115 141 115 141 115.5 139.5 c 128,-1,73
 116 138 116 138 114 137 c 0,74,75
 112 135 112 135 110 132 c 256,76,77
 108 129 108 129 106 127 c 0,78,79
 103 123 103 123 100.5 118.5 c 128,-1,80
 98 114 98 114 96 109 c 2,81,-1
 96 108 l 2,82,83
 93 103 93 103 92.5 100 c 128,-1,84
 92 97 92 97 93 97 c 128,-1,85
 94 97 94 97 95 97.5 c 128,-1,86
 96 98 96 98 97 98 c 0,87,88
 101 98 101 98 104 97 c 128,-1,89
 107 96 107 96 110 95 c 0,90,91
 116 92 116 92 113 87 c 0,92,93
 112 84 112 84 108 74.5 c 128,-1,94
 104 65 104 65 98 49 c 1,95,96
 107 44 107 44 117.5 40.5 c 128,-1,97
 128 37 128 37 139 33 c 2,98,-1
 141 32 l 2,99,100
 151 28 151 28 163 25.5 c 128,-1,101
 175 23 175 23 187 22 c 1,102,-1
 188 21 l 1,103,104
 196 20 196 20 206 19.5 c 128,-1,105
 216 19 216 19 226 19 c 0,106,107
 229 19 229 19 231.5 19 c 128,-1,108
 234 19 234 19 237 19 c 1,109,-1
 236 19 l 1,110,111
 258 20 258 20 250 16 c 0,112,113
 244 12 244 12 237 9.5 c 128,-1,114
 230 7 230 7 223 5 c 2,115,-1
 222 4 l 2,116,117
 216 2 216 2 210 0.5 c 128,-1,118
 204 -1 204 -1 197 -1 c 0,119,120
 196 -1 196 -1 195 -1 c 128,-1,121
 194 -1 194 -1 193 -1 c 0,122,123
 189 0 189 0 184 1.5 c 128,-1,124
 179 3 179 3 173 5 c 0,125,126
 164 8 164 8 156 11.5 c 128,-1,127
 148 15 148 15 141 18 c 1,128,-1
 142 18 l 1,129,130
 124 27 124 27 94 42 c 1,131,132
 89 37 89 37 82.5 32 c 128,-1,133
 76 27 76 27 69 23 c 0,134,135
 64 20 64 20 57.5 17.5 c 128,-1,136
 51 15 51 15 45 14 c 128,-1,137
 39 13 39 13 38.5 14 c 128,-1,138
 38 15 38 15 44 17 c 0,139,140
 50 20 50 20 55 23 c 128,-1,141
 60 26 60 26 65 30 c 128,-1,142
 70 34 70 34 74.5 38.5 c 128,-1,143
 79 43 79 43 82 48 c 1,144,-1
 83 48 l 1,145,146
 79 50 79 50 75 52 c 128,-1,147
 71 54 71 54 66 55 c 0,0,1
EndSplineSet
Validated: 37
EndChar

StartChar: uniE92E
Encoding: 59694 59694 48
Width: 241
GlyphClass: 1
Flags: W
LayerCount: 2
Fore
SplineSet
62 125 m 0,0,1
 60 125 60 125 59 125 c 128,-1,2
 58 125 58 125 56 125 c 0,3,4
 52 125 52 125 49 126 c 128,-1,5
 46 127 46 127 44 129 c 0,6,7
 40 132 40 132 40 133.5 c 128,-1,8
 40 135 40 135 44 135 c 0,9,10
 50 135 50 135 56 135.5 c 128,-1,11
 62 136 62 136 66 138 c 1,12,-1
 66 138 l 1,13,14
 74 139 74 139 81 140.5 c 128,-1,15
 88 142 88 142 94 144 c 1,16,-1
 92 143 l 1,17,18
 98 144 98 144 103 146.5 c 128,-1,19
 108 149 108 149 114 152 c 1,20,-1
 112 152 l 1,21,22
 116 154 116 154 122 154 c 0,23,24
 128 153 128 153 132 148 c 0,25,26
 136 144 136 144 137 141 c 128,-1,27
 138 138 138 138 134 137 c 0,28,29
 128 135 128 135 123 133 c 128,-1,30
 118 131 118 131 114 128 c 1,31,-1
 114 129 l 1,32,33
 106 123 106 123 98 116 c 128,-1,34
 90 109 90 109 84 101 c 1,35,-1
 84 100 l 1,36,37
 76 92 76 92 70 82.5 c 128,-1,38
 64 73 64 73 58 63 c 1,39,-1
 58 62 l 2,40,41
 56 57 56 57 54 51.5 c 128,-1,42
 52 46 52 46 52 40 c 0,43,44
 52 39 52 39 52 37.5 c 128,-1,45
 52 36 52 36 52 35 c 0,46,47
 54 30 54 30 56 26.5 c 128,-1,48
 58 23 58 23 62 20 c 0,49,50
 66 18 66 18 72 16 c 128,-1,51
 78 14 78 14 84 13 c 128,-1,52
 90 12 90 12 97 11.5 c 128,-1,53
 104 11 104 11 112 11 c 0,54,55
 114 11 114 11 117 11 c 128,-1,56
 120 11 120 11 122 11 c 0,57,58
 132 11 132 11 141 12 c 128,-1,59
 150 13 150 13 158 15 c 1,60,-1
 156 15 l 1,61,62
 162 16 162 16 167 18 c 128,-1,63
 172 20 172 20 176 22 c 1,64,-1
 176 21 l 1,65,66
 180 23 180 23 182 26 c 128,-1,67
 184 29 184 29 186 33 c 0,68,69
 186 38 186 38 188 43.5 c 128,-1,70
 190 49 190 49 192 57 c 128,-1,71
 194 65 194 65 195 63.5 c 128,-1,72
 196 62 196 62 196 51 c 0,73,74
 196 50 196 50 196 49 c 128,-1,75
 196 48 196 48 196 46 c 0,76,77
 196 40 196 40 197 34.5 c 128,-1,78
 198 29 198 29 200 24 c 1,79,-1
 200 25 l 1,80,81
 200 24 200 24 201 22.5 c 128,-1,82
 202 21 202 21 202 19 c 256,83,84
 202 17 202 17 202 16 c 128,-1,85
 202 15 202 15 200 14 c 0,86,87
 194 10 194 10 188 6.5 c 128,-1,88
 182 3 182 3 174 2 c 0,89,90
 164 -1 164 -1 152 -3 c 128,-1,91
 140 -5 140 -5 126 -5 c 0,92,93
 124 -5 124 -5 123 -5 c 128,-1,94
 122 -5 122 -5 121 -5 c 128,-1,95
 120 -5 120 -5 119 -5 c 128,-1,96
 118 -5 118 -5 118 -5 c 2,97,98
 106 -5 106 -5 94 -3.5 c 128,-1,99
 82 -2 82 -2 72 0 c 1,100,-1
 72 0 l 1,101,102
 66 1 66 1 59 4 c 128,-1,103
 52 7 52 7 48 12 c 256,104,105
 44 17 44 17 42 22.5 c 128,-1,106
 40 28 40 28 38 35 c 0,107,108
 38 36 38 36 38 36.5 c 128,-1,109
 38 37 38 37 38 38 c 0,110,111
 38 47 38 47 41 55 c 128,-1,112
 44 63 44 63 48 70 c 0,113,114
 58 89 58 89 71 105 c 128,-1,115
 84 121 84 121 98 135 c 1,116,117
 84 131 84 131 75 129 c 128,-1,118
 66 127 66 127 62 125 c 0,0,1
EndSplineSet
Validated: 1
EndChar

StartChar: uniE92F
Encoding: 59695 59695 49
Width: 260
GlyphClass: 1
Flags: W
LayerCount: 2
Fore
SplineSet
139 163 m 0,0,1
 142 162 142 162 144.5 161 c 128,-1,2
 147 160 147 160 149 158 c 0,3,4
 156 153 156 153 156 152 c 128,-1,5
 156 151 156 151 154.5 149.5 c 128,-1,6
 153 148 153 148 151 147 c 256,7,8
 149 146 149 146 147 139.5 c 128,-1,9
 145 133 145 133 143 121 c 0,10,11
 141 114 141 114 140 105.5 c 128,-1,12
 139 97 139 97 139 88 c 0,13,14
 139 82 139 82 139 76.5 c 128,-1,15
 139 71 139 71 140 65 c 1,16,-1
 140 66 l 1,17,18
 141 59 141 59 143 53.5 c 128,-1,19
 145 48 145 48 148 42 c 128,-1,20
 151 36 151 36 155 31 c 128,-1,21
 159 26 159 26 163 22 c 0,22,23
 168 18 168 18 173 15 c 0,24,25
 179 11 179 11 185 9 c 0,26,27
 197 4 197 4 201 6 c 0,28,29
 203 7 203 7 204.5 11 c 128,-1,30
 206 15 206 15 208 24 c 0,31,32
 210 32 210 32 212 36.5 c 128,-1,33
 214 41 214 41 215 41 c 128,-1,34
 216 41 216 41 216.5 36.5 c 128,-1,35
 217 32 217 32 217 22 c 0,36,37
 217 21 217 21 216.5 20 c 128,-1,38
 216 19 216 19 216 18 c 0,39,40
 216 12 216 12 217 6.5 c 128,-1,41
 218 1 218 1 220 -5 c 1,42,-1
 220 -4 l 1,43,44
 221 -8 221 -8 221.5 -10.5 c 128,-1,45
 222 -13 222 -13 220 -13 c 0,46,47
 219 -13 219 -13 217.5 -13 c 128,-1,48
 216 -13 216 -13 215 -13 c 256,49,50
 214 -13 214 -13 212 -13 c 128,-1,51
 210 -13 210 -13 209 -13 c 0,52,53
 204 -13 204 -13 199.5 -12 c 128,-1,54
 195 -11 195 -11 191 -10 c 1,55,-1
 192 -10 l 1,56,57
 184 -8 184 -8 177.5 -4.5 c 128,-1,58
 171 -1 171 -1 165 3 c 1,59,-1
 166 3 l 1,60,61
 159 8 159 8 152.5 14.5 c 128,-1,62
 146 21 146 21 142 28 c 1,63,-1
 141 28 l 1,64,65
 137 34 137 34 134.5 41.5 c 128,-1,66
 132 49 132 49 131 57 c 0,67,68
 130 64 130 64 129 71.5 c 128,-1,69
 128 79 128 79 128 87 c 0,70,71
 128 88 128 88 128 88.5 c 128,-1,72
 128 89 128 89 128 89 c 2,73,74
 128 99 128 99 129 108 c 128,-1,75
 130 117 130 117 131 126 c 1,76,-1
 131 125 l 1,77,78
 132 128 132 128 132 131 c 128,-1,79
 132 134 132 134 132 137 c 0,80,81
 132 139 132 139 132 141 c 128,-1,82
 132 143 132 143 132 145 c 1,83,84
 126 144 126 144 121 143 c 128,-1,85
 116 142 116 142 112 140 c 0,86,87
 105 138 105 138 96.5 135.5 c 128,-1,88
 88 133 88 133 78 131 c 2,89,-1
 76 131 l 2,90,91
 71 130 71 130 65.5 128.5 c 128,-1,92
 60 127 60 127 54 127 c 0,93,94
 51 127 51 127 48.5 128 c 128,-1,95
 46 129 46 129 44 131 c 2,96,-1
 39 135 l 2,97,98
 39 136 39 136 42 137 c 128,-1,99
 45 138 45 138 51 138 c 0,100,101
 57 139 57 139 65 140 c 128,-1,102
 73 141 73 141 82 143 c 256,103,104
 91 145 91 145 100 147 c 128,-1,105
 109 149 109 149 117 152 c 1,106,-1
 116 152 l 1,107,108
 121 153 121 153 125.5 155 c 128,-1,109
 130 157 130 157 133 160 c 0,110,111
 134 162 134 162 135.5 162.5 c 128,-1,112
 137 163 137 163 139 163 c 0,0,1
EndSplineSet
Validated: 33
EndChar

StartChar: uniE930
Encoding: 59696 59696 50
Width: 280
GlyphClass: 1
Flags: W
LayerCount: 2
Fore
SplineSet
164 121 m 0,0,1
 165 123 165 123 167 124 c 128,-1,2
 169 125 169 125 172 125 c 0,3,4
 173 125 173 125 173.5 124.5 c 128,-1,5
 174 124 174 124 175 124 c 0,6,7
 179 123 179 123 182 122 c 128,-1,8
 185 121 185 121 188 119 c 1,9,-1
 187 120 l 1,10,11
 190 118 190 118 190.5 116 c 128,-1,12
 191 114 191 114 188 111 c 0,13,14
 185 107 185 107 183.5 102.5 c 128,-1,15
 182 98 182 98 182 93 c 0,16,17
 181 87 181 87 180 80.5 c 128,-1,18
 179 74 179 74 178 67 c 128,-1,19
 177 60 177 60 174.5 54.5 c 128,-1,20
 172 49 172 49 168 44 c 0,21,22
 164 40 164 40 161.5 39.5 c 128,-1,23
 159 39 159 39 158 43 c 0,24,25
 156 47 156 47 153 51 c 128,-1,26
 150 55 150 55 146 57 c 0,27,28
 141 60 141 60 141 61.5 c 128,-1,29
 141 63 141 63 144 62 c 0,30,31
 146 61 146 61 149.5 60.5 c 128,-1,32
 153 60 153 60 155 60 c 2,33,34
 155 60 155 60 156 60 c 128,-1,35
 157 60 157 60 157 60 c 2,36,37
 159 60 159 60 161.5 63.5 c 128,-1,38
 164 67 164 67 165 72 c 0,39,40
 166 78 166 78 167 84.5 c 128,-1,41
 168 91 168 91 168 98 c 128,-1,42
 168 105 168 105 166 107 c 128,-1,43
 164 109 164 109 160 106 c 0,44,45
 155 103 155 103 148.5 98.5 c 128,-1,46
 142 94 142 94 133 88 c 1,47,48
 133 74 133 74 133 64 c 128,-1,49
 133 54 133 54 133 49 c 128,-1,50
 133 44 133 44 131.5 38.5 c 128,-1,51
 130 33 130 33 128 28 c 1,52,-1
 128 29 l 1,53,54
 126 25 126 25 125 26 c 128,-1,55
 124 27 124 27 123 33 c 128,-1,56
 122 39 122 39 121.5 50.5 c 128,-1,57
 121 62 121 62 121 79 c 1,58,59
 114 75 114 75 107.5 70 c 128,-1,60
 101 65 101 65 94 60 c 0,61,62
 94 59 94 59 94 58.5 c 128,-1,63
 94 58 94 58 94 57 c 0,64,65
 94 49 94 49 94.5 41 c 128,-1,66
 95 33 95 33 97 26 c 1,67,-1
 96 27 l 1,68,69
 97 21 97 21 99.5 16.5 c 128,-1,70
 102 12 102 12 106 8 c 0,71,72
 111 5 111 5 116.5 2.5 c 128,-1,73
 122 0 122 0 128 -1 c 128,-1,74
 134 -2 134 -2 140.5 -2 c 128,-1,75
 147 -2 147 -2 153 -2 c 0,76,77
 160 -2 160 -2 166.5 -2 c 128,-1,78
 173 -2 173 -2 180 -1 c 1,79,-1
 179 -1 l 1,80,81
 197 0 197 0 207 3 c 128,-1,82
 217 6 217 6 220 10 c 0,83,84
 223 16 223 16 225.5 22 c 128,-1,85
 228 28 228 28 228 35 c 2,86,-1
 228 36 l 2,87,88
 229 45 229 45 230.5 44 c 128,-1,89
 232 43 232 43 232 33 c 2,90,91
 232 33 232 33 232 32.5 c 128,-1,92
 232 32 232 32 232 31 c 0,93,94
 232 24 232 24 234 17.5 c 128,-1,95
 236 11 236 11 239 6 c 0,96,97
 242 2 242 2 241 -1 c 128,-1,98
 240 -4 240 -4 235 -6 c 0,99,100
 229 -8 229 -8 223 -10 c 128,-1,101
 217 -12 217 -12 211 -13 c 2,102,-1
 210 -13 l 2,103,104
 201 -15 201 -15 190.5 -16 c 128,-1,105
 180 -17 180 -17 170 -17 c 0,106,107
 168 -17 168 -17 166.5 -17 c 128,-1,108
 165 -17 165 -17 163 -17 c 0,109,110
 162 -17 162 -17 160.5 -17 c 128,-1,111
 159 -17 159 -17 158 -17 c 0,112,113
 146 -17 146 -17 134.5 -15.5 c 128,-1,114
 123 -14 123 -14 112 -11 c 1,115,-1
 114 -11 l 1,116,117
 106 -9 106 -9 100 -4 c 128,-1,118
 94 1 94 1 90 8 c 0,119,120
 86 17 86 17 84 27 c 128,-1,121
 82 37 82 37 82 48 c 0,122,123
 82 50 82 50 82 51.5 c 128,-1,124
 82 53 82 53 83 55 c 1,125,-1
 82 54 l 1,126,127
 62 40 62 40 59 37 c 0,128,129
 57 35 57 35 53 35.5 c 128,-1,130
 49 36 49 36 44 37 c 0,131,132
 39 39 39 39 38.5 40.5 c 128,-1,133
 38 42 38 42 43 44 c 0,134,135
 55 49 55 49 64.5 54 c 128,-1,136
 74 59 74 59 83 65 c 1,137,-1
 82 65 l 1,138,139
 82 66 82 66 82.5 66.5 c 128,-1,140
 83 67 83 67 83 69 c 0,141,142
 83 77 83 77 81.5 85 c 128,-1,143
 80 93 80 93 76 101 c 1,144,-1
 77 100 l 1,145,146
 75 104 75 104 75 106 c 128,-1,147
 75 108 75 108 79 107 c 128,-1,148
 83 106 83 106 86 105.5 c 128,-1,149
 89 105 89 105 92 103 c 0,150,151
 95 102 95 102 96 100.5 c 128,-1,152
 97 99 97 99 96 96 c 0,153,154
 95 91 95 91 94 86 c 128,-1,155
 93 81 93 81 93 75 c 0,156,157
 93 74 93 74 93 73 c 128,-1,158
 93 72 93 72 94 70 c 1,159,-1
 94 71 l 1,160,161
 102 76 102 76 108.5 80.5 c 128,-1,162
 115 85 115 85 121 90 c 1,163,-1
 120 89 l 1,164,165
 120 110 120 110 120 123.5 c 128,-1,166
 120 137 120 137 119 143 c 0,167,168
 119 148 119 148 117.5 153 c 128,-1,169
 116 158 116 158 114 162 c 0,170,171
 112 165 112 165 112.5 166 c 128,-1,172
 113 167 113 167 117 166 c 128,-1,173
 121 165 121 165 125 164 c 128,-1,174
 129 163 129 163 132 162 c 1,175,-1
 131 162 l 1,176,177
 135 161 135 161 136 158.5 c 128,-1,178
 137 156 137 156 135 153 c 128,-1,179
 133 150 133 150 132.5 136 c 128,-1,180
 132 122 132 122 133 97 c 1,181,182
 141 103 141 103 149 108.5 c 128,-1,183
 157 114 157 114 164 121 c 0,0,1
EndSplineSet
Validated: 37
EndChar

StartChar: uniE931
Encoding: 59697 59697 51
Width: 279
GlyphClass: 1
Flags: W
LayerCount: 2
Fore
SplineSet
165 98 m 1,0,1
 172 104 172 104 177 111 c 128,-1,2
 182 118 182 118 186 126 c 0,3,4
 189 131 189 131 191.5 136.5 c 128,-1,5
 194 142 194 142 195 149 c 0,6,7
 195 153 195 153 196.5 154 c 128,-1,8
 198 155 198 155 201 153 c 0,9,10
 205 151 205 151 208 149 c 128,-1,11
 211 147 211 147 213 144 c 0,12,13
 216 141 216 141 216.5 139.5 c 128,-1,14
 217 138 217 138 214 137 c 0,15,16
 210 134 210 134 207 131 c 128,-1,17
 204 128 204 128 200 125 c 0,18,19
 195 120 195 120 188 113 c 128,-1,20
 181 106 181 106 172 97 c 1,21,22
 180 95 180 95 186.5 92 c 128,-1,23
 193 89 193 89 199 84 c 0,24,25
 204 80 204 80 205 75.5 c 128,-1,26
 206 71 206 71 205 67 c 128,-1,27
 204 63 204 63 199 64.5 c 128,-1,28
 194 66 194 66 186 73 c 0,29,30
 179 79 179 79 171 84.5 c 128,-1,31
 163 90 163 90 154 94 c 1,32,-1
 153 94 l 1,33,34
 153 93 153 93 153 92.5 c 128,-1,35
 153 92 153 92 153 91 c 0,36,37
 153 81 153 81 154 70.5 c 128,-1,38
 155 60 155 60 156 51 c 1,39,-1
 156 52 l 1,40,41
 158 43 158 43 162 36 c 128,-1,42
 166 29 166 29 172 24 c 128,-1,43
 178 19 178 19 185 15 c 128,-1,44
 192 11 192 11 200 9 c 2,45,-1
 201 9 l 2,46,47
 209 8 209 8 213.5 9 c 128,-1,48
 218 10 218 10 219 13 c 0,49,50
 221 19 221 19 223 26.5 c 128,-1,51
 225 34 225 34 226 41 c 2,52,-1
 226 42 l 2,53,54
 228 53 228 53 229.5 51.5 c 128,-1,55
 231 50 231 50 232 37 c 0,56,57
 232 27 232 27 234 17 c 128,-1,58
 236 7 236 7 239 -3 c 1,59,-1
 239 -2 l 1,60,61
 242 -8 242 -8 238 -10.5 c 128,-1,62
 234 -13 234 -13 223 -12 c 128,-1,63
 212 -11 212 -11 201.5 -8 c 128,-1,64
 191 -5 191 -5 182 0 c 0,65,66
 172 5 172 5 164.5 12.5 c 128,-1,67
 157 20 157 20 153 29 c 1,68,-1
 152 29 l 1,69,70
 147 39 147 39 144 51.5 c 128,-1,71
 141 64 141 64 141 77 c 0,72,73
 141 81 141 81 141 85 c 128,-1,74
 141 89 141 89 141 93 c 0,75,76
 141 101 141 101 141 109.5 c 128,-1,77
 141 118 141 118 142 126 c 1,78,-1
 142 125 l 1,79,80
 143 135 143 135 143 139.5 c 128,-1,81
 143 144 143 144 142 145 c 0,82,83
 137 145 137 145 133 144.5 c 128,-1,84
 129 144 129 144 125 143 c 0,85,86
 118 142 118 142 108.5 141 c 128,-1,87
 99 140 99 140 88 137 c 0,88,89
 80 136 80 136 72.5 134 c 128,-1,90
 65 132 65 132 58 130 c 1,91,-1
 59 130 l 1,92,93
 56 129 56 129 52.5 130.5 c 128,-1,94
 49 132 49 132 43 136 c 0,95,96
 38 140 38 140 38 141.5 c 128,-1,97
 38 143 38 143 43 143 c 0,98,99
 44 143 44 143 45 143 c 128,-1,100
 46 143 46 143 47 143 c 0,101,102
 54 143 54 143 61 143.5 c 128,-1,103
 68 144 68 144 74 145 c 1,104,-1
 73 145 l 1,105,106
 83 146 83 146 93 147.5 c 128,-1,107
 103 149 103 149 114 151 c 0,108,109
 121 152 121 152 127.5 154 c 128,-1,110
 134 156 134 156 140 159 c 1,111,-1
 139 159 l 1,112,113
 140 160 140 160 142 161 c 128,-1,114
 144 162 144 162 147 162 c 0,115,116
 148 162 148 162 149 161.5 c 128,-1,117
 150 161 150 161 151 161 c 0,118,119
 155 160 155 160 159 158 c 128,-1,120
 163 156 163 156 166 154 c 1,121,-1
 166 155 l 1,122,123
 170 153 170 153 169.5 150 c 128,-1,124
 169 147 169 147 165 143 c 0,125,126
 161 140 161 140 158 128.5 c 128,-1,127
 155 117 155 117 154 97 c 1,128,-1
 165 98 l 1,0,1
EndSplineSet
Validated: 33
EndChar

StartChar: uniE932
Encoding: 59698 59698 52
Width: 271
GlyphClass: 1
Flags: W
LayerCount: 2
Fore
SplineSet
134 92 m 0,0,1
 136 93 136 93 137 93.5 c 128,-1,2
 138 94 138 94 140 94 c 2,3,4
 140 94 140 94 141 94 c 128,-1,5
 142 94 142 94 142 93 c 0,6,7
 146 92 146 92 148 91.5 c 128,-1,8
 150 91 150 91 152 89 c 0,9,10
 154 88 154 88 154 86.5 c 128,-1,11
 154 85 154 85 154 83 c 0,12,13
 152 81 152 81 151 79 c 128,-1,14
 150 77 150 77 148 75 c 0,15,16
 148 70 148 70 148 65 c 0,17,18
 146 61 146 61 146 55 c 0,19,20
 146 54 146 54 146 52 c 128,-1,21
 146 50 146 50 146 49 c 1,22,23
 150 49 150 49 154 49 c 128,-1,24
 158 49 158 49 160 49 c 2,25,26
 160 49 160 49 161 49 c 128,-1,27
 162 49 162 49 162 49 c 1,28,29
 168 56 168 56 171 60.5 c 128,-1,30
 174 65 174 65 173 67 c 128,-1,31
 172 69 172 69 173 70 c 128,-1,32
 174 71 174 71 177 70 c 128,-1,33
 180 69 180 69 183 67.5 c 128,-1,34
 186 66 186 66 188 64 c 128,-1,35
 190 62 190 62 189 60.5 c 128,-1,36
 188 59 188 59 186 58 c 0,37,38
 180 55 180 55 174 52 c 128,-1,39
 168 49 168 49 164 46 c 1,40,-1
 164 46 l 1,41,42
 172 46 172 46 178 43.5 c 128,-1,43
 184 41 184 41 188 36 c 0,44,45
 192 32 192 32 192 29.5 c 128,-1,46
 192 27 192 27 192 25 c 0,47,48
 190 24 190 24 189 23.5 c 128,-1,49
 188 23 188 23 187 23 c 128,-1,50
 186 23 186 23 185 23 c 128,-1,51
 184 23 184 23 182 24 c 1,52,-1
 184 24 l 1,53,54
 182 25 182 25 178 27.5 c 128,-1,55
 174 30 174 30 168 33 c 0,56,57
 164 36 164 36 159 39.5 c 128,-1,58
 154 43 154 43 148 46 c 1,59,60
 148 36 148 36 153 27 c 128,-1,61
 158 18 158 18 164 11 c 0,62,63
 168 6 168 6 175 2.5 c 128,-1,64
 182 -1 182 -1 188 -4 c 2,65,-1
 190 -4 l 2,66,67
 192 -5 192 -5 196 -5.5 c 128,-1,68
 200 -6 200 -6 202 -6 c 256,69,70
 204 -6 204 -6 205 -6 c 128,-1,71
 206 -6 206 -6 208 -5 c 256,72,73
 210 -4 210 -4 212 -2 c 128,-1,74
 214 0 214 0 214 2 c 0,75,76
 216 7 216 7 217 13 c 128,-1,77
 218 19 218 19 220 25 c 2,78,-1
 220 26 l 2,79,80
 220 35 220 35 221 33.5 c 128,-1,81
 222 32 222 32 224 21 c 0,82,83
 224 13 224 13 226 5 c 128,-1,84
 228 -3 228 -3 230 -9 c 0,85,86
 232 -12 232 -12 232 -14.5 c 128,-1,87
 232 -17 232 -17 230 -19 c 0,88,89
 226 -20 226 -20 221 -20.5 c 128,-1,90
 216 -21 216 -21 212 -21 c 0,91,92
 210 -21 210 -21 208 -21 c 128,-1,93
 206 -21 206 -21 204 -21 c 0,94,95
 184 -20 184 -20 169 -9.5 c 128,-1,96
 154 1 154 1 146 18 c 0,97,98
 142 25 142 25 140 34 c 128,-1,99
 138 43 138 43 138 52 c 0,100,101
 136 70 136 70 136 76 c 0,102,103
 136 80 136 80 135 81.5 c 128,-1,104
 134 83 134 83 132 82 c 128,-1,105
 130 81 130 81 126 80 c 128,-1,106
 122 79 122 79 116 78 c 1,107,108
 116 53 116 53 116 37 c 128,-1,109
 116 21 116 21 118 14 c 0,110,111
 118 12 118 12 118 10.5 c 128,-1,112
 118 9 118 9 118 7 c 0,113,114
 118 2 118 2 117 -2.5 c 128,-1,115
 116 -7 116 -7 116 -12 c 1,116,-1
 116 -11 l 1,117,118
 114 -17 114 -17 113 -18.5 c 128,-1,119
 112 -20 112 -20 110 -19 c 0,120,121
 108 -17 108 -17 107 -14.5 c 128,-1,122
 106 -12 106 -12 106 -9 c 0,123,124
 104 -7 104 -7 104 -6 c 0,125,126
 104 -3 104 -3 104 -1 c 0,127,128
 104 0 104 0 104 0.5 c 128,-1,129
 104 1 104 1 104 2 c 0,130,131
 104 6 104 6 105 10.5 c 128,-1,132
 106 15 106 15 106 19 c 0,133,134
 106 25 106 25 107 39 c 128,-1,135
 108 53 108 53 108 75 c 1,136,137
 102 74 102 74 97 73 c 128,-1,138
 92 72 92 72 88 70 c 1,139,-1
 90 71 l 1,140,141
 88 60 88 60 87 49.5 c 128,-1,142
 86 39 86 39 82 29 c 1,143,-1
 82 30 l 1,144,145
 80 22 80 22 77 15 c 128,-1,146
 74 8 74 8 68 2 c 0,147,148
 64 -3 64 -3 58 -7 c 128,-1,149
 52 -11 52 -11 46 -14 c 0,150,151
 38 -17 38 -17 38 -16.5 c 128,-1,152
 38 -16 38 -16 46 -11 c 0,153,154
 52 -5 52 -5 58 3 c 128,-1,155
 64 11 64 11 68 19 c 1,156,-1
 68 20 l 1,157,158
 74 30 74 30 77 41.5 c 128,-1,159
 80 53 80 53 80 65 c 0,160,161
 80 66 80 66 80 66.5 c 128,-1,162
 80 67 80 67 80 68 c 1,163,164
 74 66 74 66 69 64.5 c 128,-1,165
 64 63 64 63 58 60 c 1,166,-1
 60 61 l 1,167,168
 58 60 58 60 57 59.5 c 128,-1,169
 56 59 56 59 56 59 c 2,170,171
 54 59 54 59 53 59.5 c 128,-1,172
 52 60 52 60 52 60 c 2,173,174
 50 61 50 61 48 62.5 c 128,-1,175
 46 64 46 64 44 65 c 1,176,-1
 44 65 l 1,177,178
 42 67 42 67 43 68 c 128,-1,179
 44 69 44 69 48 70 c 0,180,181
 56 71 56 71 65 72.5 c 128,-1,182
 74 74 74 74 82 76 c 1,183,-1
 80 76 l 1,184,185
 80 77 80 77 80 78 c 128,-1,186
 80 79 80 79 80 81 c 0,187,188
 80 86 80 86 79 91 c 128,-1,189
 78 96 78 96 76 101 c 1,190,-1
 76 100 l 1,191,192
 72 99 72 99 68 98 c 128,-1,193
 64 97 64 97 60 96 c 1,194,-1
 60 96 l 1,195,196
 56 96 56 96 57 97 c 128,-1,197
 58 98 58 98 62 100 c 0,198,199
 66 103 66 103 69 106 c 128,-1,200
 72 109 72 109 76 112 c 0,201,202
 80 116 80 116 82 118.5 c 128,-1,203
 84 121 84 121 82 123 c 0,204,205
 82 125 82 125 84 125 c 128,-1,206
 86 125 86 125 89 124 c 128,-1,207
 92 123 92 123 94 121.5 c 128,-1,208
 96 120 96 120 97 118 c 128,-1,209
 98 116 98 116 98 115 c 128,-1,210
 98 114 98 114 96 113 c 0,211,212
 92 111 92 111 86 108 c 0,213,214
 82 105 82 105 78 103 c 1,215,-1
 78 104 l 1,216,217
 80 103 80 103 83 102 c 128,-1,218
 86 101 86 101 88 99 c 0,219,220
 88 98 88 98 89 97 c 128,-1,221
 90 96 90 96 90 94 c 2,222,223
 90 94 90 94 90 93.5 c 128,-1,224
 90 93 90 93 90 93 c 2,225,226
 90 90 90 90 90 86.5 c 128,-1,227
 90 83 90 83 88 79 c 1,228,229
 92 80 92 80 97 81 c 128,-1,230
 102 82 102 82 106 83 c 1,231,232
 106 93 106 93 106 100.5 c 128,-1,233
 106 108 106 108 106 113 c 0,234,235
 106 117 106 117 105 120.5 c 128,-1,236
 104 124 104 124 103 127 c 128,-1,237
 102 130 102 130 102 131.5 c 128,-1,238
 102 133 102 133 104 132 c 0,239,240
 108 132 108 132 111 130.5 c 128,-1,241
 114 129 114 129 116 128 c 256,242,243
 118 127 118 127 119 125.5 c 128,-1,244
 120 124 120 124 120 122 c 0,245,246
 118 119 118 119 117 115.5 c 128,-1,247
 116 112 116 112 116 108 c 2,248,249
 116 108 116 108 116 107.5 c 128,-1,250
 116 107 116 107 116 107 c 2,251,252
 116 102 116 102 116 96.5 c 128,-1,253
 116 91 116 91 116 85 c 1,254,255
 122 86 122 86 126 88 c 128,-1,256
 130 90 130 90 134 92 c 0,0,1
164 134 m 1,257,258
 170 138 170 138 173 143 c 128,-1,259
 176 148 176 148 178 154 c 0,260,261
 178 157 178 157 179 158 c 128,-1,262
 180 159 180 159 182 158 c 128,-1,263
 184 157 184 157 187 155.5 c 128,-1,264
 190 154 190 154 192 152 c 128,-1,265
 194 150 194 150 194 148.5 c 128,-1,266
 194 147 194 147 192 146 c 0,267,268
 186 143 186 143 181 139.5 c 128,-1,269
 176 136 176 136 170 133 c 1,270,271
 180 131 180 131 185 127.5 c 128,-1,272
 190 124 190 124 191 120 c 128,-1,273
 192 116 192 116 190 115 c 128,-1,274
 188 114 188 114 182 116 c 0,275,276
 178 119 178 119 171 122.5 c 128,-1,277
 164 126 164 126 156 130 c 1,278,279
 156 129 156 129 156 128 c 128,-1,280
 156 127 156 127 156 125 c 0,281,282
 156 119 156 119 158 114 c 0,283,284
 160 107 160 107 162 103 c 1,285,-1
 162 104 l 1,286,287
 166 99 166 99 172 96 c 128,-1,288
 178 93 178 93 184 93 c 0,289,290
 190 92 190 92 194 92.5 c 128,-1,291
 198 93 198 93 200 95 c 0,292,293
 200 99 200 99 201 103 c 128,-1,294
 202 107 202 107 204 111 c 0,295,296
 204 117 204 117 205 116.5 c 128,-1,297
 206 116 206 116 206 110 c 0,298,299
 206 105 206 105 208 100.5 c 128,-1,300
 210 96 210 96 212 92 c 0,301,302
 214 90 214 90 213 87.5 c 128,-1,303
 212 85 212 85 208 83 c 0,304,305
 204 82 204 82 200 81 c 128,-1,306
 196 80 196 80 192 80 c 0,307,308
 190 80 190 80 189 80 c 128,-1,309
 188 80 188 80 186 81 c 0,310,311
 178 81 178 81 172 84 c 128,-1,312
 166 87 166 87 160 91 c 0,313,314
 154 96 154 96 151 102.5 c 128,-1,315
 148 109 148 109 148 117 c 0,316,317
 148 121 148 121 147 124 c 128,-1,318
 146 127 146 127 146 131 c 256,319,320
 146 135 146 135 146 138.5 c 128,-1,321
 146 142 146 142 148 146 c 1,322,-1
 148 145 l 1,323,324
 148 151 148 151 147 154 c 128,-1,325
 146 157 146 157 144 157 c 128,-1,326
 142 157 142 157 137 155 c 128,-1,327
 132 153 132 153 122 150 c 0,328,329
 114 148 114 148 107 146 c 128,-1,330
 100 144 100 144 97 144 c 128,-1,331
 94 144 94 144 91 145 c 128,-1,332
 88 146 88 146 86 148 c 0,333,334
 80 153 80 153 88 153 c 1,335,336
 88 153 88 153 88 153 c 129,-1,337
 88 153 88 153 88 153 c 1,338,339
 94 153 94 153 98 153.5 c 128,-1,340
 102 154 102 154 108 155 c 1,341,-1
 106 155 l 1,342,343
 112 156 112 156 118 157.5 c 128,-1,344
 124 159 124 159 128 161 c 1,345,-1
 126 161 l 1,346,347
 132 162 132 162 136 164 c 128,-1,348
 140 166 140 166 144 168 c 0,349,350
 144 169 144 169 146 170 c 128,-1,351
 148 171 148 171 150 171 c 256,352,353
 152 171 152 171 152 171 c 129,-1,354
 152 171 152 171 154 170 c 0,355,356
 156 170 156 170 159 169 c 128,-1,357
 162 168 162 168 164 166 c 1,358,-1
 164 167 l 1,359,360
 170 163 170 163 164 158 c 0,361,362
 160 153 160 153 158 147 c 128,-1,363
 156 141 156 141 156 134 c 1,364,-1
 164 134 l 1,257,258
EndSplineSet
Validated: 37
EndChar

StartChar: uniE933
Encoding: 59699 59699 53
Width: 245
GlyphClass: 1
Flags: W
LayerCount: 2
Fore
SplineSet
82 87 m 0,0,1
 77 86 77 86 72 85 c 128,-1,2
 67 84 67 84 61 84 c 1,3,-1
 61 77 l 1,4,5
 72 72 72 72 82 67 c 128,-1,6
 92 62 92 62 101 56 c 1,7,8
 105 59 105 59 108.5 63 c 128,-1,9
 112 67 112 67 116 71 c 0,10,11
 119 75 119 75 121 79 c 128,-1,12
 123 83 123 83 124 87 c 0,13,14
 124 92 124 92 131 89 c 2,15,-1
 144 83 l 2,16,17
 147 82 147 82 146 79.5 c 128,-1,18
 145 77 145 77 140 75 c 0,19,20
 130 69 130 69 121.5 63 c 128,-1,21
 113 57 113 57 105 51 c 1,22,-1
 106 52 l 1,23,24
 114 46 114 46 124 41 c 128,-1,25
 134 36 134 36 145 31 c 1,26,-1
 146 31 l 1,27,28
 155 27 155 27 166.5 24 c 128,-1,29
 178 21 178 21 189 19 c 2,30,-1
 191 19 l 2,31,32
 203 17 203 17 205.5 15.5 c 128,-1,33
 208 14 208 14 203 13 c 0,34,35
 197 12 197 12 190.5 10.5 c 128,-1,36
 184 9 184 9 177 8 c 0,37,38
 173 7 173 7 169 7 c 128,-1,39
 165 7 165 7 161 7 c 0,40,41
 160 7 160 7 158.5 7 c 128,-1,42
 157 7 157 7 155 7 c 0,43,44
 148 9 148 9 142.5 12 c 128,-1,45
 137 15 137 15 131 20 c 1,46,-1
 132 20 l 1,47,48
 116 32 116 32 92 50 c 0,49,50
 85 56 85 56 77.5 61 c 128,-1,51
 70 66 70 66 62 70 c 1,52,-1
 61 70 l 1,53,54
 60 49 60 49 60 36 c 128,-1,55
 60 23 60 23 60 18 c 0,56,57
 60 12 60 12 60.5 9.5 c 128,-1,58
 61 7 61 7 62 8 c 2,59,-1
 74 13 l 1,60,-1
 98 24 l 2,61,62
 105 27 105 27 106 26.5 c 128,-1,63
 107 26 107 26 102 22 c 128,-1,64
 97 18 97 18 90 12 c 128,-1,65
 83 6 83 6 74 -1 c 0,66,67
 65 -9 65 -9 59.5 -14 c 128,-1,68
 54 -19 54 -19 51 -21 c 0,69,70
 49 -23 49 -23 47 -23 c 128,-1,71
 45 -23 45 -23 43 -21 c 0,72,73
 42 -19 42 -19 40.5 -16.5 c 128,-1,74
 39 -14 39 -14 39 -11 c 0,75,76
 39 -10 39 -10 38.5 -9 c 128,-1,77
 38 -8 38 -8 38 -7 c 0,78,79
 38 -4 38 -4 39 -1.5 c 128,-1,80
 40 1 40 1 41 3 c 0,81,82
 43 9 43 9 45 16.5 c 128,-1,83
 47 24 47 24 48 32 c 128,-1,84
 49 40 49 40 49 49.5 c 128,-1,85
 49 59 49 59 49 69 c 0,86,87
 49 75 49 75 49 81.5 c 128,-1,88
 49 88 49 88 48 94 c 1,89,-1
 48 93 l 1,90,91
 48 106 48 106 47.5 118 c 128,-1,92
 47 130 47 130 45 142 c 1,93,-1
 45 140 l 1,94,95
 44 144 44 144 42.5 147 c 128,-1,96
 41 150 41 150 39 154 c 1,97,-1
 39 153 l 1,98,99
 38 156 38 156 39.5 156.5 c 128,-1,100
 41 157 41 157 47 156 c 0,101,102
 49 156 49 156 51 156 c 128,-1,103
 53 156 53 156 55 156 c 0,104,105
 59 156 59 156 63.5 156.5 c 128,-1,106
 68 157 68 157 72 158 c 1,107,-1
 71 158 l 1,108,109
 78 160 78 160 85.5 161.5 c 128,-1,110
 93 163 93 163 101 165 c 0,111,112
 107 166 107 166 112 168 c 128,-1,113
 117 170 117 170 122 172 c 1,114,-1
 121 171 l 1,115,116
 122 172 122 172 123.5 172.5 c 128,-1,117
 125 173 125 173 126 173 c 256,118,119
 127 173 127 173 128.5 172.5 c 128,-1,120
 130 172 130 172 132 171 c 0,121,122
 136 170 136 170 139.5 168.5 c 128,-1,123
 143 167 143 167 146 165 c 1,124,-1
 146 166 l 1,125,126
 150 164 150 164 150.5 161.5 c 128,-1,127
 151 159 151 159 148 157 c 0,128,129
 146 154 146 154 143.5 150.5 c 128,-1,130
 141 147 141 147 139 144 c 2,131,-1
 139 143 l 2,132,133
 137 138 137 138 135 132 c 128,-1,134
 133 126 133 126 132 120 c 2,135,-1
 132 119 l 2,136,137
 130 112 130 112 128 105.5 c 128,-1,138
 126 99 126 99 123 92 c 1,139,-1
 123 93 l 1,140,141
 121 88 121 88 118.5 88.5 c 128,-1,142
 116 89 116 89 113 93 c 1,143,144
 104 92 104 92 96.5 90.5 c 128,-1,145
 89 89 89 89 82 87 c 0,0,1
61 92 m 1,146,147
 76 94 76 94 89.5 97.5 c 128,-1,148
 103 101 103 101 116 105 c 1,149,-1
 113 104 l 1,150,151
 115 110 115 110 116.5 116.5 c 128,-1,152
 118 123 118 123 119 131 c 2,153,-1
 119 132 l 2,154,155
 120 137 120 137 121 143 c 128,-1,156
 122 149 122 149 123 156 c 2,157,-1
 123 157 l 2,158,159
 123 159 123 159 120 160 c 128,-1,160
 117 161 117 161 112 160 c 0,161,162
 106 159 106 159 93 156.5 c 128,-1,163
 80 154 80 154 59 149 c 0,164,165
 59 147 59 147 59 144 c 128,-1,166
 59 141 59 141 59 138 c 128,-1,167
 59 135 59 135 59 132 c 128,-1,168
 59 129 59 129 59 126 c 1,169,-1
 59 127 l 1,170,171
 65 127 65 127 71 128 c 128,-1,172
 77 129 77 129 82 132 c 0,173,174
 85 134 85 134 88 134.5 c 128,-1,175
 91 135 91 135 95 135 c 0,176,177
 96 135 96 135 96 135 c 129,-1,178
 96 135 96 135 97 135 c 0,179,180
 99 135 99 135 101 134 c 256,181,182
 103 133 103 133 105 131 c 0,183,184
 106 129 106 129 102.5 127 c 128,-1,185
 99 125 99 125 91 123 c 0,186,187
 85 122 85 122 79 121 c 128,-1,188
 73 120 73 120 66 120 c 0,189,190
 64 120 64 120 62.5 120 c 128,-1,191
 61 120 61 120 60 120 c 1,192,-1
 61 92 l 1,146,147
EndSplineSet
Validated: 37
EndChar

StartChar: uniE934
Encoding: 59700 59700 54
Width: 294
GlyphClass: 1
Flags: W
LayerCount: 2
Fore
SplineSet
221 105 m 0,0,1
 223 106 223 106 225.5 106 c 128,-1,2
 228 106 228 106 230 107 c 0,3,4
 234 106 234 106 237.5 104.5 c 128,-1,5
 241 103 241 103 244 101 c 1,6,-1
 244 102 l 1,7,8
 250 99 250 99 252.5 97 c 128,-1,9
 255 95 255 95 255 93 c 0,10,11
 255 92 255 92 254 90.5 c 128,-1,12
 253 89 253 89 251 88 c 0,13,14
 250 88 250 88 248 88 c 128,-1,15
 246 88 246 88 245 88 c 0,16,17
 243 88 243 88 241 88 c 128,-1,18
 239 88 239 88 237 88 c 1,19,-1
 238 88 l 1,20,21
 233 88 233 88 224.5 88.5 c 128,-1,22
 216 89 216 89 204 89 c 128,-1,23
 192 89 192 89 182 88.5 c 128,-1,24
 172 88 172 88 164 88 c 128,-1,25
 156 88 156 88 140.5 86 c 128,-1,26
 125 84 125 84 102 80 c 128,-1,27
 79 76 79 76 67 74.5 c 128,-1,28
 55 73 55 73 53 73 c 0,29,30
 50 74 50 74 47 75.5 c 128,-1,31
 44 77 44 77 42 79 c 0,32,33
 38 82 38 82 38.5 83.5 c 128,-1,34
 39 85 39 85 42 85 c 0,35,36
 46 85 46 85 60 86 c 128,-1,37
 74 87 74 87 98 90 c 0,38,39
 122 92 122 92 142.5 94.5 c 128,-1,40
 163 97 163 97 180 99 c 128,-1,41
 197 101 197 101 207.5 102.5 c 128,-1,42
 218 104 218 104 221 105 c 0,0,1
155 40 m 128,-1,44
 148 31 148 31 140 24 c 128,-1,45
 132 17 132 17 122 11 c 1,46,-1
 121 11 l 1,47,48
 114 6 114 6 105.5 2.5 c 128,-1,49
 97 -1 97 -1 88 -4 c 2,50,-1
 86 -4 l 2,51,52
 79 -6 79 -6 75.5 -6.5 c 128,-1,53
 72 -7 72 -7 72 -6 c 128,-1,54
 72 -5 72 -5 75.5 -3 c 128,-1,55
 79 -1 79 -1 87 3 c 0,56,57
 96 7 96 7 103.5 11.5 c 128,-1,58
 111 16 111 16 119 21 c 1,59,-1
 118 20 l 1,60,61
 126 25 126 25 132.5 32 c 128,-1,62
 139 39 139 39 145 46 c 0,63,64
 150 54 150 54 154.5 63 c 128,-1,65
 159 72 159 72 161 82 c 0,66,67
 163 86 163 86 163.5 91.5 c 128,-1,68
 164 97 164 97 164 102 c 0,69,70
 164 104 164 104 164 105.5 c 128,-1,71
 164 107 164 107 164 109 c 1,72,-1
 164 108 l 1,73,74
 164 109 164 109 163.5 110 c 128,-1,75
 163 111 163 111 163 112 c 256,76,77
 163 113 163 113 163.5 114 c 128,-1,78
 164 115 164 115 164 116 c 0,79,80
 165 117 165 117 166.5 117 c 128,-1,81
 168 117 168 117 170 116 c 128,-1,82
 172 115 172 115 174.5 113.5 c 128,-1,83
 177 112 177 112 179 111 c 0,84,85
 180 110 180 110 181 108 c 128,-1,86
 182 106 182 106 182 105 c 1,87,-1
 183 105 l 1,88,89
 181 98 181 98 179.5 91.5 c 128,-1,90
 178 85 178 85 175 79 c 1,91,-1
 176 80 l 1,92,93
 172 69 172 69 167 59 c 128,-1,43
 162 49 162 49 155 40 c 128,-1,44
116 93 m 1,94,95
 120 104 120 104 123 117 c 128,-1,96
 126 130 126 130 128 143 c 2,97,-1
 128 145 l 2,98,99
 129 156 129 156 129 162.5 c 128,-1,100
 129 169 129 169 128 170 c 128,-1,101
 127 171 127 171 126.5 172 c 128,-1,102
 126 173 126 173 126 174 c 2,103,104
 126 174 126 174 126 174.5 c 128,-1,105
 126 175 126 175 126 176 c 0,106,107
 127 177 127 177 129.5 176.5 c 128,-1,108
 132 176 132 176 138 175 c 0,109,110
 143 173 143 173 146 171 c 128,-1,111
 149 169 149 169 149 166 c 0,112,113
 149 164 149 164 148.5 161.5 c 128,-1,114
 148 159 148 159 147 157 c 0,115,116
 145 152 145 152 143.5 145.5 c 128,-1,117
 142 139 142 139 140 133 c 2,118,-1
 140 130 l 2,119,120
 137 118 137 118 133.5 107 c 128,-1,121
 130 96 130 96 126 86 c 1,122,-1
 127 87 l 1,123,124
 125 82 125 82 122.5 76.5 c 128,-1,125
 120 71 120 71 119 64 c 1,126,127
 128 58 128 58 137.5 52 c 128,-1,128
 147 46 147 46 157 42 c 1,129,-1
 159 42 l 1,130,131
 198 22 198 22 203 14 c 0,132,133
 205 11 205 11 206.5 7.5 c 128,-1,134
 208 4 208 4 208 0 c 2,135,136
 208 0 208 0 208 -1 c 128,-1,137
 208 -2 208 -2 208 -2 c 2,138,139
 208 -6 208 -6 207 -8 c 128,-1,140
 206 -10 206 -10 204 -10 c 0,141,142
 198 -6 198 -6 192.5 -1.5 c 128,-1,143
 187 3 187 3 183 8 c 0,144,145
 173 17 173 17 161.5 25.5 c 128,-1,146
 150 34 150 34 138 41 c 2,147,-1
 137 42 l 2,148,149
 129 46 129 46 122 50.5 c 128,-1,150
 115 55 115 55 109 60 c 1,151,-1
 109 59 l 1,152,153
 110 68 110 68 112 77 c 128,-1,154
 114 86 114 86 117 94 c 1,155,-1
 116 93 l 1,94,95
EndSplineSet
Validated: 5
EndChar

StartChar: uniE935
Encoding: 59701 59701 55
Width: 223
GlyphClass: 1
Flags: W
LayerCount: 2
Fore
SplineSet
63 158 m 1,0,1
 68 155 68 155 69 152.5 c 128,-1,2
 70 150 70 150 68 147 c 0,3,4
 66 142 66 142 64.5 135.5 c 128,-1,5
 63 129 63 129 63 123 c 0,6,7
 62 114 62 114 61.5 100.5 c 128,-1,8
 61 87 61 87 61 69 c 256,9,10
 61 51 61 51 64.5 40 c 128,-1,11
 68 29 68 29 75 25 c 0,12,13
 82 22 82 22 89.5 20 c 128,-1,14
 97 18 97 18 105 18 c 0,15,16
 107 18 107 18 109 18.5 c 128,-1,17
 111 19 111 19 112 19 c 0,18,19
 122 19 122 19 131.5 20 c 128,-1,20
 141 21 141 21 150 24 c 1,21,-1
 148 23 l 1,22,23
 154 24 154 24 158.5 27.5 c 128,-1,24
 163 31 163 31 165 35 c 1,25,-1
 166 35 l 1,26,27
 168 41 168 41 169 47.5 c 128,-1,28
 170 54 170 54 171 61 c 0,29,30
 172 70 172 70 173 69 c 128,-1,31
 174 68 174 68 175 57 c 0,32,33
 175 49 175 49 177.5 41 c 128,-1,34
 180 33 180 33 183 26 c 1,35,-1
 183 27 l 1,36,37
 186 22 186 22 184.5 18.5 c 128,-1,38
 183 15 183 15 177 12 c 0,39,40
 169 9 169 9 159 7 c 128,-1,41
 149 5 149 5 139 5 c 0,42,43
 134 4 134 4 128 4 c 128,-1,44
 122 4 122 4 116 4 c 128,-1,45
 110 4 110 4 104 4 c 128,-1,46
 98 4 98 4 92 5 c 1,47,-1
 93 5 l 1,48,49
 84 6 84 6 76 9 c 128,-1,50
 68 12 68 12 61 17 c 1,51,-1
 62 17 l 1,52,53
 56 23 56 23 52.5 30 c 128,-1,54
 49 37 49 37 49 45 c 2,55,56
 49 45 49 45 49 46 c 128,-1,57
 49 47 49 47 50 48 c 1,58,-1
 50 47 l 1,59,60
 50 57 50 57 50 68 c 128,-1,61
 50 79 50 79 50 90 c 0,62,63
 50 93 50 93 50 96.5 c 128,-1,64
 50 100 50 100 50 103 c 0,65,66
 50 110 50 110 49.5 117 c 128,-1,67
 49 124 49 124 49 132 c 1,68,-1
 49 130 l 1,69,70
 49 138 49 138 46.5 145 c 128,-1,71
 44 152 44 152 41 158 c 0,72,73
 38 162 38 162 39 163 c 128,-1,74
 40 164 40 164 44 164 c 0,75,76
 49 163 49 163 54 161.5 c 128,-1,77
 59 160 59 160 63 157 c 1,78,-1
 63 158 l 1,0,1
EndSplineSet
Validated: 37
EndChar

StartChar: uniE936
Encoding: 59702 59702 56
Width: 199
GlyphClass: 1
Flags: W
LayerCount: 2
Fore
SplineSet
160 67 m 0,0,1
 160 68 160 68 159 69 c 128,-1,2
 158 70 158 70 158 70 c 2,3,4
 154 70 154 70 151 69 c 128,-1,5
 148 68 148 68 146 67 c 1,6,-1
 146 67 l 1,7,8
 144 66 144 66 141 65.5 c 128,-1,9
 138 65 138 65 136 65 c 0,10,11
 130 64 130 64 123 63 c 128,-1,12
 116 62 116 62 108 61 c 0,13,14
 94 59 94 59 85 58 c 128,-1,15
 76 57 76 57 72 56 c 0,16,17
 66 56 66 56 63 56.5 c 128,-1,18
 60 57 60 57 60 59 c 0,19,20
 58 68 58 68 58 79 c 128,-1,21
 58 90 58 90 58 102 c 0,22,23
 58 107 58 107 58 112 c 128,-1,24
 58 117 58 117 58 123 c 1,25,-1
 58 122 l 1,26,27
 54 124 54 124 51 124.5 c 128,-1,28
 48 125 48 125 46 126 c 1,29,-1
 46 126 l 1,30,31
 44 126 44 126 44 126 c 257,32,33
 44 126 44 126 43 125 c 128,-1,34
 42 124 42 124 42 123 c 0,35,36
 42 119 42 119 43 115.5 c 128,-1,37
 44 112 44 112 46 109 c 0,38,39
 46 105 46 105 47 100.5 c 128,-1,40
 48 96 48 96 48 91 c 0,41,42
 48 89 48 89 48 87 c 128,-1,43
 48 85 48 85 48 83 c 0,44,45
 46 71 46 71 45 64.5 c 128,-1,46
 44 58 44 58 42 57 c 0,47,48
 40 55 40 55 39 54 c 128,-1,49
 38 53 38 53 38 52 c 0,50,51
 38 50 38 50 39 48.5 c 128,-1,52
 40 47 40 47 41 45 c 128,-1,53
 42 43 42 43 44 42 c 128,-1,54
 46 41 46 41 48 41 c 256,55,56
 50 41 50 41 52 42 c 128,-1,57
 54 43 54 43 58 44 c 0,58,59
 60 45 60 45 62 46 c 128,-1,60
 64 47 64 47 66 47 c 128,-1,61
 68 47 68 47 74 48 c 128,-1,62
 80 49 80 49 90 50 c 0,63,64
 100 52 100 52 110 53 c 0,65,66
 120 53 120 53 128 55 c 2,67,-1
 136 56 l 1,68,-1
 158 56 l 1,69,70
 158 58 158 58 159 61 c 128,-1,71
 160 64 160 64 160 67 c 0,0,1
EndSplineSet
Validated: 5
EndChar

StartChar: uniE937
Encoding: 59703 59703 57
Width: 124
GlyphClass: 1
Flags: W
LayerCount: 2
Fore
SplineSet
45 70 m 0,0,1
 46 76 46 76 47 82.5 c 128,-1,2
 48 89 48 89 48 97 c 0,3,4
 48 99 48 99 48.5 102 c 128,-1,5
 49 105 49 105 49 107 c 0,6,7
 49 111 49 111 48.5 115 c 128,-1,8
 48 119 48 119 47 123 c 0,9,10
 46 126 46 126 46 127 c 128,-1,11
 46 128 46 128 47 128 c 0,12,13
 50 127 50 127 52 126 c 128,-1,14
 54 125 54 125 56 123 c 0,15,16
 59 121 59 121 60.5 119 c 128,-1,17
 62 117 62 117 62 116 c 0,18,19
 62 114 62 114 61.5 112.5 c 128,-1,20
 61 111 61 111 60 109 c 0,21,22
 59 106 59 106 58.5 102.5 c 128,-1,23
 58 99 58 99 57 94 c 0,24,25
 56 90 56 90 55.5 85.5 c 128,-1,26
 55 81 55 81 55 77 c 2,27,-1
 55 76 l 2,28,29
 55 75 55 75 55 75 c 2,30,31
 55 74 55 74 55.5 72.5 c 128,-1,32
 56 71 56 71 56 69 c 0,33,34
 57 68 57 68 60.5 70.5 c 128,-1,35
 64 73 64 73 71 79 c 128,-1,36
 78 85 78 85 81.5 87 c 128,-1,37
 85 89 85 89 85 88 c 0,38,39
 86 87 86 87 83 83 c 128,-1,40
 80 79 80 79 74 72 c 128,-1,41
 68 65 68 65 62.5 59.5 c 128,-1,42
 57 54 57 54 53 49 c 128,-1,43
 49 44 49 44 46.5 41 c 128,-1,44
 44 38 44 38 44 38 c 2,45,46
 43 38 43 38 42 40 c 128,-1,47
 41 42 41 42 40 45 c 0,48,49
 39 47 39 47 38.5 49 c 128,-1,50
 38 51 38 51 38 53 c 128,-1,51
 38 55 38 55 38.5 56.5 c 128,-1,52
 39 58 39 58 41 59 c 0,53,54
 43 61 43 61 43.5 64 c 128,-1,55
 44 67 44 67 45 70 c 0,0,1
EndSplineSet
Validated: 1
EndChar

StartChar: uniE938
Encoding: 59704 59704 58
Width: 222
GlyphClass: 1
Flags: W
LayerCount: 2
Fore
SplineSet
182 100 m 0,0,1
 180 102 180 102 177 103.5 c 128,-1,2
 174 105 174 105 172 106 c 0,3,4
 172 107 172 107 170 107 c 128,-1,5
 168 107 168 107 166 107 c 2,6,7
 166 107 166 107 164 107 c 128,-1,8
 162 107 162 107 162 106 c 0,9,10
 158 105 158 105 154 104 c 128,-1,11
 150 103 150 103 146 102 c 1,12,-1
 146 102 l 1,13,-1
 104 96 l 1,14,-1
 52 90 l 1,15,16
 54 104 54 104 55 114 c 128,-1,17
 56 124 56 124 58 130 c 0,18,19
 58 135 58 135 59 139 c 128,-1,20
 60 143 60 143 62 148 c 1,21,-1
 62 147 l 1,22,23
 62 148 62 148 62 148.5 c 128,-1,24
 62 149 62 149 62 150 c 0,25,26
 62 152 62 152 61 153.5 c 128,-1,27
 60 155 60 155 58 156 c 0,28,29
 56 158 56 158 53 159.5 c 128,-1,30
 50 161 50 161 46 162 c 128,-1,31
 42 163 42 163 41 162 c 128,-1,32
 40 161 40 161 42 157 c 0,33,34
 44 152 44 152 44 146.5 c 128,-1,35
 44 141 44 141 44 135 c 0,36,37
 44 134 44 134 44 132.5 c 128,-1,38
 44 131 44 131 44 129 c 2,39,-1
 44 128 l 1,40,41
 44 128 44 128 44 128 c 1,42,43
 44 121 44 121 44 114 c 128,-1,44
 44 107 44 107 42 101 c 1,45,-1
 42 102 l 1,46,47
 42 98 42 98 41 95.5 c 128,-1,48
 40 93 40 93 40 90 c 0,49,50
 38 88 38 88 38 85.5 c 128,-1,51
 38 83 38 83 40 79 c 128,-1,52
 42 75 42 75 45 74.5 c 128,-1,53
 48 74 48 74 50 76 c 0,54,55
 56 79 56 79 61 81 c 128,-1,56
 66 83 66 83 72 83 c 0,57,58
 78 84 78 84 86 85 c 128,-1,59
 94 86 94 86 102 86 c 2,60,-1
 114 89 l 1,61,-1
 116 89 l 2,62,63
 130 90 130 90 138 90.5 c 128,-1,64
 146 91 146 91 150 92 c 2,65,66
 150 92 150 92 152 92 c 128,-1,67
 154 92 154 92 156 92 c 2,68,69
 156 92 156 92 158 92 c 128,-1,70
 160 92 160 92 162 91 c 1,71,-1
 160 92 l 1,72,73
 162 92 162 92 163 89 c 128,-1,74
 164 86 164 86 164 80 c 256,75,76
 164 74 164 74 164 67.5 c 128,-1,77
 164 61 164 61 162 51 c 0,78,79
 162 44 162 44 161 37.5 c 128,-1,80
 160 31 160 31 160 24 c 1,81,-1
 160 26 l 1,82,83
 160 26 160 26 160 25 c 128,-1,84
 160 24 160 24 160 24 c 2,85,86
 160 20 160 20 161 16.5 c 128,-1,87
 162 13 162 13 164 9 c 0,88,89
 170 -2 170 -2 172 8 c 0,90,91
 174 14 174 14 174 20.5 c 128,-1,92
 174 27 174 27 174 34 c 0,93,94
 174 43 174 43 175 52 c 128,-1,95
 176 61 176 61 176 69 c 0,96,97
 176 70 176 70 176 70.5 c 128,-1,98
 176 71 176 71 176 72 c 0,99,100
 176 77 176 77 177 81.5 c 128,-1,101
 178 86 178 86 182 91 c 1,102,-1
 180 91 l 1,103,104
 182 92 182 92 183 93 c 128,-1,105
 184 94 184 94 184 95 c 256,106,107
 184 96 184 96 183 97.5 c 128,-1,108
 182 99 182 99 182 100 c 0,0,1
EndSplineSet
Validated: 37
EndChar

StartChar: uniE939
Encoding: 59705 59705 59
Width: 214
GlyphClass: 1
Flags: W
LayerCount: 2
Fore
SplineSet
52 106 m 256,0,1
 52 111 52 111 54 118 c 128,-1,2
 56 125 56 125 56 132 c 2,3,-1
 56 133 l 2,4,5
 58 141 58 141 58 148 c 128,-1,6
 58 155 58 155 60 163 c 0,7,8
 60 170 60 170 59 174 c 128,-1,9
 58 178 58 178 58 179 c 1,10,11
 56 179 56 179 56 180 c 128,-1,12
 56 181 56 181 56 182 c 128,-1,13
 56 183 56 183 56 183.5 c 128,-1,14
 56 184 56 184 56 184 c 2,15,16
 56 186 56 186 59 185.5 c 128,-1,17
 62 185 62 185 67 183 c 128,-1,18
 72 181 72 181 74 179 c 128,-1,19
 76 177 76 177 78 175 c 2,20,21
 78 175 78 175 78 174.5 c 128,-1,22
 78 174 78 174 78 173 c 0,23,24
 78 169 78 169 77 166 c 128,-1,25
 76 163 76 163 74 160 c 0,26,27
 74 154 74 154 72 144.5 c 128,-1,28
 70 135 70 135 68 120 c 0,29,30
 66 113 66 113 65 106 c 128,-1,31
 64 99 64 99 64 91 c 2,32,33
 64 91 64 91 64 90.5 c 128,-1,34
 64 90 64 90 64 90 c 257,35,36
 64 90 64 90 65 89.5 c 128,-1,37
 66 89 66 89 68 89 c 0,38,39
 72 89 72 89 76 90 c 128,-1,40
 80 91 80 91 84 92 c 0,41,42
 94 94 94 94 104 95 c 128,-1,43
 114 96 114 96 126 97 c 0,44,45
 132 97 132 97 138 98.5 c 128,-1,46
 144 100 144 100 150 101 c 0,47,48
 150 102 150 102 151 102 c 128,-1,49
 152 102 152 102 153 102 c 128,-1,50
 154 102 154 102 154 102 c 129,-1,51
 154 102 154 102 156 102 c 0,52,53
 160 101 160 101 162 99 c 128,-1,54
 164 97 164 97 168 95 c 0,55,56
 172 92 172 92 174 89.5 c 128,-1,57
 176 87 176 87 176 86 c 256,58,59
 176 85 176 85 175 83.5 c 128,-1,60
 174 82 174 82 172 81 c 128,-1,61
 170 80 170 80 168 74 c 128,-1,62
 166 68 166 68 166 57 c 0,63,64
 164 45 164 45 161 34 c 128,-1,65
 158 23 158 23 154 13 c 1,66,-1
 154 14 l 1,67,68
 152 6 152 6 147 -0.5 c 128,-1,69
 142 -7 142 -7 138 -12 c 0,70,71
 136 -14 136 -14 133 -15.5 c 128,-1,72
 130 -17 130 -17 126 -18 c 0,73,74
 122 -18 122 -18 124 -11 c 0,75,76
 124 -7 124 -7 121 -3.5 c 128,-1,77
 118 0 118 0 112 5 c 256,78,79
 106 10 106 10 103 12.5 c 128,-1,80
 100 15 100 15 100 16 c 0,81,82
 102 17 102 17 105 16 c 128,-1,83
 108 15 108 15 116 13 c 0,84,85
 122 11 122 11 127 10 c 128,-1,86
 132 9 132 9 132 10 c 0,87,88
 134 13 134 13 136 16 c 128,-1,89
 138 19 138 19 140 23 c 0,90,91
 142 28 142 28 144 34.5 c 128,-1,92
 146 41 146 41 146 47 c 2,93,-1
 146 48 l 2,94,95
 148 54 148 54 149 60.5 c 128,-1,96
 150 67 150 67 150 74 c 2,97,-1
 150 75 l 2,98,99
 150 81 150 81 150 84 c 128,-1,100
 150 87 150 87 148 88 c 256,101,102
 146 89 146 89 145 90 c 128,-1,103
 144 91 144 91 142 91 c 128,-1,104
 140 91 140 91 133 90 c 128,-1,105
 126 89 126 89 116 88 c 0,106,107
 104 87 104 87 94 85 c 128,-1,108
 84 83 84 83 74 81 c 1,109,-1
 76 81 l 1,110,111
 70 80 70 80 64 78.5 c 128,-1,112
 58 77 58 77 52 75 c 1,113,-1
 54 75 l 1,114,115
 52 74 52 74 50 73.5 c 128,-1,116
 48 73 48 73 46 73 c 2,117,118
 46 73 46 73 44 74 c 128,-1,119
 42 75 42 75 41 76 c 128,-1,120
 40 77 40 77 39 79.5 c 128,-1,121
 38 82 38 82 38 84 c 0,122,123
 38 85 38 85 40 87 c 128,-1,124
 42 89 42 89 44 90 c 0,125,126
 48 93 48 93 50 97 c 128,-1,127
 52 101 52 101 52 106 c 256,0,1
EndSplineSet
Validated: 1
EndChar

StartChar: uniE93A
Encoding: 59706 59706 60
Width: 197
GlyphClass: 1
Flags: W
LayerCount: 2
Fore
SplineSet
39 191 m 0,0,1
 39 192 39 192 41 192.5 c 128,-1,2
 43 193 43 193 46 192 c 128,-1,3
 49 191 49 191 51.5 190.5 c 128,-1,4
 54 190 54 190 57 189 c 0,5,6
 62 187 62 187 62 184 c 2,7,8
 62 184 62 184 62 183.5 c 128,-1,9
 62 183 62 183 62 183 c 2,10,11
 62 182 62 182 61.5 181 c 128,-1,12
 61 180 61 180 61 179 c 128,-1,13
 61 178 61 178 60.5 176.5 c 128,-1,14
 60 175 60 175 60 174 c 0,15,16
 60 172 60 172 60.5 170.5 c 128,-1,17
 61 169 61 169 61 168 c 0,18,19
 62 164 62 164 63.5 156 c 128,-1,20
 65 148 65 148 66 136 c 0,21,22
 69 122 69 122 72 110 c 128,-1,23
 75 98 75 98 79 86 c 1,24,-1
 79 89 l 1,25,26
 84 74 84 74 89.5 61.5 c 128,-1,27
 95 49 95 49 102 37 c 1,28,-1
 101 38 l 1,29,30
 106 29 106 29 112 21 c 128,-1,31
 118 13 118 13 126 6 c 0,32,33
 129 4 129 4 131.5 3 c 128,-1,34
 134 2 134 2 137 1 c 2,35,-1
 138 1 l 2,36,37
 139 1 139 1 141 4.5 c 128,-1,38
 143 8 143 8 145 17 c 0,39,40
 147 25 147 25 148.5 29 c 128,-1,41
 150 33 150 33 151 33 c 128,-1,42
 152 33 152 33 152.5 28 c 128,-1,43
 153 23 153 23 154 13 c 0,44,45
 154 6 154 6 154.5 -1 c 128,-1,46
 155 -8 155 -8 157 -15 c 1,47,-1
 157 -14 l 1,48,49
 158 -15 158 -15 158 -16.5 c 128,-1,50
 158 -18 158 -18 158 -20 c 0,51,52
 158 -21 158 -21 158 -22 c 128,-1,53
 158 -23 158 -23 157 -24 c 1,54,-1
 158 -24 l 1,55,56
 157 -25 157 -25 154.5 -25.5 c 128,-1,57
 152 -26 152 -26 148 -25 c 0,58,59
 142 -24 142 -24 136.5 -21.5 c 128,-1,60
 131 -19 131 -19 127 -15 c 1,61,-1
 127 -16 l 1,62,63
 120 -11 120 -11 114 -5 c 128,-1,64
 108 1 108 1 103 8 c 1,65,-1
 103 9 l 1,66,67
 96 18 96 18 90 29 c 128,-1,68
 84 40 84 40 79 52 c 1,69,-1
 79 53 l 1,70,71
 73 65 73 65 68.5 78.5 c 128,-1,72
 64 92 64 92 60 107 c 2,73,-1
 59 110 l 2,74,75
 55 124 55 124 52.5 136.5 c 128,-1,76
 50 149 50 149 48 161 c 0,77,78
 48 168 48 168 46 174.5 c 128,-1,79
 44 181 44 181 41 187 c 1,80,-1
 41 186 l 1,81,82
 39 187 39 187 38.5 188.5 c 128,-1,83
 38 190 38 190 39 191 c 0,0,1
EndSplineSet
Validated: 1
EndChar

StartChar: uniE93B
Encoding: 59707 59707 61
Width: 201
GlyphClass: 1
Flags: W
LayerCount: 2
Fore
SplineSet
72 52 m 0,0,1
 76 46 76 46 80 39 c 128,-1,2
 84 32 84 32 88 24 c 1,3,-1
 88 23 l 2,4,5
 90 21 90 21 90 18.5 c 128,-1,6
 90 16 90 16 90 13 c 0,7,8
 90 9 90 9 89 6 c 128,-1,9
 88 3 88 3 86 1 c 0,10,11
 82 -3 82 -3 79 -4 c 128,-1,12
 76 -5 76 -5 76 -2 c 0,13,14
 74 2 74 2 73 6.5 c 128,-1,15
 72 11 72 11 70 16 c 0,16,17
 68 25 68 25 65 33.5 c 128,-1,18
 62 42 62 42 58 50 c 1,19,-1
 58 49 l 1,20,21
 54 59 54 59 48 68 c 0,22,23
 44 77 44 77 38 85 c 1,24,25
 44 94 44 94 50 104 c 128,-1,26
 56 114 56 114 60 124 c 0,27,28
 64 130 64 130 67 137 c 128,-1,29
 70 144 70 144 74 151 c 1,30,-1
 74 153 l 2,31,32
 76 156 76 156 76 159 c 128,-1,33
 76 162 76 162 76 166 c 2,34,35
 76 166 76 166 76 166.5 c 128,-1,36
 76 167 76 167 76 167 c 2,37,38
 76 171 76 171 77 171.5 c 128,-1,39
 78 172 78 172 82 170 c 128,-1,40
 86 168 86 168 89 165.5 c 128,-1,41
 92 163 92 163 94 161 c 256,42,43
 96 159 96 159 96 156 c 128,-1,44
 96 153 96 153 92 150 c 0,45,46
 90 146 90 146 87 142.5 c 128,-1,47
 84 139 84 139 82 134 c 0,48,49
 72 120 72 120 64 107.5 c 128,-1,50
 56 95 56 95 46 83 c 1,51,-1
 46 85 l 1,52,53
 62 67 62 67 72 52 c 0,0,1
148 49 m 0,54,55
 152 45 152 45 155 40.5 c 128,-1,56
 158 36 158 36 160 31 c 0,57,58
 162 29 162 29 162 26.5 c 128,-1,59
 162 24 162 24 162 22 c 0,60,61
 162 21 162 21 162 19.5 c 128,-1,62
 162 18 162 18 162 17 c 0,63,64
 160 13 160 13 158 10.5 c 128,-1,65
 156 8 156 8 154 5 c 256,66,67
 152 2 152 2 150 3.5 c 128,-1,68
 148 5 148 5 146 11 c 0,69,70
 144 19 144 19 141 25.5 c 128,-1,71
 138 32 138 32 134 38 c 1,72,-1
 136 38 l 1,73,74
 128 50 128 50 120 60.5 c 128,-1,75
 112 71 112 71 104 81 c 1,76,77
 114 94 114 94 122 109 c 128,-1,78
 130 124 130 124 138 140 c 1,79,-1
 138 143 l 2,80,81
 140 147 140 147 141 152 c 128,-1,82
 142 157 142 157 142 162 c 0,83,84
 142 170 142 170 150 165 c 0,85,86
 152 163 152 163 155 160.5 c 128,-1,87
 158 158 158 158 160 156 c 128,-1,88
 162 154 162 154 162 151.5 c 128,-1,89
 162 149 162 149 160 148 c 0,90,91
 156 144 156 144 154 140 c 128,-1,92
 152 136 152 136 148 131 c 0,93,94
 144 124 144 124 140 117.5 c 128,-1,95
 136 111 136 111 132 104 c 128,-1,96
 128 97 128 97 123 91.5 c 128,-1,97
 118 86 118 86 112 80 c 1,98,99
 122 72 122 72 131 64.5 c 128,-1,100
 140 57 140 57 148 49 c 0,54,55
EndSplineSet
Validated: 37
EndChar

StartChar: uniE93C
Encoding: 59708 59708 62
Width: 159
GlyphClass: 1
Flags: W
LayerCount: 2
Fore
SplineSet
120 95 m 2,0,1
 120 97 120 97 120 99 c 128,-1,2
 120 101 120 101 118 103 c 256,3,4
 116 105 116 105 114 107 c 128,-1,5
 112 109 112 109 110 110 c 0,6,7
 108 110 108 110 108 110 c 129,-1,8
 108 110 108 110 106 110 c 2,9,10
 106 110 106 110 105 110 c 128,-1,11
 104 110 104 110 104 110 c 2,12,13
 102 108 102 108 104 105 c 0,14,15
 104 103 104 103 102 97 c 128,-1,16
 100 91 100 91 94 82 c 1,17,18
 86 81 86 81 79 80 c 128,-1,19
 72 79 72 79 64 79 c 0,20,21
 62 79 62 79 61 79 c 128,-1,22
 60 79 60 79 58 79 c 1,23,-1
 58 79 l 1,24,25
 64 87 64 87 69 94 c 128,-1,26
 74 101 74 101 80 107 c 1,27,-1
 78 107 l 1,28,29
 84 114 84 114 90 121 c 128,-1,30
 96 128 96 128 100 135 c 1,31,-1
 100 136 l 2,32,33
 100 138 100 138 99 139.5 c 128,-1,34
 98 141 98 141 96 142 c 0,35,36
 94 144 94 144 92 145.5 c 128,-1,37
 90 147 90 147 88 148 c 0,38,39
 84 149 84 149 82 149 c 128,-1,40
 80 149 80 149 80 148 c 0,41,42
 78 147 78 147 79 145.5 c 128,-1,43
 80 144 80 144 80 143 c 0,44,45
 82 141 82 141 81 137 c 128,-1,46
 80 133 80 133 77 126 c 128,-1,47
 74 119 74 119 70 112.5 c 128,-1,48
 66 106 66 106 62 100 c 0,49,50
 60 95 60 95 56 91 c 128,-1,51
 52 87 52 87 48 83 c 0,52,53
 46 82 46 82 43 80 c 128,-1,54
 40 78 40 78 40 76 c 1,55,-1
 38 76 l 1,56,57
 38 75 38 75 39 73 c 128,-1,58
 40 71 40 71 42 68 c 0,59,60
 44 66 44 66 46 64.5 c 128,-1,61
 48 63 48 63 48 63 c 2,62,63
 50 63 50 63 52 64 c 128,-1,64
 54 65 54 65 56 66 c 256,65,66
 58 67 58 67 62 69 c 128,-1,67
 66 71 66 71 70 72 c 1,68,-1
 70 72 l 1,69,70
 74 73 74 73 79 73.5 c 128,-1,71
 84 74 84 74 90 74 c 1,72,73
 86 67 86 67 82 61.5 c 128,-1,74
 78 56 78 56 72 51 c 1,75,-1
 74 51 l 1,76,77
 70 47 70 47 66 43 c 128,-1,78
 62 39 62 39 58 36 c 2,79,-1
 56 36 l 2,80,81
 54 34 54 34 52 32 c 0,82,83
 50 31 50 31 50 29 c 128,-1,84
 50 27 50 27 51 25 c 128,-1,85
 52 23 52 23 54 22 c 0,86,87
 56 20 56 20 57 19 c 128,-1,88
 58 18 58 18 60 18 c 0,89,90
 62 19 62 19 64 19.5 c 128,-1,91
 66 20 66 20 68 22 c 0,92,93
 74 26 74 26 80 29 c 128,-1,94
 86 32 86 32 92 35 c 2,95,-1
 94 35 l 1,96,97
 104 40 104 40 110 43.5 c 128,-1,98
 116 47 116 47 116 47 c 129,-1,99
 116 47 116 47 110 46.5 c 128,-1,100
 104 46 104 46 96 44 c 0,101,102
 92 42 92 42 87 41 c 128,-1,103
 82 40 82 40 76 39 c 1,104,105
 82 47 82 47 87 53.5 c 128,-1,106
 92 60 92 60 98 66 c 0,107,108
 104 73 104 73 109 80 c 128,-1,109
 114 87 114 87 120 94 c 1,110,-1
 120 95 l 2,0,1
EndSplineSet
Validated: 5
EndChar

